<?xml version="1.0" encoding="UTF-8" standalone="no"?>
<!-- Generator: Fusion 360, Shaper Origin Export Add-In, Version 1.6.3  -->

<svg
   shaper:fusionaddin="version:1.6.3"
   width="19.05cm"
   height="5.4769cm"
   version="1.1"
   x="0cm"
   y="0cm"
   viewBox="0 0 19.05 5.4769"
   enable-background="new 0 0 19.05 5.4769"
   xml:space="preserve"
   id="svg915"
   sodipodi:docname="cover.svg"
   inkscape:version="1.1.1 (c3084ef, 2021-09-22)"
   xmlns:inkscape="http://www.inkscape.org/namespaces/inkscape"
   xmlns:sodipodi="http://sodipodi.sourceforge.net/DTD/sodipodi-0.dtd"
   xmlns="http://www.w3.org/2000/svg"
   xmlns:svg="http://www.w3.org/2000/svg"
   xmlns:shaper="http://www.shapertools.com/namespaces/shaper"><defs
     id="defs919"><linearGradient
       id="linearGradient3321"
       inkscape:swatch="solid"><stop
         style="stop-color:#000000;stop-opacity:1;"
         offset="0"
         id="stop3319" /></linearGradient></defs><sodipodi:namedview
     id="namedview917"
     pagecolor="#505050"
     bordercolor="#eeeeee"
     borderopacity="1"
     inkscape:pageshadow="0"
     inkscape:pageopacity="0"
     inkscape:pagecheckerboard="0"
     inkscape:document-units="cm"
     showgrid="false"
     inkscape:zoom="0.75694447"
     inkscape:cx="188.91742"
     inkscape:cy="322.34861"
     inkscape:window-width="1611"
     inkscape:window-height="872"
     inkscape:window-x="2797"
     inkscape:window-y="401"
     inkscape:window-maximized="0"
     inkscape:current-layer="svg915" /><path
     d="M0,0 L18.65,-0 A0.2,0.2 270 0,1 18.85,0.2 L18.85,5.2769 A0.2,0.2 0 0,1 18.65,5.4769 L0,5.4769 A0.2,0.2 90 0,1 -0.2,5.2769 L-0.2,0.2 A0.2,0.2 180 0,1 0,0z"
     transform="matrix(1,0,0,-1,0.2,5.4769)"
     fill="rgb(0,0,0)"
     shaper:cutDepth="0.002"
     stroke-linecap="round"
     stroke-linejoin="round"
     id="path901"
     style="fill:#ffffff;stroke:#ff0000;stroke-opacity:1;stroke-width:0.0378;stroke-miterlimit:4;stroke-dasharray:none" /><path
     d="M0.9052954,4.0492296 a0.775,0.775 0 1,1 1.55,0 a0.775,0.775 0 1,1 -1.55,0z"
     transform="matrix(1,0,0,-1,0.2,5.4769)"
     fill="rgb(255,255,255)"
     stroke="rgb(0,0,0)"
     stroke-width="0.0010cm"
     stroke-linecap="round"
     stroke-linejoin="round"
     shaper:cutDepth="0.002"
     id="path903"
     style="stroke:#ff0000;stroke-opacity:1" /><path
     d="M0.9043343,1.6669574 a0.775,0.775 0 1,1 1.55,0 a0.775,0.775 0 1,1 -1.55,0z"
     transform="matrix(1,0,0,-1,0.2,5.4769)"
     fill="rgb(255,255,255)"
     stroke="rgb(0,0,0)"
     stroke-width="0.0010cm"
     stroke-linecap="round"
     stroke-linejoin="round"
     shaper:cutDepth="0.002"
     id="path905"
     style="stroke:#ff0000;stroke-opacity:1" /><path
     d="M0.0863,5.1594 a0.11,0.11 0 1,1 0.22,0 a0.11,0.11 0 1,1 -0.22,0z"
     transform="matrix(1,0,0,-1,0.2,5.4769)"
     fill="rgb(255,255,255)"
     stroke="rgb(0,0,0)"
     stroke-width="0.0010cm"
     stroke-linecap="round"
     stroke-linejoin="round"
     shaper:cutDepth="0.002"
     id="path907"
     style="fill:none;stroke:#ff0000;stroke-opacity:1" /><path
     d="M18.3437,5.1594 a0.11,0.11 0 1,1 0.22,0 a0.11,0.11 0 1,1 -0.22,0z"
     transform="matrix(1,0,0,-1,0.2,5.4769)"
     fill="rgb(255,255,255)"
     stroke="rgb(0,0,0)"
     stroke-width="0.0010cm"
     stroke-linecap="round"
     stroke-linejoin="round"
     shaper:cutDepth="0.002"
     id="path909"
     style="stroke:#ff0000;stroke-opacity:1" /><path
     d="M18.3437,0.3175 a0.11,0.11 0 1,1 0.22,0 a0.11,0.11 0 1,1 -0.22,0z"
     transform="matrix(1,0,0,-1,0.2,5.4769)"
     fill="rgb(255,255,255)"
     stroke="rgb(0,0,0)"
     stroke-width="0.0010cm"
     stroke-linecap="round"
     stroke-linejoin="round"
     shaper:cutDepth="0.002"
     id="path911"
     style="stroke:#ff0000;stroke-opacity:1" /><path
     d="M0.0863,0.3175 a0.11,0.11 0 1,1 0.22,0 a0.11,0.11 0 1,1 -0.22,0z"
     transform="matrix(1,0,0,-1,0.2,5.4769)"
     fill="rgb(255,255,255)"
     stroke="rgb(0,0,0)"
     stroke-width="0.0010cm"
     stroke-linecap="round"
     stroke-linejoin="round"
     shaper:cutDepth="0.002"
     id="path913"
     style="stroke:#ff0000;stroke-opacity:1" /></svg>
