0
SECTION
2
HEADER
9
$INSUNITS
70
4
0
ENDSEC
0
SECTION
2
TABLES
0
TABLE
2
LTYPE
0
LTYPE
72
65
70
64
2
CONTINUOUS
3
______
73
0
40
0
0
ENDTAB
0
TABLE
2
LAYER
0
ENDTAB
0
ENDSEC
0
SECTION
2
ENTITIES
0
LINE
8
0
10
102.25
20
-19.69375
11
102.25
21
-32.69375
0
LINE
8
0
10
88.25
20
-19.69375
11
88.25
21
-32.69375
0
LINE
8
0
10
101.75
20
-19.19375
11
88.75
21
-19.19375
0
LINE
8
0
10
101.75
20
-33.19375
11
88.75
21
-33.19375
0
ARC
8
0
10
101.75
20
-19.69375
40
0.5
50
0
51
90
0
ARC
8
0
10
101.75
20
-32.69375
40
0.5
50
270
51
0
0
ARC
8
0
10
88.75
20
-19.69375
40
0.5
50
90
51
180
0
ARC
8
0
10
88.75
20
-32.69375
40
0.5
50
180
51
270
0
LINE
8
0
10
101.25
20
-11.25575
11
101.25
21
-17.25575
0
LINE
8
0
10
86.25
20
-11.25575
11
86.25
21
-17.25575
0
LINE
8
0
10
100.75
20
-10.75575
11
86.75
21
-10.75575
0
LINE
8
0
10
100.75
20
-17.75575
11
86.75
21
-17.75575
0
ARC
8
0
10
100.75
20
-11.25575
40
0.5
50
0
51
90
0
ARC
8
0
10
100.75
20
-17.25575
40
0.5
50
270
51
0
0
ARC
8
0
10
86.75
20
-11.25575
40
0.5
50
90
51
180
0
ARC
8
0
10
86.75
20
-17.25575
40
0.5
50
180
51
270
0
LINE
8
0
10
101.25
20
-35.13175
11
101.25
21
-41.13175
0
LINE
8
0
10
86.25
20
-35.13175
11
86.25
21
-41.13175
0
LINE
8
0
10
100.75
20
-34.63175
11
86.75
21
-34.63175
0
LINE
8
0
10
100.75
20
-41.63175
11
86.75
21
-41.63175
0
ARC
8
0
10
100.75
20
-35.13175
40
0.5
50
0
51
90
0
ARC
8
0
10
100.75
20
-41.13175
40
0.5
50
270
51
0
0
ARC
8
0
10
86.75
20
-35.13175
40
0.5
50
90
51
180
0
ARC
8
0
10
86.75
20
-41.13175
40
0.5
50
180
51
270
0
LINE
8
0
10
33.98125
20
-19.19375
11
46.98125
21
-19.19375
0
LINE
8
0
10
33.98125
20
-33.19375
11
46.98125
21
-33.19375
0
LINE
8
0
10
33.48125
20
-19.69375
11
33.48125
21
-32.69375
0
LINE
8
0
10
47.48125
20
-19.69375
11
47.48125
21
-32.69375
0
ARC
8
0
10
33.98125
20
-19.69375
40
0.5
50
90
51
180
0
ARC
8
0
10
46.98125
20
-19.69375
40
0.5
50
0
51
90
0
ARC
8
0
10
33.98125
20
-32.69375
40
0.5
50
180
51
270
0
ARC
8
0
10
46.98125
20
-32.69375
40
0.5
50
270
51
0
0
LINE
8
0
10
18.43125
20
-20.19375
11
24.43125
21
-20.19375
0
LINE
8
0
10
18.43125
20
-35.19375
11
24.43125
21
-35.19375
0
LINE
8
0
10
17.93125
20
-20.69375
11
17.93125
21
-34.69375
0
LINE
8
0
10
24.93125
20
-20.69375
11
24.93125
21
-34.69375
0
ARC
8
0
10
18.43125
20
-20.69375
40
0.5
50
90
51
180
0
ARC
8
0
10
24.43125
20
-20.69375
40
0.5
50
0
51
90
0
ARC
8
0
10
18.43125
20
-34.69375
40
0.5
50
180
51
270
0
ARC
8
0
10
24.43125
20
-34.69375
40
0.5
50
270
51
0
0
LINE
8
0
10
56.53125
20
-20.19375
11
62.53125
21
-20.19375
0
LINE
8
0
10
56.53125
20
-35.19375
11
62.53125
21
-35.19375
0
LINE
8
0
10
56.03125
20
-20.69375
11
56.03125
21
-34.69375
0
LINE
8
0
10
63.03125
20
-20.69375
11
63.03125
21
-34.69375
0
ARC
8
0
10
56.53125
20
-20.69375
40
0.5
50
90
51
180
0
ARC
8
0
10
62.53125
20
-20.69375
40
0.5
50
0
51
90
0
ARC
8
0
10
56.53125
20
-34.69375
40
0.5
50
180
51
270
0
ARC
8
0
10
62.53125
20
-34.69375
40
0.5
50
270
51
0
0
LINE
8
0
10
110.18125
20
-19.19375
11
123.18125
21
-19.19375
0
LINE
8
0
10
110.18125
20
-33.19375
11
123.18125
21
-33.19375
0
LINE
8
0
10
109.68125
20
-19.69375
11
109.68125
21
-32.69375
0
LINE
8
0
10
123.68125
20
-19.69375
11
123.68125
21
-32.69375
0
ARC
8
0
10
110.18125
20
-19.69375
40
0.5
50
90
51
180
0
ARC
8
0
10
123.18125
20
-19.69375
40
0.5
50
0
51
90
0
ARC
8
0
10
110.18125
20
-32.69375
40
0.5
50
180
51
270
0
ARC
8
0
10
123.18125
20
-32.69375
40
0.5
50
270
51
0
0
LINE
8
0
10
94.63125
20
-20.19375
11
100.63125
21
-20.19375
0
LINE
8
0
10
94.63125
20
-35.19375
11
100.63125
21
-35.19375
0
LINE
8
0
10
94.13125
20
-20.69375
11
94.13125
21
-34.69375
0
LINE
8
0
10
101.13125
20
-20.69375
11
101.13125
21
-34.69375
0
ARC
8
0
10
94.63125
20
-20.69375
40
0.5
50
90
51
180
0
ARC
8
0
10
100.63125
20
-20.69375
40
0.5
50
0
51
90
0
ARC
8
0
10
94.63125
20
-34.69375
40
0.5
50
180
51
270
0
ARC
8
0
10
100.63125
20
-34.69375
40
0.5
50
270
51
0
0
LINE
8
0
10
132.73125
20
-20.19375
11
138.73125
21
-20.19375
0
LINE
8
0
10
132.73125
20
-35.19375
11
138.73125
21
-35.19375
0
LINE
8
0
10
132.23125
20
-20.69375
11
132.23125
21
-34.69375
0
LINE
8
0
10
139.23125
20
-20.69375
11
139.23125
21
-34.69375
0
ARC
8
0
10
132.73125
20
-20.69375
40
0.5
50
90
51
180
0
ARC
8
0
10
138.73125
20
-20.69375
40
0.5
50
0
51
90
0
ARC
8
0
10
132.73125
20
-34.69375
40
0.5
50
180
51
270
0
ARC
8
0
10
138.73125
20
-34.69375
40
0.5
50
270
51
0
0
LINE
8
0
10
164.95
20
-7.2875
11
177.95
21
-7.2875
0
LINE
8
0
10
164.95
20
-21.2875
11
177.95
21
-21.2875
0
LINE
8
0
10
164.45
20
-7.7875
11
164.45
21
-20.7875
0
LINE
8
0
10
178.45
20
-7.7875
11
178.45
21
-20.7875
0
ARC
8
0
10
164.95
20
-7.7875
40
0.5
50
90
51
180
0
ARC
8
0
10
177.95
20
-7.7875
40
0.5
50
0
51
90
0
ARC
8
0
10
164.95
20
-20.7875
40
0.5
50
180
51
270
0
ARC
8
0
10
177.95
20
-20.7875
40
0.5
50
270
51
0
0
LINE
8
0
10
164.95
20
-31.1
11
177.95
21
-31.1
0
LINE
8
0
10
164.95
20
-45.1
11
177.95
21
-45.1
0
LINE
8
0
10
164.45
20
-31.6
11
164.45
21
-44.6
0
LINE
8
0
10
178.45
20
-31.6
11
178.45
21
-44.6
0
ARC
8
0
10
164.95
20
-31.6
40
0.5
50
90
51
180
0
ARC
8
0
10
177.95
20
-31.6
40
0.5
50
0
51
90
0
ARC
8
0
10
164.95
20
-44.6
40
0.5
50
180
51
270
0
ARC
8
0
10
177.95
20
-44.6
40
0.5
50
270
51
0
0
LINE
8
0
10
3.025
20
-54.9125
11
16.025
21
-54.9125
0
LINE
8
0
10
3.025
20
-68.9125
11
16.025
21
-68.9125
0
LINE
8
0
10
2.525
20
-55.4125
11
2.525
21
-68.4125
0
LINE
8
0
10
16.525
20
-55.4125
11
16.525
21
-68.4125
0
ARC
8
0
10
3.025
20
-55.4125
40
0.5
50
90
51
180
0
ARC
8
0
10
16.025
20
-55.4125
40
0.5
50
0
51
90
0
ARC
8
0
10
3.025
20
-68.4125
40
0.5
50
180
51
270
0
ARC
8
0
10
16.025
20
-68.4125
40
0.5
50
270
51
0
0
LINE
8
0
10
22.075
20
-54.9125
11
35.075
21
-54.9125
0
LINE
8
0
10
22.075
20
-68.9125
11
35.075
21
-68.9125
0
LINE
8
0
10
21.575
20
-55.4125
11
21.575
21
-68.4125
0
LINE
8
0
10
35.575
20
-55.4125
11
35.575
21
-68.4125
0
ARC
8
0
10
22.075
20
-55.4125
40
0.5
50
90
51
180
0
ARC
8
0
10
35.075
20
-55.4125
40
0.5
50
0
51
90
0
ARC
8
0
10
22.075
20
-68.4125
40
0.5
50
180
51
270
0
ARC
8
0
10
35.075
20
-68.4125
40
0.5
50
270
51
0
0
LINE
8
0
10
41.125
20
-54.9125
11
54.125
21
-54.9125
0
LINE
8
0
10
41.125
20
-68.9125
11
54.125
21
-68.9125
0
LINE
8
0
10
40.625
20
-55.4125
11
40.625
21
-68.4125
0
LINE
8
0
10
54.625
20
-55.4125
11
54.625
21
-68.4125
0
ARC
8
0
10
41.125
20
-55.4125
40
0.5
50
90
51
180
0
ARC
8
0
10
54.125
20
-55.4125
40
0.5
50
0
51
90
0
ARC
8
0
10
41.125
20
-68.4125
40
0.5
50
180
51
270
0
ARC
8
0
10
54.125
20
-68.4125
40
0.5
50
270
51
0
0
LINE
8
0
10
60.175
20
-54.9125
11
73.175
21
-54.9125
0
LINE
8
0
10
60.175
20
-68.9125
11
73.175
21
-68.9125
0
LINE
8
0
10
59.675
20
-55.4125
11
59.675
21
-68.4125
0
LINE
8
0
10
73.675
20
-55.4125
11
73.675
21
-68.4125
0
ARC
8
0
10
60.175
20
-55.4125
40
0.5
50
90
51
180
0
ARC
8
0
10
73.175
20
-55.4125
40
0.5
50
0
51
90
0
ARC
8
0
10
60.175
20
-68.4125
40
0.5
50
180
51
270
0
ARC
8
0
10
73.175
20
-68.4125
40
0.5
50
270
51
0
0
LINE
8
0
10
79.225
20
-54.9125
11
92.225
21
-54.9125
0
LINE
8
0
10
79.225
20
-68.9125
11
92.225
21
-68.9125
0
LINE
8
0
10
78.725
20
-55.4125
11
78.725
21
-68.4125
0
LINE
8
0
10
92.725
20
-55.4125
11
92.725
21
-68.4125
0
ARC
8
0
10
79.225
20
-55.4125
40
0.5
50
90
51
180
0
ARC
8
0
10
92.225
20
-55.4125
40
0.5
50
0
51
90
0
ARC
8
0
10
79.225
20
-68.4125
40
0.5
50
180
51
270
0
ARC
8
0
10
92.225
20
-68.4125
40
0.5
50
270
51
0
0
LINE
8
0
10
98.275
20
-54.9125
11
111.275
21
-54.9125
0
LINE
8
0
10
98.275
20
-68.9125
11
111.275
21
-68.9125
0
LINE
8
0
10
97.775
20
-55.4125
11
97.775
21
-68.4125
0
LINE
8
0
10
111.775
20
-55.4125
11
111.775
21
-68.4125
0
ARC
8
0
10
98.275
20
-55.4125
40
0.5
50
90
51
180
0
ARC
8
0
10
111.275
20
-55.4125
40
0.5
50
0
51
90
0
ARC
8
0
10
98.275
20
-68.4125
40
0.5
50
180
51
270
0
ARC
8
0
10
111.275
20
-68.4125
40
0.5
50
270
51
0
0
LINE
8
0
10
117.325
20
-54.9125
11
130.325
21
-54.9125
0
LINE
8
0
10
117.325
20
-68.9125
11
130.325
21
-68.9125
0
LINE
8
0
10
116.825
20
-55.4125
11
116.825
21
-68.4125
0
LINE
8
0
10
130.825
20
-55.4125
11
130.825
21
-68.4125
0
ARC
8
0
10
117.325
20
-55.4125
40
0.5
50
90
51
180
0
ARC
8
0
10
130.325
20
-55.4125
40
0.5
50
0
51
90
0
ARC
8
0
10
117.325
20
-68.4125
40
0.5
50
180
51
270
0
ARC
8
0
10
130.325
20
-68.4125
40
0.5
50
270
51
0
0
LINE
8
0
10
136.375
20
-54.9125
11
149.375
21
-54.9125
0
LINE
8
0
10
136.375
20
-68.9125
11
149.375
21
-68.9125
0
LINE
8
0
10
135.875
20
-55.4125
11
135.875
21
-68.4125
0
LINE
8
0
10
149.875
20
-55.4125
11
149.875
21
-68.4125
0
ARC
8
0
10
136.375
20
-55.4125
40
0.5
50
90
51
180
0
ARC
8
0
10
149.375
20
-55.4125
40
0.5
50
0
51
90
0
ARC
8
0
10
136.375
20
-68.4125
40
0.5
50
180
51
270
0
ARC
8
0
10
149.375
20
-68.4125
40
0.5
50
270
51
0
0
LINE
8
0
10
155.425
20
-54.9125
11
168.425
21
-54.9125
0
LINE
8
0
10
155.425
20
-68.9125
11
168.425
21
-68.9125
0
LINE
8
0
10
154.925
20
-55.4125
11
154.925
21
-68.4125
0
LINE
8
0
10
168.925
20
-55.4125
11
168.925
21
-68.4125
0
ARC
8
0
10
155.425
20
-55.4125
40
0.5
50
90
51
180
0
ARC
8
0
10
168.425
20
-55.4125
40
0.5
50
0
51
90
0
ARC
8
0
10
155.425
20
-68.4125
40
0.5
50
180
51
270
0
ARC
8
0
10
168.425
20
-68.4125
40
0.5
50
270
51
0
0
LINE
8
0
10
174.475
20
-54.9125
11
187.475
21
-54.9125
0
LINE
8
0
10
174.475
20
-68.9125
11
187.475
21
-68.9125
0
LINE
8
0
10
173.975
20
-55.4125
11
173.975
21
-68.4125
0
LINE
8
0
10
187.975
20
-55.4125
11
187.975
21
-68.4125
0
ARC
8
0
10
174.475
20
-55.4125
40
0.5
50
90
51
180
0
ARC
8
0
10
187.475
20
-55.4125
40
0.5
50
0
51
90
0
ARC
8
0
10
174.475
20
-68.4125
40
0.5
50
180
51
270
0
ARC
8
0
10
187.475
20
-68.4125
40
0.5
50
270
51
0
0
LINE
8
0
10
3.025
20
-73.9625
11
16.025
21
-73.9625
0
LINE
8
0
10
3.025
20
-87.9625
11
16.025
21
-87.9625
0
LINE
8
0
10
2.525
20
-74.4625
11
2.525
21
-87.4625
0
LINE
8
0
10
16.525
20
-74.4625
11
16.525
21
-87.4625
0
ARC
8
0
10
3.025
20
-74.4625
40
0.5
50
90
51
180
0
ARC
8
0
10
16.025
20
-74.4625
40
0.5
50
0
51
90
0
ARC
8
0
10
3.025
20
-87.4625
40
0.5
50
180
51
270
0
ARC
8
0
10
16.025
20
-87.4625
40
0.5
50
270
51
0
0
LINE
8
0
10
22.075
20
-73.9625
11
35.075
21
-73.9625
0
LINE
8
0
10
22.075
20
-87.9625
11
35.075
21
-87.9625
0
LINE
8
0
10
21.575
20
-74.4625
11
21.575
21
-87.4625
0
LINE
8
0
10
35.575
20
-74.4625
11
35.575
21
-87.4625
0
ARC
8
0
10
22.075
20
-74.4625
40
0.5
50
90
51
180
0
ARC
8
0
10
35.075
20
-74.4625
40
0.5
50
0
51
90
0
ARC
8
0
10
22.075
20
-87.4625
40
0.5
50
180
51
270
0
ARC
8
0
10
35.075
20
-87.4625
40
0.5
50
270
51
0
0
LINE
8
0
10
41.125
20
-73.9625
11
54.125
21
-73.9625
0
LINE
8
0
10
41.125
20
-87.9625
11
54.125
21
-87.9625
0
LINE
8
0
10
40.625
20
-74.4625
11
40.625
21
-87.4625
0
LINE
8
0
10
54.625
20
-74.4625
11
54.625
21
-87.4625
0
ARC
8
0
10
41.125
20
-74.4625
40
0.5
50
90
51
180
0
ARC
8
0
10
54.125
20
-74.4625
40
0.5
50
0
51
90
0
ARC
8
0
10
41.125
20
-87.4625
40
0.5
50
180
51
270
0
ARC
8
0
10
54.125
20
-87.4625
40
0.5
50
270
51
0
0
LINE
8
0
10
60.175
20
-73.9625
11
73.175
21
-73.9625
0
LINE
8
0
10
60.175
20
-87.9625
11
73.175
21
-87.9625
0
LINE
8
0
10
59.675
20
-74.4625
11
59.675
21
-87.4625
0
LINE
8
0
10
73.675
20
-74.4625
11
73.675
21
-87.4625
0
ARC
8
0
10
60.175
20
-74.4625
40
0.5
50
90
51
180
0
ARC
8
0
10
73.175
20
-74.4625
40
0.5
50
0
51
90
0
ARC
8
0
10
60.175
20
-87.4625
40
0.5
50
180
51
270
0
ARC
8
0
10
73.175
20
-87.4625
40
0.5
50
270
51
0
0
LINE
8
0
10
79.225
20
-73.9625
11
92.225
21
-73.9625
0
LINE
8
0
10
79.225
20
-87.9625
11
92.225
21
-87.9625
0
LINE
8
0
10
78.725
20
-74.4625
11
78.725
21
-87.4625
0
LINE
8
0
10
92.725
20
-74.4625
11
92.725
21
-87.4625
0
ARC
8
0
10
79.225
20
-74.4625
40
0.5
50
90
51
180
0
ARC
8
0
10
92.225
20
-74.4625
40
0.5
50
0
51
90
0
ARC
8
0
10
79.225
20
-87.4625
40
0.5
50
180
51
270
0
ARC
8
0
10
92.225
20
-87.4625
40
0.5
50
270
51
0
0
LINE
8
0
10
98.275
20
-73.9625
11
111.275
21
-73.9625
0
LINE
8
0
10
98.275
20
-87.9625
11
111.275
21
-87.9625
0
LINE
8
0
10
97.775
20
-74.4625
11
97.775
21
-87.4625
0
LINE
8
0
10
111.775
20
-74.4625
11
111.775
21
-87.4625
0
ARC
8
0
10
98.275
20
-74.4625
40
0.5
50
90
51
180
0
ARC
8
0
10
111.275
20
-74.4625
40
0.5
50
0
51
90
0
ARC
8
0
10
98.275
20
-87.4625
40
0.5
50
180
51
270
0
ARC
8
0
10
111.275
20
-87.4625
40
0.5
50
270
51
0
0
LINE
8
0
10
117.325
20
-73.9625
11
130.325
21
-73.9625
0
LINE
8
0
10
117.325
20
-87.9625
11
130.325
21
-87.9625
0
LINE
8
0
10
116.825
20
-74.4625
11
116.825
21
-87.4625
0
LINE
8
0
10
130.825
20
-74.4625
11
130.825
21
-87.4625
0
ARC
8
0
10
117.325
20
-74.4625
40
0.5
50
90
51
180
0
ARC
8
0
10
130.325
20
-74.4625
40
0.5
50
0
51
90
0
ARC
8
0
10
117.325
20
-87.4625
40
0.5
50
180
51
270
0
ARC
8
0
10
130.325
20
-87.4625
40
0.5
50
270
51
0
0
LINE
8
0
10
136.375
20
-73.9625
11
149.375
21
-73.9625
0
LINE
8
0
10
136.375
20
-87.9625
11
149.375
21
-87.9625
0
LINE
8
0
10
135.875
20
-74.4625
11
135.875
21
-87.4625
0
LINE
8
0
10
149.875
20
-74.4625
11
149.875
21
-87.4625
0
ARC
8
0
10
136.375
20
-74.4625
40
0.5
50
90
51
180
0
ARC
8
0
10
149.375
20
-74.4625
40
0.5
50
0
51
90
0
ARC
8
0
10
136.375
20
-87.4625
40
0.5
50
180
51
270
0
ARC
8
0
10
149.375
20
-87.4625
40
0.5
50
270
51
0
0
LINE
8
0
10
155.425
20
-73.9625
11
168.425
21
-73.9625
0
LINE
8
0
10
155.425
20
-87.9625
11
168.425
21
-87.9625
0
LINE
8
0
10
154.925
20
-74.4625
11
154.925
21
-87.4625
0
LINE
8
0
10
168.925
20
-74.4625
11
168.925
21
-87.4625
0
ARC
8
0
10
155.425
20
-74.4625
40
0.5
50
90
51
180
0
ARC
8
0
10
168.425
20
-74.4625
40
0.5
50
0
51
90
0
ARC
8
0
10
155.425
20
-87.4625
40
0.5
50
180
51
270
0
ARC
8
0
10
168.425
20
-87.4625
40
0.5
50
270
51
0
0
LINE
8
0
10
174.475
20
-73.9625
11
187.475
21
-73.9625
0
LINE
8
0
10
174.475
20
-87.9625
11
187.475
21
-87.9625
0
LINE
8
0
10
173.975
20
-74.4625
11
173.975
21
-87.4625
0
LINE
8
0
10
187.975
20
-74.4625
11
187.975
21
-87.4625
0
ARC
8
0
10
174.475
20
-74.4625
40
0.5
50
90
51
180
0
ARC
8
0
10
187.475
20
-74.4625
40
0.5
50
0
51
90
0
ARC
8
0
10
174.475
20
-87.4625
40
0.5
50
180
51
270
0
ARC
8
0
10
187.475
20
-87.4625
40
0.5
50
270
51
0
0
LINE
8
0
10
3.025
20
-93.0125
11
16.025
21
-93.0125
0
LINE
8
0
10
3.025
20
-107.0125
11
16.025
21
-107.0125
0
LINE
8
0
10
2.525
20
-93.5125
11
2.525
21
-106.5125
0
LINE
8
0
10
16.525
20
-93.5125
11
16.525
21
-106.5125
0
ARC
8
0
10
3.025
20
-93.5125
40
0.5
50
90
51
180
0
ARC
8
0
10
16.025
20
-93.5125
40
0.5
50
0
51
90
0
ARC
8
0
10
3.025
20
-106.5125
40
0.5
50
180
51
270
0
ARC
8
0
10
16.025
20
-106.5125
40
0.5
50
270
51
0
0
LINE
8
0
10
22.075
20
-93.0125
11
35.075
21
-93.0125
0
LINE
8
0
10
22.075
20
-107.0125
11
35.075
21
-107.0125
0
LINE
8
0
10
21.575
20
-93.5125
11
21.575
21
-106.5125
0
LINE
8
0
10
35.575
20
-93.5125
11
35.575
21
-106.5125
0
ARC
8
0
10
22.075
20
-93.5125
40
0.5
50
90
51
180
0
ARC
8
0
10
35.075
20
-93.5125
40
0.5
50
0
51
90
0
ARC
8
0
10
22.075
20
-106.5125
40
0.5
50
180
51
270
0
ARC
8
0
10
35.075
20
-106.5125
40
0.5
50
270
51
0
0
LINE
8
0
10
41.125
20
-93.0125
11
54.125
21
-93.0125
0
LINE
8
0
10
41.125
20
-107.0125
11
54.125
21
-107.0125
0
LINE
8
0
10
40.625
20
-93.5125
11
40.625
21
-106.5125
0
LINE
8
0
10
54.625
20
-93.5125
11
54.625
21
-106.5125
0
ARC
8
0
10
41.125
20
-93.5125
40
0.5
50
90
51
180
0
ARC
8
0
10
54.125
20
-93.5125
40
0.5
50
0
51
90
0
ARC
8
0
10
41.125
20
-106.5125
40
0.5
50
180
51
270
0
ARC
8
0
10
54.125
20
-106.5125
40
0.5
50
270
51
0
0
LINE
8
0
10
60.175
20
-93.0125
11
73.175
21
-93.0125
0
LINE
8
0
10
60.175
20
-107.0125
11
73.175
21
-107.0125
0
LINE
8
0
10
59.675
20
-93.5125
11
59.675
21
-106.5125
0
LINE
8
0
10
73.675
20
-93.5125
11
73.675
21
-106.5125
0
ARC
8
0
10
60.175
20
-93.5125
40
0.5
50
90
51
180
0
ARC
8
0
10
73.175
20
-93.5125
40
0.5
50
0
51
90
0
ARC
8
0
10
60.175
20
-106.5125
40
0.5
50
180
51
270
0
ARC
8
0
10
73.175
20
-106.5125
40
0.5
50
270
51
0
0
LINE
8
0
10
79.225
20
-93.0125
11
92.225
21
-93.0125
0
LINE
8
0
10
79.225
20
-107.0125
11
92.225
21
-107.0125
0
LINE
8
0
10
78.725
20
-93.5125
11
78.725
21
-106.5125
0
LINE
8
0
10
92.725
20
-93.5125
11
92.725
21
-106.5125
0
ARC
8
0
10
79.225
20
-93.5125
40
0.5
50
90
51
180
0
ARC
8
0
10
92.225
20
-93.5125
40
0.5
50
0
51
90
0
ARC
8
0
10
79.225
20
-106.5125
40
0.5
50
180
51
270
0
ARC
8
0
10
92.225
20
-106.5125
40
0.5
50
270
51
0
0
LINE
8
0
10
98.275
20
-93.0125
11
111.275
21
-93.0125
0
LINE
8
0
10
98.275
20
-107.0125
11
111.275
21
-107.0125
0
LINE
8
0
10
97.775
20
-93.5125
11
97.775
21
-106.5125
0
LINE
8
0
10
111.775
20
-93.5125
11
111.775
21
-106.5125
0
ARC
8
0
10
98.275
20
-93.5125
40
0.5
50
90
51
180
0
ARC
8
0
10
111.275
20
-93.5125
40
0.5
50
0
51
90
0
ARC
8
0
10
98.275
20
-106.5125
40
0.5
50
180
51
270
0
ARC
8
0
10
111.275
20
-106.5125
40
0.5
50
270
51
0
0
LINE
8
0
10
117.325
20
-93.0125
11
130.325
21
-93.0125
0
LINE
8
0
10
117.325
20
-107.0125
11
130.325
21
-107.0125
0
LINE
8
0
10
116.825
20
-93.5125
11
116.825
21
-106.5125
0
LINE
8
0
10
130.825
20
-93.5125
11
130.825
21
-106.5125
0
ARC
8
0
10
117.325
20
-93.5125
40
0.5
50
90
51
180
0
ARC
8
0
10
130.325
20
-93.5125
40
0.5
50
0
51
90
0
ARC
8
0
10
117.325
20
-106.5125
40
0.5
50
180
51
270
0
ARC
8
0
10
130.325
20
-106.5125
40
0.5
50
270
51
0
0
LINE
8
0
10
136.375
20
-93.0125
11
149.375
21
-93.0125
0
LINE
8
0
10
136.375
20
-107.0125
11
149.375
21
-107.0125
0
LINE
8
0
10
135.875
20
-93.5125
11
135.875
21
-106.5125
0
LINE
8
0
10
149.875
20
-93.5125
11
149.875
21
-106.5125
0
ARC
8
0
10
136.375
20
-93.5125
40
0.5
50
90
51
180
0
ARC
8
0
10
149.375
20
-93.5125
40
0.5
50
0
51
90
0
ARC
8
0
10
136.375
20
-106.5125
40
0.5
50
180
51
270
0
ARC
8
0
10
149.375
20
-106.5125
40
0.5
50
270
51
0
0
LINE
8
0
10
155.425
20
-93.0125
11
168.425
21
-93.0125
0
LINE
8
0
10
155.425
20
-107.0125
11
168.425
21
-107.0125
0
LINE
8
0
10
154.925
20
-93.5125
11
154.925
21
-106.5125
0
LINE
8
0
10
168.925
20
-93.5125
11
168.925
21
-106.5125
0
ARC
8
0
10
155.425
20
-93.5125
40
0.5
50
90
51
180
0
ARC
8
0
10
168.425
20
-93.5125
40
0.5
50
0
51
90
0
ARC
8
0
10
155.425
20
-106.5125
40
0.5
50
180
51
270
0
ARC
8
0
10
168.425
20
-106.5125
40
0.5
50
270
51
0
0
LINE
8
0
10
174.475
20
-93.0125
11
187.475
21
-93.0125
0
LINE
8
0
10
174.475
20
-107.0125
11
187.475
21
-107.0125
0
LINE
8
0
10
173.975
20
-93.5125
11
173.975
21
-106.5125
0
LINE
8
0
10
187.975
20
-93.5125
11
187.975
21
-106.5125
0
ARC
8
0
10
174.475
20
-93.5125
40
0.5
50
90
51
180
0
ARC
8
0
10
187.475
20
-93.5125
40
0.5
50
0
51
90
0
ARC
8
0
10
174.475
20
-106.5125
40
0.5
50
180
51
270
0
ARC
8
0
10
187.475
20
-106.5125
40
0.5
50
270
51
0
0
LINE
8
0
10
3.025
20
-112.0625
11
16.025
21
-112.0625
0
LINE
8
0
10
3.025
20
-126.0625
11
16.025
21
-126.0625
0
LINE
8
0
10
2.525
20
-112.5625
11
2.525
21
-125.5625
0
LINE
8
0
10
16.525
20
-112.5625
11
16.525
21
-125.5625
0
ARC
8
0
10
3.025
20
-112.5625
40
0.5
50
90
51
180
0
ARC
8
0
10
16.025
20
-112.5625
40
0.5
50
0
51
90
0
ARC
8
0
10
3.025
20
-125.5625
40
0.5
50
180
51
270
0
ARC
8
0
10
16.025
20
-125.5625
40
0.5
50
270
51
0
0
LINE
8
0
10
22.075
20
-112.0625
11
35.075
21
-112.0625
0
LINE
8
0
10
22.075
20
-126.0625
11
35.075
21
-126.0625
0
LINE
8
0
10
21.575
20
-112.5625
11
21.575
21
-125.5625
0
LINE
8
0
10
35.575
20
-112.5625
11
35.575
21
-125.5625
0
ARC
8
0
10
22.075
20
-112.5625
40
0.5
50
90
51
180
0
ARC
8
0
10
35.075
20
-112.5625
40
0.5
50
0
51
90
0
ARC
8
0
10
22.075
20
-125.5625
40
0.5
50
180
51
270
0
ARC
8
0
10
35.075
20
-125.5625
40
0.5
50
270
51
0
0
LINE
8
0
10
41.125
20
-112.0625
11
54.125
21
-112.0625
0
LINE
8
0
10
41.125
20
-126.0625
11
54.125
21
-126.0625
0
LINE
8
0
10
40.625
20
-112.5625
11
40.625
21
-125.5625
0
LINE
8
0
10
54.625
20
-112.5625
11
54.625
21
-125.5625
0
ARC
8
0
10
41.125
20
-112.5625
40
0.5
50
90
51
180
0
ARC
8
0
10
54.125
20
-112.5625
40
0.5
50
0
51
90
0
ARC
8
0
10
41.125
20
-125.5625
40
0.5
50
180
51
270
0
ARC
8
0
10
54.125
20
-125.5625
40
0.5
50
270
51
0
0
LINE
8
0
10
60.175
20
-112.0625
11
73.175
21
-112.0625
0
LINE
8
0
10
60.175
20
-126.0625
11
73.175
21
-126.0625
0
LINE
8
0
10
59.675
20
-112.5625
11
59.675
21
-125.5625
0
LINE
8
0
10
73.675
20
-112.5625
11
73.675
21
-125.5625
0
ARC
8
0
10
60.175
20
-112.5625
40
0.5
50
90
51
180
0
ARC
8
0
10
73.175
20
-112.5625
40
0.5
50
0
51
90
0
ARC
8
0
10
60.175
20
-125.5625
40
0.5
50
180
51
270
0
ARC
8
0
10
73.175
20
-125.5625
40
0.5
50
270
51
0
0
LINE
8
0
10
79.225
20
-112.0625
11
92.225
21
-112.0625
0
LINE
8
0
10
79.225
20
-126.0625
11
92.225
21
-126.0625
0
LINE
8
0
10
78.725
20
-112.5625
11
78.725
21
-125.5625
0
LINE
8
0
10
92.725
20
-112.5625
11
92.725
21
-125.5625
0
ARC
8
0
10
79.225
20
-112.5625
40
0.5
50
90
51
180
0
ARC
8
0
10
92.225
20
-112.5625
40
0.5
50
0
51
90
0
ARC
8
0
10
79.225
20
-125.5625
40
0.5
50
180
51
270
0
ARC
8
0
10
92.225
20
-125.5625
40
0.5
50
270
51
0
0
LINE
8
0
10
98.275
20
-112.0625
11
111.275
21
-112.0625
0
LINE
8
0
10
98.275
20
-126.0625
11
111.275
21
-126.0625
0
LINE
8
0
10
97.775
20
-112.5625
11
97.775
21
-125.5625
0
LINE
8
0
10
111.775
20
-112.5625
11
111.775
21
-125.5625
0
ARC
8
0
10
98.275
20
-112.5625
40
0.5
50
90
51
180
0
ARC
8
0
10
111.275
20
-112.5625
40
0.5
50
0
51
90
0
ARC
8
0
10
98.275
20
-125.5625
40
0.5
50
180
51
270
0
ARC
8
0
10
111.275
20
-125.5625
40
0.5
50
270
51
0
0
LINE
8
0
10
117.325
20
-112.0625
11
130.325
21
-112.0625
0
LINE
8
0
10
117.325
20
-126.0625
11
130.325
21
-126.0625
0
LINE
8
0
10
116.825
20
-112.5625
11
116.825
21
-125.5625
0
LINE
8
0
10
130.825
20
-112.5625
11
130.825
21
-125.5625
0
ARC
8
0
10
117.325
20
-112.5625
40
0.5
50
90
51
180
0
ARC
8
0
10
130.325
20
-112.5625
40
0.5
50
0
51
90
0
ARC
8
0
10
117.325
20
-125.5625
40
0.5
50
180
51
270
0
ARC
8
0
10
130.325
20
-125.5625
40
0.5
50
270
51
0
0
LINE
8
0
10
136.375
20
-112.0625
11
149.375
21
-112.0625
0
LINE
8
0
10
136.375
20
-126.0625
11
149.375
21
-126.0625
0
LINE
8
0
10
135.875
20
-112.5625
11
135.875
21
-125.5625
0
LINE
8
0
10
149.875
20
-112.5625
11
149.875
21
-125.5625
0
ARC
8
0
10
136.375
20
-112.5625
40
0.5
50
90
51
180
0
ARC
8
0
10
149.375
20
-112.5625
40
0.5
50
0
51
90
0
ARC
8
0
10
136.375
20
-125.5625
40
0.5
50
180
51
270
0
ARC
8
0
10
149.375
20
-125.5625
40
0.5
50
270
51
0
0
LINE
8
0
10
155.425
20
-112.0625
11
168.425
21
-112.0625
0
LINE
8
0
10
155.425
20
-126.0625
11
168.425
21
-126.0625
0
LINE
8
0
10
154.925
20
-112.5625
11
154.925
21
-125.5625
0
LINE
8
0
10
168.925
20
-112.5625
11
168.925
21
-125.5625
0
ARC
8
0
10
155.425
20
-112.5625
40
0.5
50
90
51
180
0
ARC
8
0
10
168.425
20
-112.5625
40
0.5
50
0
51
90
0
ARC
8
0
10
155.425
20
-125.5625
40
0.5
50
180
51
270
0
ARC
8
0
10
168.425
20
-125.5625
40
0.5
50
270
51
0
0
LINE
8
0
10
174.475
20
-112.0625
11
187.475
21
-112.0625
0
LINE
8
0
10
174.475
20
-126.0625
11
187.475
21
-126.0625
0
LINE
8
0
10
173.975
20
-112.5625
11
173.975
21
-125.5625
0
LINE
8
0
10
187.975
20
-112.5625
11
187.975
21
-125.5625
0
ARC
8
0
10
174.475
20
-112.5625
40
0.5
50
90
51
180
0
ARC
8
0
10
187.475
20
-112.5625
40
0.5
50
0
51
90
0
ARC
8
0
10
174.475
20
-125.5625
40
0.5
50
180
51
270
0
ARC
8
0
10
187.475
20
-125.5625
40
0.5
50
270
51
0
0
LINE
8
0
10
0
20
-128.5875
11
190.5
21
-128.5875
0
LINE
8
0
10
0
20
0
11
190.5
21
0
0
LINE
8
0
10
0
20
-128.5875
11
0
21
0
0
LINE
8
0
10
190.5
20
-128.5875
11
190.5
21
0
0
ENDSEC
0
EOF