<svg width="190.5mm" height="128.588mm" viewBox="0 0 190.5 128.588" xmlns="http://www.w3.org/2000/svg"><g id="svgGroup" stroke-linecap="round" fill-rule="evenodd" font-size="9pt" stroke="#000" stroke-width="0.25mm" fill="none" style="stroke:#000;stroke-width:0.25mm;fill:none"><path d="M 0 128.588 L 190.5 128.588 L 190.5 0 L 0 0 L 0 128.588 Z M 164.95 7.288 L 177.95 7.288 A 0.5 0.5 0 0 1 178.45 7.788 L 178.45 20.788 A 0.5 0.5 0 0 1 177.95 21.288 L 164.95 21.288 A 0.5 0.5 0 0 1 164.45 20.788 L 164.45 7.788 A 0.5 0.5 0 0 1 164.95 7.288 Z M 22.075 73.963 L 35.075 73.963 A 0.5 0.5 0 0 1 35.575 74.463 L 35.575 87.463 A 0.5 0.5 0 0 1 35.075 87.963 L 22.075 87.963 A 0.5 0.5 0 0 1 21.575 87.463 L 21.575 74.463 A 0.5 0.5 0 0 1 22.075 73.963 Z M 22.075 93.013 L 35.075 93.013 A 0.5 0.5 0 0 1 35.575 93.513 L 35.575 106.513 A 0.5 0.5 0 0 1 35.075 107.013 L 22.075 107.013 A 0.5 0.5 0 0 1 21.575 106.513 L 21.575 93.513 A 0.5 0.5 0 0 1 22.075 93.013 Z M 22.075 112.063 L 35.075 112.063 A 0.5 0.5 0 0 1 35.575 112.563 L 35.575 125.563 A 0.5 0.5 0 0 1 35.075 126.063 L 22.075 126.063 A 0.5 0.5 0 0 1 21.575 125.563 L 21.575 112.563 A 0.5 0.5 0 0 1 22.075 112.063 Z M 102.25 19.694 L 102.25 32.694 A 0.5 0.5 0 0 1 101.75 33.194 L 88.75 33.194 A 0.5 0.5 0 0 1 88.25 32.694 L 88.25 19.694 A 0.5 0.5 0 0 1 88.75 19.194 L 101.75 19.194 A 0.5 0.5 0 0 1 102.25 19.694 Z M 33.981 19.194 L 46.981 19.194 A 0.5 0.5 0 0 1 47.481 19.694 L 47.481 32.694 A 0.5 0.5 0 0 1 46.981 33.194 L 33.981 33.194 A 0.5 0.5 0 0 1 33.481 32.694 L 33.481 19.694 A 0.5 0.5 0 0 1 33.981 19.194 Z M 110.181 19.194 L 123.181 19.194 A 0.5 0.5 0 0 1 123.681 19.694 L 123.681 32.694 A 0.5 0.5 0 0 1 123.181 33.194 L 110.181 33.194 A 0.5 0.5 0 0 1 109.681 32.694 L 109.681 19.694 A 0.5 0.5 0 0 1 110.181 19.194 Z M 164.95 31.1 L 177.95 31.1 A 0.5 0.5 0 0 1 178.45 31.6 L 178.45 44.6 A 0.5 0.5 0 0 1 177.95 45.1 L 164.95 45.1 A 0.5 0.5 0 0 1 164.45 44.6 L 164.45 31.6 A 0.5 0.5 0 0 1 164.95 31.1 Z M 41.125 73.963 L 54.125 73.963 A 0.5 0.5 0 0 1 54.625 74.463 L 54.625 87.463 A 0.5 0.5 0 0 1 54.125 87.963 L 41.125 87.963 A 0.5 0.5 0 0 1 40.625 87.463 L 40.625 74.463 A 0.5 0.5 0 0 1 41.125 73.963 Z M 60.175 73.963 L 73.175 73.963 A 0.5 0.5 0 0 1 73.675 74.463 L 73.675 87.463 A 0.5 0.5 0 0 1 73.175 87.963 L 60.175 87.963 A 0.5 0.5 0 0 1 59.675 87.463 L 59.675 74.463 A 0.5 0.5 0 0 1 60.175 73.963 Z M 79.225 73.963 L 92.225 73.963 A 0.5 0.5 0 0 1 92.725 74.463 L 92.725 87.463 A 0.5 0.5 0 0 1 92.225 87.963 L 79.225 87.963 A 0.5 0.5 0 0 1 78.725 87.463 L 78.725 74.463 A 0.5 0.5 0 0 1 79.225 73.963 Z M 98.275 73.963 L 111.275 73.963 A 0.5 0.5 0 0 1 111.775 74.463 L 111.775 87.463 A 0.5 0.5 0 0 1 111.275 87.963 L 98.275 87.963 A 0.5 0.5 0 0 1 97.775 87.463 L 97.775 74.463 A 0.5 0.5 0 0 1 98.275 73.963 Z M 136.375 73.963 L 149.375 73.963 A 0.5 0.5 0 0 1 149.875 74.463 L 149.875 87.463 A 0.5 0.5 0 0 1 149.375 87.963 L 136.375 87.963 A 0.5 0.5 0 0 1 135.875 87.463 L 135.875 74.463 A 0.5 0.5 0 0 1 136.375 73.963 Z M 155.425 73.963 L 168.425 73.963 A 0.5 0.5 0 0 1 168.925 74.463 L 168.925 87.463 A 0.5 0.5 0 0 1 168.425 87.963 L 155.425 87.963 A 0.5 0.5 0 0 1 154.925 87.463 L 154.925 74.463 A 0.5 0.5 0 0 1 155.425 73.963 Z M 174.475 73.963 L 187.475 73.963 A 0.5 0.5 0 0 1 187.975 74.463 L 187.975 87.463 A 0.5 0.5 0 0 1 187.475 87.963 L 174.475 87.963 A 0.5 0.5 0 0 1 173.975 87.463 L 173.975 74.463 A 0.5 0.5 0 0 1 174.475 73.963 Z M 41.125 93.013 L 54.125 93.013 A 0.5 0.5 0 0 1 54.625 93.513 L 54.625 106.513 A 0.5 0.5 0 0 1 54.125 107.013 L 41.125 107.013 A 0.5 0.5 0 0 1 40.625 106.513 L 40.625 93.513 A 0.5 0.5 0 0 1 41.125 93.013 Z M 60.175 93.013 L 73.175 93.013 A 0.5 0.5 0 0 1 73.675 93.513 L 73.675 106.513 A 0.5 0.5 0 0 1 73.175 107.013 L 60.175 107.013 A 0.5 0.5 0 0 1 59.675 106.513 L 59.675 93.513 A 0.5 0.5 0 0 1 60.175 93.013 Z M 79.225 93.013 L 92.225 93.013 A 0.5 0.5 0 0 1 92.725 93.513 L 92.725 106.513 A 0.5 0.5 0 0 1 92.225 107.013 L 79.225 107.013 A 0.5 0.5 0 0 1 78.725 106.513 L 78.725 93.513 A 0.5 0.5 0 0 1 79.225 93.013 Z M 98.275 93.013 L 111.275 93.013 A 0.5 0.5 0 0 1 111.775 93.513 L 111.775 106.513 A 0.5 0.5 0 0 1 111.275 107.013 L 98.275 107.013 A 0.5 0.5 0 0 1 97.775 106.513 L 97.775 93.513 A 0.5 0.5 0 0 1 98.275 93.013 Z M 136.375 93.013 L 149.375 93.013 A 0.5 0.5 0 0 1 149.875 93.513 L 149.875 106.513 A 0.5 0.5 0 0 1 149.375 107.013 L 136.375 107.013 A 0.5 0.5 0 0 1 135.875 106.513 L 135.875 93.513 A 0.5 0.5 0 0 1 136.375 93.013 Z M 155.425 93.013 L 168.425 93.013 A 0.5 0.5 0 0 1 168.925 93.513 L 168.925 106.513 A 0.5 0.5 0 0 1 168.425 107.013 L 155.425 107.013 A 0.5 0.5 0 0 1 154.925 106.513 L 154.925 93.513 A 0.5 0.5 0 0 1 155.425 93.013 Z M 174.475 93.013 L 187.475 93.013 A 0.5 0.5 0 0 1 187.975 93.513 L 187.975 106.513 A 0.5 0.5 0 0 1 187.475 107.013 L 174.475 107.013 A 0.5 0.5 0 0 1 173.975 106.513 L 173.975 93.513 A 0.5 0.5 0 0 1 174.475 93.013 Z M 41.125 112.063 L 54.125 112.063 A 0.5 0.5 0 0 1 54.625 112.563 L 54.625 125.563 A 0.5 0.5 0 0 1 54.125 126.063 L 41.125 126.063 A 0.5 0.5 0 0 1 40.625 125.563 L 40.625 112.563 A 0.5 0.5 0 0 1 41.125 112.063 Z M 60.175 112.063 L 73.175 112.063 A 0.5 0.5 0 0 1 73.675 112.563 L 73.675 125.563 A 0.5 0.5 0 0 1 73.175 126.063 L 60.175 126.063 A 0.5 0.5 0 0 1 59.675 125.563 L 59.675 112.563 A 0.5 0.5 0 0 1 60.175 112.063 Z M 79.225 112.063 L 92.225 112.063 A 0.5 0.5 0 0 1 92.725 112.563 L 92.725 125.563 A 0.5 0.5 0 0 1 92.225 126.063 L 79.225 126.063 A 0.5 0.5 0 0 1 78.725 125.563 L 78.725 112.563 A 0.5 0.5 0 0 1 79.225 112.063 Z M 98.275 112.063 L 111.275 112.063 A 0.5 0.5 0 0 1 111.775 112.563 L 111.775 125.563 A 0.5 0.5 0 0 1 111.275 126.063 L 98.275 126.063 A 0.5 0.5 0 0 1 97.775 125.563 L 97.775 112.563 A 0.5 0.5 0 0 1 98.275 112.063 Z M 136.375 112.063 L 149.375 112.063 A 0.5 0.5 0 0 1 149.875 112.563 L 149.875 125.563 A 0.5 0.5 0 0 1 149.375 126.063 L 136.375 126.063 A 0.5 0.5 0 0 1 135.875 125.563 L 135.875 112.563 A 0.5 0.5 0 0 1 136.375 112.063 Z M 155.425 112.063 L 168.425 112.063 A 0.5 0.5 0 0 1 168.925 112.563 L 168.925 125.563 A 0.5 0.5 0 0 1 168.425 126.063 L 155.425 126.063 A 0.5 0.5 0 0 1 154.925 125.563 L 154.925 112.563 A 0.5 0.5 0 0 1 155.425 112.063 Z M 174.475 112.063 L 187.475 112.063 A 0.5 0.5 0 0 1 187.975 112.563 L 187.975 125.563 A 0.5 0.5 0 0 1 187.475 126.063 L 174.475 126.063 A 0.5 0.5 0 0 1 173.975 125.563 L 173.975 112.563 A 0.5 0.5 0 0 1 174.475 112.063 Z M 22.075 54.913 L 35.075 54.913 A 0.5 0.5 0 0 1 35.575 55.413 L 35.575 68.413 A 0.5 0.5 0 0 1 35.075 68.913 L 22.075 68.913 A 0.5 0.5 0 0 1 21.575 68.413 L 21.575 55.413 A 0.5 0.5 0 0 1 22.075 54.913 Z M 3.025 73.963 L 16.025 73.963 A 0.5 0.5 0 0 1 16.525 74.463 L 16.525 87.463 A 0.5 0.5 0 0 1 16.025 87.963 L 3.025 87.963 A 0.5 0.5 0 0 1 2.525 87.463 L 2.525 74.463 A 0.5 0.5 0 0 1 3.025 73.963 Z M 3.025 93.013 L 16.025 93.013 A 0.5 0.5 0 0 1 16.525 93.513 L 16.525 106.513 A 0.5 0.5 0 0 1 16.025 107.013 L 3.025 107.013 A 0.5 0.5 0 0 1 2.525 106.513 L 2.525 93.513 A 0.5 0.5 0 0 1 3.025 93.013 Z M 3.025 112.063 L 16.025 112.063 A 0.5 0.5 0 0 1 16.525 112.563 L 16.525 125.563 A 0.5 0.5 0 0 1 16.025 126.063 L 3.025 126.063 A 0.5 0.5 0 0 1 2.525 125.563 L 2.525 112.563 A 0.5 0.5 0 0 1 3.025 112.063 Z M 41.125 54.913 L 54.125 54.913 A 0.5 0.5 0 0 1 54.625 55.413 L 54.625 68.413 A 0.5 0.5 0 0 1 54.125 68.913 L 41.125 68.913 A 0.5 0.5 0 0 1 40.625 68.413 L 40.625 55.413 A 0.5 0.5 0 0 1 41.125 54.913 Z M 60.175 54.913 L 73.175 54.913 A 0.5 0.5 0 0 1 73.675 55.413 L 73.675 68.413 A 0.5 0.5 0 0 1 73.175 68.913 L 60.175 68.913 A 0.5 0.5 0 0 1 59.675 68.413 L 59.675 55.413 A 0.5 0.5 0 0 1 60.175 54.913 Z M 79.225 54.913 L 92.225 54.913 A 0.5 0.5 0 0 1 92.725 55.413 L 92.725 68.413 A 0.5 0.5 0 0 1 92.225 68.913 L 79.225 68.913 A 0.5 0.5 0 0 1 78.725 68.413 L 78.725 55.413 A 0.5 0.5 0 0 1 79.225 54.913 Z M 98.275 54.913 L 111.275 54.913 A 0.5 0.5 0 0 1 111.775 55.413 L 111.775 68.413 A 0.5 0.5 0 0 1 111.275 68.913 L 98.275 68.913 A 0.5 0.5 0 0 1 97.775 68.413 L 97.775 55.413 A 0.5 0.5 0 0 1 98.275 54.913 Z M 136.375 54.913 L 149.375 54.913 A 0.5 0.5 0 0 1 149.875 55.413 L 149.875 68.413 A 0.5 0.5 0 0 1 149.375 68.913 L 136.375 68.913 A 0.5 0.5 0 0 1 135.875 68.413 L 135.875 55.413 A 0.5 0.5 0 0 1 136.375 54.913 Z M 155.425 54.913 L 168.425 54.913 A 0.5 0.5 0 0 1 168.925 55.413 L 168.925 68.413 A 0.5 0.5 0 0 1 168.425 68.913 L 155.425 68.913 A 0.5 0.5 0 0 1 154.925 68.413 L 154.925 55.413 A 0.5 0.5 0 0 1 155.425 54.913 Z M 174.475 54.913 L 187.475 54.913 A 0.5 0.5 0 0 1 187.975 55.413 L 187.975 68.413 A 0.5 0.5 0 0 1 187.475 68.913 L 174.475 68.913 A 0.5 0.5 0 0 1 173.975 68.413 L 173.975 55.413 A 0.5 0.5 0 0 1 174.475 54.913 Z M 3.025 54.913 L 16.025 54.913 A 0.5 0.5 0 0 1 16.525 55.413 L 16.525 68.413 A 0.5 0.5 0 0 1 16.025 68.913 L 3.025 68.913 A 0.5 0.5 0 0 1 2.525 68.413 L 2.525 55.413 A 0.5 0.5 0 0 1 3.025 54.913 Z M 117.325 73.963 L 130.325 73.963 A 0.5 0.5 0 0 1 130.825 74.463 L 130.825 87.463 A 0.5 0.5 0 0 1 130.325 87.963 L 117.325 87.963 A 0.5 0.5 0 0 1 116.825 87.463 L 116.825 74.463 A 0.5 0.5 0 0 1 117.325 73.963 Z M 117.325 93.013 L 130.325 93.013 A 0.5 0.5 0 0 1 130.825 93.513 L 130.825 106.513 A 0.5 0.5 0 0 1 130.325 107.013 L 117.325 107.013 A 0.5 0.5 0 0 1 116.825 106.513 L 116.825 93.513 A 0.5 0.5 0 0 1 117.325 93.013 Z M 117.325 112.063 L 130.325 112.063 A 0.5 0.5 0 0 1 130.825 112.563 L 130.825 125.563 A 0.5 0.5 0 0 1 130.325 126.063 L 117.325 126.063 A 0.5 0.5 0 0 1 116.825 125.563 L 116.825 112.563 A 0.5 0.5 0 0 1 117.325 112.063 Z M 117.325 54.913 L 130.325 54.913 A 0.5 0.5 0 0 1 130.825 55.413 L 130.825 68.413 A 0.5 0.5 0 0 1 130.325 68.913 L 117.325 68.913 A 0.5 0.5 0 0 1 116.825 68.413 L 116.825 55.413 A 0.5 0.5 0 0 1 117.325 54.913 Z M 101.25 35.132 L 101.25 41.132 A 0.5 0.5 0 0 1 100.75 41.632 L 86.75 41.632 A 0.5 0.5 0 0 1 86.25 41.132 L 86.25 35.132 A 0.5 0.5 0 0 1 86.75 34.632 L 100.75 34.632 A 0.5 0.5 0 0 1 101.25 35.132 Z M 18.431 20.194 L 24.431 20.194 A 0.5 0.5 0 0 1 24.931 20.694 L 24.931 34.694 A 0.5 0.5 0 0 1 24.431 35.194 L 18.431 35.194 A 0.5 0.5 0 0 1 17.931 34.694 L 17.931 20.694 A 0.5 0.5 0 0 1 18.431 20.194 Z M 56.531 20.194 L 62.531 20.194 A 0.5 0.5 0 0 1 63.031 20.694 L 63.031 34.694 A 0.5 0.5 0 0 1 62.531 35.194 L 56.531 35.194 A 0.5 0.5 0 0 1 56.031 34.694 L 56.031 20.694 A 0.5 0.5 0 0 1 56.531 20.194 Z M 94.631 20.194 L 100.631 20.194 A 0.5 0.5 0 0 1 101.131 20.694 L 101.131 34.694 A 0.5 0.5 0 0 1 100.631 35.194 L 94.631 35.194 A 0.5 0.5 0 0 1 94.131 34.694 L 94.131 20.694 A 0.5 0.5 0 0 1 94.631 20.194 Z M 132.731 20.194 L 138.731 20.194 A 0.5 0.5 0 0 1 139.231 20.694 L 139.231 34.694 A 0.5 0.5 0 0 1 138.731 35.194 L 132.731 35.194 A 0.5 0.5 0 0 1 132.231 34.694 L 132.231 20.694 A 0.5 0.5 0 0 1 132.731 20.194 Z M 101.25 11.256 L 101.25 17.256 A 0.5 0.5 0 0 1 100.75 17.756 L 86.75 17.756 A 0.5 0.5 0 0 1 86.25 17.256 L 86.25 11.256 A 0.5 0.5 0 0 1 86.75 10.756 L 100.75 10.756 A 0.5 0.5 0 0 1 101.25 11.256 Z" vector-effect="non-scaling-stroke"/></g></svg>