%TF.GenerationSoftware,KiCad,Pcbnew,(6.0.4-0)*%
%TF.CreationDate,2022-09-25T09:44:29-05:00*%
%TF.ProjectId,mekko5X,6d656b6b-6f35-4582-9e6b-696361645f70,rev?*%
%TF.SameCoordinates,Original*%
%TF.FileFunction,Copper,L1,Top*%
%TF.FilePolarity,Positive*%
%FSLAX46Y46*%
G04 Gerber Fmt 4.6, Leading zero omitted, Abs format (unit mm)*
G04 Created by KiCad (PCBNEW (6.0.4-0)) date 2022-09-25 09:44:29*
%MOMM*%
%LPD*%
G01*
G04 APERTURE LIST*
%TA.AperFunction,ComponentPad*%
%ADD10C,3.100000*%
%TD*%
%TA.AperFunction,ComponentPad*%
%ADD11C,1.700000*%
%TD*%
%TA.AperFunction,ComponentPad*%
%ADD12R,2.000000X2.000000*%
%TD*%
%TA.AperFunction,ComponentPad*%
%ADD13C,2.000000*%
%TD*%
%TA.AperFunction,ComponentPad*%
%ADD14R,3.200000X2.000000*%
%TD*%
%TA.AperFunction,ComponentPad*%
%ADD15O,1.700000X1.700000*%
%TD*%
%TA.AperFunction,ComponentPad*%
%ADD16R,1.700000X1.700000*%
%TD*%
%TA.AperFunction,ViaPad*%
%ADD17C,0.800000*%
%TD*%
%TA.AperFunction,Conductor*%
%ADD18C,0.250000*%
%TD*%
G04 APERTURE END LIST*
D10*
%TO.P,U2,*%
%TO.N,*%
X161992500Y-17461250D03*
X94992500Y-17461250D03*
X161992500Y-56961250D03*
X94992500Y-56961250D03*
D11*
%TO.P,U2,1,vss*%
%TO.N,gnd*%
X162492500Y-29591250D03*
%TO.P,U2,2,vdd*%
%TO.N,3v3*%
X162492500Y-32131250D03*
%TO.P,U2,3,sclk*%
%TO.N,sclk*%
X162492500Y-34671250D03*
%TO.P,U2,4,sda*%
%TO.N,sda*%
X162492500Y-37211250D03*
%TO.P,U2,5,res*%
%TO.N,res*%
X162492500Y-39751250D03*
%TO.P,U2,6,dc*%
%TO.N,dc*%
X162492500Y-42291250D03*
%TO.P,U2,7,cs*%
%TO.N,cs2*%
X162492500Y-44831250D03*
%TD*%
D10*
%TO.P,U1,*%
%TO.N,*%
X86586250Y-17461250D03*
X19586250Y-17461250D03*
X86586250Y-56961250D03*
X19586250Y-56961250D03*
D11*
%TO.P,U1,1,vss*%
%TO.N,gnd*%
X87086250Y-29591250D03*
%TO.P,U1,2,vdd*%
%TO.N,3v3*%
X87086250Y-32131250D03*
%TO.P,U1,3,sclk*%
%TO.N,sclk*%
X87086250Y-34671250D03*
%TO.P,U1,4,sda*%
%TO.N,sda*%
X87086250Y-37211250D03*
%TO.P,U1,5,res*%
%TO.N,res*%
X87086250Y-39751250D03*
%TO.P,U1,6,dc*%
%TO.N,dc*%
X87086250Y-42291250D03*
%TO.P,U1,7,cs*%
%TO.N,cs1*%
X87086250Y-44831250D03*
%TD*%
D12*
%TO.P,SW1,A,A*%
%TO.N,a1*%
X176900000Y-24487500D03*
D13*
%TO.P,SW1,B,B*%
%TO.N,b1*%
X176900000Y-29487500D03*
%TO.P,SW1,C,C*%
%TO.N,gnd*%
X176900000Y-26987500D03*
D14*
%TO.P,SW1,MP*%
%TO.N,N/C*%
X184400000Y-32587500D03*
X184400000Y-21387500D03*
D13*
%TO.P,SW1,S1,S1*%
%TO.N,c9*%
X191400000Y-29487500D03*
%TO.P,SW1,S2,S2*%
%TO.N,Net-(D1-Pad2)*%
X191400000Y-24487500D03*
%TD*%
D12*
%TO.P,SW2,A,A*%
%TO.N,a2*%
X176900000Y-48300000D03*
D13*
%TO.P,SW2,B,B*%
%TO.N,b2*%
X176900000Y-53300000D03*
%TO.P,SW2,C,C*%
%TO.N,gnd*%
X176900000Y-50800000D03*
D14*
%TO.P,SW2,MP*%
%TO.N,N/C*%
X184400000Y-56400000D03*
X184400000Y-45200000D03*
D13*
%TO.P,SW2,S1,S1*%
%TO.N,c10*%
X191400000Y-53300000D03*
%TO.P,SW2,S2,S2*%
%TO.N,Net-(D2-Pad2)*%
X191400000Y-48300000D03*
%TD*%
D15*
%TO.P,U3,1,GPIO0*%
%TO.N,c1*%
X15557500Y-30003750D03*
%TO.P,U3,2,GPIO1*%
%TO.N,c2*%
X18097500Y-30003750D03*
D16*
%TO.P,U3,3,GND*%
%TO.N,unconnected-(U3-Pad3)*%
X20637500Y-30003750D03*
D15*
%TO.P,U3,4,GPIO2*%
%TO.N,c3*%
X23177500Y-30003750D03*
%TO.P,U3,5,GPIO3*%
%TO.N,c4*%
X25717500Y-30003750D03*
%TO.P,U3,6,GPIO4*%
%TO.N,c5*%
X28257500Y-30003750D03*
%TO.P,U3,7,GPIO5*%
%TO.N,c6*%
X30797500Y-30003750D03*
D16*
%TO.P,U3,8,GND*%
%TO.N,unconnected-(U3-Pad8)*%
X33337500Y-30003750D03*
D15*
%TO.P,U3,9,GPIO6*%
%TO.N,c7*%
X35877500Y-30003750D03*
%TO.P,U3,10,GPIO7*%
%TO.N,c8*%
X38417500Y-30003750D03*
%TO.P,U3,11,GPIO8*%
%TO.N,c9*%
X40957500Y-30003750D03*
%TO.P,U3,12,GPIO9*%
%TO.N,c10*%
X43497500Y-30003750D03*
D16*
%TO.P,U3,13,GND*%
%TO.N,unconnected-(U3-Pad13)*%
X46037500Y-30003750D03*
D15*
%TO.P,U3,14,GPIO10*%
%TO.N,a1*%
X48577500Y-30003750D03*
%TO.P,U3,15,GPIO11*%
%TO.N,b1*%
X51117500Y-30003750D03*
%TO.P,U3,16,GPIO12*%
%TO.N,a2*%
X53657500Y-30003750D03*
%TO.P,U3,17,GPIO13*%
%TO.N,b2*%
X56197500Y-30003750D03*
D16*
%TO.P,U3,18,GND*%
%TO.N,gnd*%
X58737500Y-30003750D03*
D15*
%TO.P,U3,19,GPIO14*%
%TO.N,cs2*%
X61277500Y-30003750D03*
%TO.P,U3,20,GPIO15*%
%TO.N,cs1*%
X63817500Y-30003750D03*
%TO.P,U3,21,GPIO16*%
%TO.N,res*%
X63817500Y-47783750D03*
%TO.P,U3,22,GPIO17*%
%TO.N,dc*%
X61277500Y-47783750D03*
D16*
%TO.P,U3,23,GND*%
%TO.N,gnd*%
X58737500Y-47783750D03*
D15*
%TO.P,U3,24,GPIO18*%
%TO.N,sclk*%
X56197500Y-47783750D03*
%TO.P,U3,25,GPIO19*%
%TO.N,sda*%
X53657500Y-47783750D03*
%TO.P,U3,26,GPIO20*%
%TO.N,unconnected-(U3-Pad26)*%
X51117500Y-47783750D03*
%TO.P,U3,27,GPIO21*%
%TO.N,r1*%
X48577500Y-47783750D03*
D16*
%TO.P,U3,28,GND*%
%TO.N,unconnected-(U3-Pad28)*%
X46037500Y-47783750D03*
D15*
%TO.P,U3,29,GPIO22*%
%TO.N,r2*%
X43497500Y-47783750D03*
%TO.P,U3,30,RUN*%
%TO.N,unconnected-(U3-Pad30)*%
X40957500Y-47783750D03*
%TO.P,U3,31,GPIO26_ADC0*%
%TO.N,r3*%
X38417500Y-47783750D03*
%TO.P,U3,32,GPIO27_ADC1*%
%TO.N,r4*%
X35877500Y-47783750D03*
D16*
%TO.P,U3,33,AGND*%
%TO.N,unconnected-(U3-Pad33)*%
X33337500Y-47783750D03*
D15*
%TO.P,U3,34,GPIO28_ADC2*%
%TO.N,r5*%
X30797500Y-47783750D03*
%TO.P,U3,35,ADC_VREF*%
%TO.N,unconnected-(U3-Pad35)*%
X28257500Y-47783750D03*
%TO.P,U3,36,3V3*%
%TO.N,3v3*%
X25717500Y-47783750D03*
%TO.P,U3,37,3V3_EN*%
%TO.N,unconnected-(U3-Pad37)*%
X23177500Y-47783750D03*
D16*
%TO.P,U3,38,GND*%
%TO.N,unconnected-(U3-Pad38)*%
X20637500Y-47783750D03*
D15*
%TO.P,U3,39,VSYS*%
%TO.N,unconnected-(U3-Pad39)*%
X18097500Y-47783750D03*
%TO.P,U3,40,VBUS*%
%TO.N,unconnected-(U3-Pad40)*%
X15557500Y-47783750D03*
%TO.P,U3,41,SWCLK*%
%TO.N,unconnected-(U3-Pad41)*%
X63587500Y-36353750D03*
D16*
%TO.P,U3,42,GND*%
%TO.N,unconnected-(U3-Pad42)*%
X63587500Y-38893750D03*
D15*
%TO.P,U3,43,SWDIO*%
%TO.N,unconnected-(U3-Pad43)*%
X63587500Y-41433750D03*
%TD*%
D17*
%TO.N,cs2*%
X161131250Y-45243750D03*
X161131250Y-28575000D03*
%TO.N,cs1*%
X88900000Y-44450000D03*
%TO.N,gnd*%
X173831250Y-28575000D03*
%TO.N,cs1*%
X88900000Y-30956250D03*
%TO.N,res*%
X85725000Y-39687500D03*
%TO.N,dc*%
X84931250Y-42068750D03*
%TO.N,sclk*%
X84137500Y-34925000D03*
%TO.N,3v3*%
X82550000Y-32543750D03*
%TO.N,gnd*%
X87312500Y-26987500D03*
%TO.N,r1*%
X194468750Y-50800000D03*
X192881250Y-54768750D03*
X49212500Y-54768750D03*
X194468750Y-32543750D03*
%TO.N,r2*%
X24606250Y-78581250D03*
X152400000Y-78581250D03*
X76200000Y-78581250D03*
X133350000Y-78581250D03*
X81756250Y-78581250D03*
X57150000Y-78581250D03*
X119856250Y-78581250D03*
X177006250Y-78581250D03*
X190500000Y-78581250D03*
X114300000Y-78581250D03*
X43656250Y-78581250D03*
X62706250Y-78581250D03*
X157956250Y-78581250D03*
X100806250Y-78581250D03*
X171450000Y-78581250D03*
X138906250Y-78581250D03*
X95250000Y-78581250D03*
X38100000Y-78581250D03*
%TO.N,r3*%
X157956250Y-97631250D03*
X95250000Y-97631250D03*
X152400000Y-97631250D03*
X138906250Y-97631250D03*
X57150000Y-97631250D03*
X76200000Y-97631250D03*
X133350000Y-97631250D03*
X119856250Y-97631250D03*
X114300000Y-97631250D03*
X190500000Y-97631250D03*
X177006250Y-97631250D03*
X81756250Y-97631250D03*
X171450000Y-97631250D03*
X100806250Y-97631250D03*
X43656250Y-97631250D03*
X24606250Y-97631250D03*
X62706250Y-97631250D03*
X38100000Y-97631250D03*
%TO.N,r4*%
X177006250Y-116681250D03*
X76200000Y-116681250D03*
X119856250Y-116681250D03*
X81756250Y-116681250D03*
X190500000Y-116681250D03*
X171450000Y-116681250D03*
X57150000Y-116681250D03*
X34925000Y-116681250D03*
X100806250Y-116681250D03*
X43656250Y-116681250D03*
X38100000Y-116681250D03*
X138906250Y-116681250D03*
X133350000Y-116681250D03*
X24606250Y-116681250D03*
X62706250Y-116681250D03*
X114300000Y-116681250D03*
X95250000Y-116681250D03*
X152400000Y-116681250D03*
X157956250Y-116681250D03*
%TO.N,r5*%
X89693750Y-135731250D03*
X152400000Y-135731250D03*
X76200000Y-135731250D03*
X62706250Y-135731250D03*
X30162500Y-135731250D03*
X57150000Y-135731250D03*
X171450000Y-135731250D03*
X157956250Y-135731250D03*
X81756250Y-135731250D03*
X122237500Y-135731250D03*
X116681250Y-136152002D03*
X43656250Y-135731250D03*
X190500000Y-135731250D03*
X38100000Y-135731250D03*
X24606250Y-135731250D03*
X138906250Y-135731250D03*
X95250000Y-135731250D03*
X133350000Y-135731250D03*
X177006250Y-135731250D03*
%TO.N,a1*%
X50006250Y-23812500D03*
%TO.N,b1*%
X171450000Y-29368750D03*
X51593750Y-24606250D03*
X171450000Y-24606250D03*
%TO.N,gnd*%
X173831250Y-50800000D03*
X173831250Y-26987500D03*
%TO.N,c9*%
X189706250Y-19843750D03*
X190500000Y-65881250D03*
X167481250Y-65881250D03*
X42068750Y-19843750D03*
%TO.N,a2*%
X170656250Y-25400000D03*
X170656250Y-48418750D03*
X53975000Y-25400000D03*
%TO.N,b2*%
X169068750Y-53181250D03*
X56356250Y-26193750D03*
X169862500Y-26193750D03*
%TO.N,c10*%
X191293750Y-66675000D03*
X172243750Y-51593750D03*
X45243750Y-51593750D03*
X188912500Y-46831250D03*
X186531250Y-66675000D03*
X188912500Y-53181250D03*
X172243750Y-46037500D03*
%TO.N,c2*%
X33337500Y-54768750D03*
X19843750Y-54768750D03*
%TO.N,c3*%
X52387500Y-60325000D03*
X24606250Y-60325000D03*
%TO.N,c4*%
X26987500Y-59531250D03*
X71437500Y-59560261D03*
%TO.N,c5*%
X30162500Y-58737500D03*
X96724215Y-128395596D03*
X90487500Y-58737500D03*
X115761456Y-128435499D03*
%TO.N,c6*%
X109537500Y-55349011D03*
X32543750Y-55562500D03*
%TO.N,c7*%
X128587500Y-53181250D03*
X37306250Y-53181250D03*
%TO.N,c8*%
X39687500Y-52387500D03*
X147637500Y-52387500D03*
%TO.N,3v3*%
X26193750Y-44450000D03*
X82550000Y-44435739D03*
%TO.N,sclk*%
X84137500Y-45884739D03*
%TO.N,sda*%
X83343750Y-37306250D03*
X83343750Y-45160239D03*
%TO.N,res*%
X85725000Y-47625000D03*
%TO.N,dc*%
X84931250Y-46831250D03*
%TD*%
D18*
%TO.N,cs2*%
X62864511Y-28416739D02*
X160972989Y-28416739D01*
X160972989Y-28416739D02*
X161131250Y-28575000D01*
X162080000Y-45243750D02*
X162492500Y-44831250D01*
X161131250Y-45243750D02*
X162080000Y-45243750D01*
%TO.N,cs1*%
X88900000Y-44450000D02*
X87467500Y-44450000D01*
X87467500Y-44450000D02*
X87086250Y-44831250D01*
%TO.N,gnd*%
X162492500Y-29591250D02*
X163508750Y-28575000D01*
X163508750Y-28575000D02*
X173831250Y-28575000D01*
X87086250Y-29591250D02*
X162492500Y-29591250D01*
%TO.N,cs1*%
X64770000Y-30956250D02*
X88900000Y-30956250D01*
X63817500Y-30003750D02*
X64770000Y-30956250D01*
%TO.N,res*%
X85725000Y-39687500D02*
X87022500Y-39687500D01*
X87022500Y-39687500D02*
X87086250Y-39751250D01*
%TO.N,dc*%
X86863750Y-42068750D02*
X87086250Y-42291250D01*
X84931250Y-42068750D02*
X86863750Y-42068750D01*
%TO.N,sclk*%
X84137500Y-34925000D02*
X84391250Y-34671250D01*
X84391250Y-34671250D02*
X87086250Y-34671250D01*
%TO.N,3v3*%
X82962500Y-32131250D02*
X87086250Y-32131250D01*
X82550000Y-32543750D02*
X82962500Y-32131250D01*
%TO.N,gnd*%
X61753750Y-26987500D02*
X87312500Y-26987500D01*
X58737500Y-30003750D02*
X61753750Y-26987500D01*
%TO.N,3v3*%
X87086250Y-32131250D02*
X162492500Y-32131250D01*
%TO.N,r1*%
X52243261Y-54624511D02*
X192737011Y-54624511D01*
X52099022Y-54768750D02*
X52243261Y-54624511D01*
X192737011Y-54624511D02*
X192881250Y-54768750D01*
X194468750Y-32543750D02*
X194468750Y-50800000D01*
X49212500Y-54768750D02*
X52099022Y-54768750D01*
%TO.N,r2*%
X95250000Y-78581250D02*
X81756250Y-78581250D01*
X76200000Y-78581250D02*
X62706250Y-78581250D01*
X171450000Y-78581250D02*
X157956250Y-78581250D01*
X133350000Y-78581250D02*
X119856250Y-78581250D01*
X57150000Y-78581250D02*
X43656250Y-78581250D01*
X114300000Y-78581250D02*
X100806250Y-78581250D01*
X38100000Y-78581250D02*
X24606250Y-78581250D01*
X152400000Y-78581250D02*
X138906250Y-78581250D01*
X190500000Y-78581250D02*
X177006250Y-78581250D01*
%TO.N,r3*%
X24606250Y-97631250D02*
X38100000Y-97631250D01*
X100806250Y-97631250D02*
X114300000Y-97631250D01*
X119856250Y-97631250D02*
X133350000Y-97631250D01*
X81756250Y-97631250D02*
X95250000Y-97631250D01*
X177006250Y-97631250D02*
X190500000Y-97631250D01*
X62706250Y-97631250D02*
X76200000Y-97631250D01*
X138906250Y-97631250D02*
X152400000Y-97631250D01*
X157956250Y-97631250D02*
X171450000Y-97631250D01*
X43656250Y-97631250D02*
X57150000Y-97631250D01*
%TO.N,r4*%
X43656250Y-116681250D02*
X57150000Y-116681250D01*
X62706250Y-116681250D02*
X76200000Y-116681250D01*
X100806250Y-116681250D02*
X114300000Y-116681250D01*
X119856250Y-116681250D02*
X133350000Y-116681250D01*
X81756250Y-116681250D02*
X95250000Y-116681250D01*
X157956250Y-116681250D02*
X171450000Y-116681250D01*
X177006250Y-116681250D02*
X190500000Y-116681250D01*
X138906250Y-116681250D02*
X152400000Y-116681250D01*
X24606250Y-116681250D02*
X38100000Y-116681250D01*
%TO.N,r5*%
X30162500Y-135731250D02*
X24606250Y-135731250D01*
X122237500Y-135731250D02*
X133350000Y-135731250D01*
X95250000Y-135731250D02*
X96013271Y-134967979D01*
X96013271Y-134967979D02*
X109774505Y-134967979D01*
X116656231Y-136177021D02*
X116681250Y-136152002D01*
X110983547Y-136177021D02*
X116656231Y-136177021D01*
X62706250Y-135731250D02*
X76200000Y-135731250D01*
X157956250Y-135731250D02*
X171450000Y-135731250D01*
X109774505Y-134967979D02*
X110983547Y-136177021D01*
X177006250Y-135731250D02*
X190500000Y-135731250D01*
X81756250Y-135731250D02*
X89693750Y-135731250D01*
X43656250Y-135731250D02*
X57150000Y-135731250D01*
X138906250Y-135731250D02*
X152400000Y-135731250D01*
X30162500Y-135731250D02*
X38100000Y-135731250D01*
%TO.N,a1*%
X50006250Y-23812500D02*
X176225000Y-23812500D01*
X176225000Y-23812500D02*
X176900000Y-24487500D01*
%TO.N,b1*%
X171450000Y-29368750D02*
X171568750Y-29487500D01*
X171568750Y-29487500D02*
X176900000Y-29487500D01*
X51593750Y-24606250D02*
X171450000Y-24606250D01*
%TO.N,gnd*%
X173831250Y-50800000D02*
X176900000Y-50800000D01*
X173831250Y-26987500D02*
X176900000Y-26987500D01*
%TO.N,c9*%
X42068750Y-19843750D02*
X189706250Y-19843750D01*
X167481250Y-65881250D02*
X190500000Y-65881250D01*
%TO.N,a2*%
X53975000Y-25400000D02*
X170656250Y-25400000D01*
X170775000Y-48300000D02*
X176900000Y-48300000D01*
X170656250Y-48418750D02*
X170775000Y-48300000D01*
%TO.N,b2*%
X169187500Y-53300000D02*
X176900000Y-53300000D01*
X169068750Y-53181250D02*
X169187500Y-53300000D01*
X56356250Y-26193750D02*
X169862500Y-26193750D01*
%TO.N,c10*%
X189031250Y-53300000D02*
X191400000Y-53300000D01*
X172243750Y-46037500D02*
X172730761Y-46524511D01*
X188912500Y-53181250D02*
X189031250Y-53300000D01*
X45243750Y-51593750D02*
X172243750Y-51593750D01*
X172730761Y-46524511D02*
X188605761Y-46524511D01*
X188605761Y-46524511D02*
X188912500Y-46831250D01*
X186531250Y-66675000D02*
X191293750Y-66675000D01*
%TO.N,c2*%
X19843750Y-54768750D02*
X33337500Y-54768750D01*
%TO.N,c3*%
X24606250Y-60325000D02*
X52387500Y-60325000D01*
%TO.N,c4*%
X26987500Y-59531250D02*
X71408489Y-59531250D01*
X71408489Y-59531250D02*
X71437500Y-59560261D01*
%TO.N,c5*%
X30162500Y-58737500D02*
X32347228Y-58737500D01*
X32347228Y-58737500D02*
X32445489Y-58835761D01*
X90389239Y-58835761D02*
X90487500Y-58737500D01*
X96885640Y-128557021D02*
X111679505Y-128557021D01*
X112888547Y-127347979D02*
X114673936Y-127347979D01*
X114673936Y-127347979D02*
X115761456Y-128435499D01*
X111679505Y-128557021D02*
X112888547Y-127347979D01*
X32445489Y-58835761D02*
X90389239Y-58835761D01*
X96724215Y-128395596D02*
X96885640Y-128557021D01*
%TO.N,c6*%
X85334040Y-55562500D02*
X85822509Y-55074031D01*
X109262520Y-55074031D02*
X109537500Y-55349011D01*
X32543750Y-55562500D02*
X85334040Y-55562500D01*
X85822509Y-55074031D02*
X109262520Y-55074031D01*
%TO.N,c7*%
X37306250Y-53181250D02*
X128587500Y-53181250D01*
%TO.N,c8*%
X39687500Y-52387500D02*
X147637500Y-52387500D01*
%TO.N,3v3*%
X82535739Y-44450000D02*
X82550000Y-44435739D01*
%TO.N,dc*%
X87086250Y-42291250D02*
X162492500Y-42291250D01*
%TO.N,3v3*%
X26193750Y-44450000D02*
X82535739Y-44450000D01*
%TO.N,sclk*%
X56197500Y-47783750D02*
X58096511Y-45884739D01*
%TO.N,res*%
X87086250Y-39751250D02*
X162492500Y-39751250D01*
%TO.N,sclk*%
X58096511Y-45884739D02*
X84137500Y-45884739D01*
%TO.N,sda*%
X53657500Y-47783750D02*
X56281011Y-45160239D01*
X83438750Y-37211250D02*
X87086250Y-37211250D01*
X56281011Y-45160239D02*
X83343750Y-45160239D01*
X83343750Y-37306250D02*
X83438750Y-37211250D01*
X87086250Y-37211250D02*
X162492500Y-37211250D01*
%TO.N,res*%
X63817500Y-47783750D02*
X85566250Y-47783750D01*
X85566250Y-47783750D02*
X85725000Y-47625000D01*
%TO.N,sclk*%
X87086250Y-34671250D02*
X162492500Y-34671250D01*
%TO.N,dc*%
X61277500Y-47783750D02*
X62452011Y-46609239D01*
X62452011Y-46609239D02*
X84709239Y-46609239D01*
X84709239Y-46609239D02*
X84931250Y-46831250D01*
%TO.N,cs2*%
X61277500Y-30003750D02*
X62864511Y-28416739D01*
%TD*%
M02*
