%TF.GenerationSoftware,KiCad,Pcbnew,(6.0.4-0)*%
%TF.CreationDate,2022-09-25T09:44:29-05:00*%
%TF.ProjectId,mekko5X,6d656b6b-6f35-4582-9e6b-696361645f70,rev?*%
%TF.SameCoordinates,Original*%
%TF.FileFunction,Copper,L2,Bot*%
%TF.FilePolarity,Positive*%
%FSLAX46Y46*%
G04 Gerber Fmt 4.6, Leading zero omitted, Abs format (unit mm)*
G04 Created by KiCad (PCBNEW (6.0.4-0)) date 2022-09-25 09:44:29*
%MOMM*%
%LPD*%
G01*
G04 APERTURE LIST*
%TA.AperFunction,SMDPad,CuDef*%
%ADD10R,3.300000X1.700000*%
%TD*%
%TA.AperFunction,SMDPad,CuDef*%
%ADD11R,1.700000X3.300000*%
%TD*%
%TA.AperFunction,ComponentPad*%
%ADD12C,3.100000*%
%TD*%
%TA.AperFunction,ComponentPad*%
%ADD13C,1.700000*%
%TD*%
%TA.AperFunction,SMDPad,CuDef*%
%ADD14R,2.550000X2.500000*%
%TD*%
%TA.AperFunction,ComponentPad*%
%ADD15R,2.000000X2.000000*%
%TD*%
%TA.AperFunction,ComponentPad*%
%ADD16C,2.000000*%
%TD*%
%TA.AperFunction,ComponentPad*%
%ADD17R,3.200000X2.000000*%
%TD*%
%TA.AperFunction,ComponentPad*%
%ADD18O,1.700000X1.700000*%
%TD*%
%TA.AperFunction,SMDPad,CuDef*%
%ADD19R,1.700000X3.500000*%
%TD*%
%TA.AperFunction,ComponentPad*%
%ADD20R,1.700000X1.700000*%
%TD*%
%TA.AperFunction,SMDPad,CuDef*%
%ADD21R,3.500000X1.700000*%
%TD*%
%TA.AperFunction,ViaPad*%
%ADD22C,0.800000*%
%TD*%
%TA.AperFunction,Conductor*%
%ADD23C,0.250000*%
%TD*%
G04 APERTURE END LIST*
D10*
%TO.P,D42,1,K*%
%TO.N,r5*%
X193306250Y-135731250D03*
%TO.P,D42,2,A*%
%TO.N,Net-(D42-Pad2)*%
X198806250Y-135731250D03*
%TD*%
%TO.P,D41,1,K*%
%TO.N,r5*%
X174256250Y-135731250D03*
%TO.P,D41,2,A*%
%TO.N,Net-(D41-Pad2)*%
X179756250Y-135731250D03*
%TD*%
%TO.P,D40,1,K*%
%TO.N,r5*%
X155206250Y-135731250D03*
%TO.P,D40,2,A*%
%TO.N,Net-(D40-Pad2)*%
X160706250Y-135731250D03*
%TD*%
%TO.P,D39,1,K*%
%TO.N,r5*%
X136156250Y-135731250D03*
%TO.P,D39,2,A*%
%TO.N,Net-(D39-Pad2)*%
X141656250Y-135731250D03*
%TD*%
%TO.P,D38,1,K*%
%TO.N,r5*%
X119487500Y-135731250D03*
%TO.P,D38,2,A*%
%TO.N,Net-(D38-Pad2)*%
X124987500Y-135731250D03*
%TD*%
%TO.P,D37,1,K*%
%TO.N,r5*%
X92500000Y-135731250D03*
%TO.P,D37,2,A*%
%TO.N,Net-(D37-Pad2)*%
X98000000Y-135731250D03*
%TD*%
%TO.P,D36,1,K*%
%TO.N,r5*%
X79006250Y-135731250D03*
%TO.P,D36,2,A*%
%TO.N,Net-(D36-Pad2)*%
X84506250Y-135731250D03*
%TD*%
%TO.P,D35,1,K*%
%TO.N,r5*%
X59956250Y-135731250D03*
%TO.P,D35,2,A*%
%TO.N,Net-(D35-Pad2)*%
X65456250Y-135731250D03*
%TD*%
%TO.P,D34,1,K*%
%TO.N,r5*%
X40906250Y-135731250D03*
%TO.P,D34,2,A*%
%TO.N,Net-(D34-Pad2)*%
X46406250Y-135731250D03*
%TD*%
%TO.P,D33,1,K*%
%TO.N,r5*%
X21856250Y-135731250D03*
%TO.P,D33,2,A*%
%TO.N,Net-(D33-Pad2)*%
X27356250Y-135731250D03*
%TD*%
%TO.P,D32,1,K*%
%TO.N,r4*%
X193306250Y-116681250D03*
%TO.P,D32,2,A*%
%TO.N,Net-(D32-Pad2)*%
X198806250Y-116681250D03*
%TD*%
%TO.P,D31,1,K*%
%TO.N,r4*%
X174256250Y-116681250D03*
%TO.P,D31,2,A*%
%TO.N,Net-(D31-Pad2)*%
X179756250Y-116681250D03*
%TD*%
%TO.P,D30,1,K*%
%TO.N,r4*%
X155206250Y-116681250D03*
%TO.P,D30,2,A*%
%TO.N,Net-(D30-Pad2)*%
X160706250Y-116681250D03*
%TD*%
%TO.P,D29,1,K*%
%TO.N,r4*%
X136156250Y-116681250D03*
%TO.P,D29,2,A*%
%TO.N,Net-(D29-Pad2)*%
X141656250Y-116681250D03*
%TD*%
%TO.P,D28,1,K*%
%TO.N,r4*%
X117106250Y-116681250D03*
%TO.P,D28,2,A*%
%TO.N,Net-(D28-Pad2)*%
X122606250Y-116681250D03*
%TD*%
%TO.P,D27,1,K*%
%TO.N,r4*%
X98056250Y-116681250D03*
%TO.P,D27,2,A*%
%TO.N,Net-(D27-Pad2)*%
X103556250Y-116681250D03*
%TD*%
%TO.P,D26,1,K*%
%TO.N,r4*%
X79006250Y-116681250D03*
%TO.P,D26,2,A*%
%TO.N,Net-(D26-Pad2)*%
X84506250Y-116681250D03*
%TD*%
%TO.P,D25,1,K*%
%TO.N,r4*%
X59956250Y-116681250D03*
%TO.P,D25,2,A*%
%TO.N,Net-(D25-Pad2)*%
X65456250Y-116681250D03*
%TD*%
%TO.P,D24,1,K*%
%TO.N,r4*%
X40906250Y-116681250D03*
%TO.P,D24,2,A*%
%TO.N,Net-(D24-Pad2)*%
X46406250Y-116681250D03*
%TD*%
%TO.P,D23,1,K*%
%TO.N,r4*%
X21856250Y-116681250D03*
%TO.P,D23,2,A*%
%TO.N,Net-(D23-Pad2)*%
X27356250Y-116681250D03*
%TD*%
%TO.P,D22,1,K*%
%TO.N,r3*%
X193306250Y-97631250D03*
%TO.P,D22,2,A*%
%TO.N,Net-(D22-Pad2)*%
X198806250Y-97631250D03*
%TD*%
%TO.P,D21,1,K*%
%TO.N,r3*%
X174256250Y-97631250D03*
%TO.P,D21,2,A*%
%TO.N,Net-(D21-Pad2)*%
X179756250Y-97631250D03*
%TD*%
%TO.P,D20,1,K*%
%TO.N,r3*%
X155206250Y-97631250D03*
%TO.P,D20,2,A*%
%TO.N,Net-(D20-Pad2)*%
X160706250Y-97631250D03*
%TD*%
%TO.P,D19,1,K*%
%TO.N,r3*%
X136156250Y-97631250D03*
%TO.P,D19,2,A*%
%TO.N,Net-(D19-Pad2)*%
X141656250Y-97631250D03*
%TD*%
%TO.P,D18,1,K*%
%TO.N,r3*%
X117106250Y-97631250D03*
%TO.P,D18,2,A*%
%TO.N,Net-(D18-Pad2)*%
X122606250Y-97631250D03*
%TD*%
%TO.P,D17,1,K*%
%TO.N,r3*%
X98056250Y-97631250D03*
%TO.P,D17,2,A*%
%TO.N,Net-(D17-Pad2)*%
X103556250Y-97631250D03*
%TD*%
%TO.P,D16,1,K*%
%TO.N,r3*%
X79006250Y-97631250D03*
%TO.P,D16,2,A*%
%TO.N,Net-(D16-Pad2)*%
X84506250Y-97631250D03*
%TD*%
%TO.P,D15,1,K*%
%TO.N,r3*%
X59956250Y-97631250D03*
%TO.P,D15,2,A*%
%TO.N,Net-(D15-Pad2)*%
X65456250Y-97631250D03*
%TD*%
%TO.P,D14,1,K*%
%TO.N,r3*%
X40906250Y-97631250D03*
%TO.P,D14,2,A*%
%TO.N,Net-(D14-Pad2)*%
X46406250Y-97631250D03*
%TD*%
%TO.P,D13,1,K*%
%TO.N,r3*%
X21856250Y-97631250D03*
%TO.P,D13,2,A*%
%TO.N,Net-(D13-Pad2)*%
X27356250Y-97631250D03*
%TD*%
%TO.P,D12,1,K*%
%TO.N,r2*%
X193306250Y-78581250D03*
%TO.P,D12,2,A*%
%TO.N,Net-(D12-Pad2)*%
X198806250Y-78581250D03*
%TD*%
%TO.P,D11,1,K*%
%TO.N,r2*%
X174256250Y-78581250D03*
%TO.P,D11,2,A*%
%TO.N,Net-(D11-Pad2)*%
X179756250Y-78581250D03*
%TD*%
%TO.P,D10,1,K*%
%TO.N,r2*%
X155206250Y-78581250D03*
%TO.P,D10,2,A*%
%TO.N,Net-(D10-Pad2)*%
X160706250Y-78581250D03*
%TD*%
%TO.P,D9,1,K*%
%TO.N,r2*%
X136156250Y-78581250D03*
%TO.P,D9,2,A*%
%TO.N,Net-(D9-Pad2)*%
X141656250Y-78581250D03*
%TD*%
%TO.P,D8,1,K*%
%TO.N,r2*%
X117106250Y-78581250D03*
%TO.P,D8,2,A*%
%TO.N,Net-(D8-Pad2)*%
X122606250Y-78581250D03*
%TD*%
%TO.P,D7,1,K*%
%TO.N,r2*%
X98056250Y-78581250D03*
%TO.P,D7,2,A*%
%TO.N,Net-(D7-Pad2)*%
X103556250Y-78581250D03*
%TD*%
%TO.P,D6,1,K*%
%TO.N,r2*%
X79006250Y-78581250D03*
%TO.P,D6,2,A*%
%TO.N,Net-(D6-Pad2)*%
X84506250Y-78581250D03*
%TD*%
%TO.P,D5,1,K*%
%TO.N,r2*%
X59956250Y-78581250D03*
%TO.P,D5,2,A*%
%TO.N,Net-(D5-Pad2)*%
X65456250Y-78581250D03*
%TD*%
%TO.P,D4,1,K*%
%TO.N,r2*%
X40906250Y-78581250D03*
%TO.P,D4,2,A*%
%TO.N,Net-(D4-Pad2)*%
X46406250Y-78581250D03*
%TD*%
%TO.P,D3,1,K*%
%TO.N,r2*%
X21856250Y-78581250D03*
%TO.P,D3,2,A*%
%TO.N,Net-(D3-Pad2)*%
X27356250Y-78581250D03*
%TD*%
D11*
%TO.P,D2,1,K*%
%TO.N,r1*%
X194468750Y-53550000D03*
%TO.P,D2,2,A*%
%TO.N,Net-(D2-Pad2)*%
X194468750Y-48050000D03*
%TD*%
%TO.P,D1,1,K*%
%TO.N,r1*%
X194468750Y-29737500D03*
%TO.P,D1,2,A*%
%TO.N,Net-(D1-Pad2)*%
X194468750Y-24237500D03*
%TD*%
D12*
%TO.P,U2,*%
%TO.N,*%
X161992500Y-17461250D03*
X94992500Y-17461250D03*
X161992500Y-56961250D03*
X94992500Y-56961250D03*
D13*
%TO.P,U2,1,vss*%
%TO.N,gnd*%
X162492500Y-29591250D03*
%TO.P,U2,2,vdd*%
%TO.N,3v3*%
X162492500Y-32131250D03*
%TO.P,U2,3,sclk*%
%TO.N,sclk*%
X162492500Y-34671250D03*
%TO.P,U2,4,sda*%
%TO.N,sda*%
X162492500Y-37211250D03*
%TO.P,U2,5,res*%
%TO.N,res*%
X162492500Y-39751250D03*
%TO.P,U2,6,dc*%
%TO.N,dc*%
X162492500Y-42291250D03*
%TO.P,U2,7,cs*%
%TO.N,cs2*%
X162492500Y-44831250D03*
%TD*%
D12*
%TO.P,U1,*%
%TO.N,*%
X86586250Y-17461250D03*
X19586250Y-17461250D03*
X86586250Y-56961250D03*
X19586250Y-56961250D03*
D13*
%TO.P,U1,1,vss*%
%TO.N,gnd*%
X87086250Y-29591250D03*
%TO.P,U1,2,vdd*%
%TO.N,3v3*%
X87086250Y-32131250D03*
%TO.P,U1,3,sclk*%
%TO.N,sclk*%
X87086250Y-34671250D03*
%TO.P,U1,4,sda*%
%TO.N,sda*%
X87086250Y-37211250D03*
%TO.P,U1,5,res*%
%TO.N,res*%
X87086250Y-39751250D03*
%TO.P,U1,6,dc*%
%TO.N,dc*%
X87086250Y-42291250D03*
%TO.P,U1,7,cs*%
%TO.N,cs1*%
X87086250Y-44831250D03*
%TD*%
D14*
%TO.P,SW35,1,A*%
%TO.N,Net-(D35-Pad2)*%
X66615000Y-126682500D03*
%TO.P,SW35,2,B*%
%TO.N,c3*%
X52765000Y-129222500D03*
%TD*%
%TO.P,SW26,1,A*%
%TO.N,Net-(D26-Pad2)*%
X85665000Y-107632500D03*
%TO.P,SW26,2,B*%
%TO.N,c4*%
X71815000Y-110172500D03*
%TD*%
%TO.P,SW24,1,A*%
%TO.N,Net-(D24-Pad2)*%
X47565000Y-107632500D03*
%TO.P,SW24,2,B*%
%TO.N,c2*%
X33715000Y-110172500D03*
%TD*%
%TO.P,SW22,1,A*%
%TO.N,Net-(D22-Pad2)*%
X199965000Y-88582500D03*
%TO.P,SW22,2,B*%
%TO.N,c10*%
X186115000Y-91122500D03*
%TD*%
%TO.P,SW9,1,A*%
%TO.N,Net-(D9-Pad2)*%
X142815000Y-69532500D03*
%TO.P,SW9,2,B*%
%TO.N,c7*%
X128965000Y-72072500D03*
%TD*%
%TO.P,SW18,1,A*%
%TO.N,Net-(D18-Pad2)*%
X123765000Y-88582500D03*
%TO.P,SW18,2,B*%
%TO.N,c6*%
X109915000Y-91122500D03*
%TD*%
%TO.P,SW8,1,A*%
%TO.N,Net-(D8-Pad2)*%
X123765000Y-69532500D03*
%TO.P,SW8,2,B*%
%TO.N,c6*%
X109915000Y-72072500D03*
%TD*%
%TO.P,SW32,1,A*%
%TO.N,Net-(D32-Pad2)*%
X199965000Y-107632500D03*
%TO.P,SW32,2,B*%
%TO.N,c10*%
X186115000Y-110172500D03*
%TD*%
D15*
%TO.P,SW1,A,A*%
%TO.N,a1*%
X176900000Y-24487500D03*
D16*
%TO.P,SW1,B,B*%
%TO.N,b1*%
X176900000Y-29487500D03*
%TO.P,SW1,C,C*%
%TO.N,gnd*%
X176900000Y-26987500D03*
D17*
%TO.P,SW1,MP*%
%TO.N,N/C*%
X184400000Y-32587500D03*
X184400000Y-21387500D03*
D16*
%TO.P,SW1,S1,S1*%
%TO.N,c9*%
X191400000Y-29487500D03*
%TO.P,SW1,S2,S2*%
%TO.N,Net-(D1-Pad2)*%
X191400000Y-24487500D03*
%TD*%
D14*
%TO.P,SW29,1,A*%
%TO.N,Net-(D29-Pad2)*%
X142815000Y-107632500D03*
%TO.P,SW29,2,B*%
%TO.N,c7*%
X128965000Y-110172500D03*
%TD*%
%TO.P,SW21,1,A*%
%TO.N,Net-(D21-Pad2)*%
X180915000Y-88582500D03*
%TO.P,SW21,2,B*%
%TO.N,c9*%
X167065000Y-91122500D03*
%TD*%
%TO.P,SW5,1,A*%
%TO.N,Net-(D5-Pad2)*%
X66615000Y-69532500D03*
%TO.P,SW5,2,B*%
%TO.N,c3*%
X52765000Y-72072500D03*
%TD*%
%TO.P,SW41,1,A*%
%TO.N,Net-(D41-Pad2)*%
X180915000Y-126682500D03*
%TO.P,SW41,2,B*%
%TO.N,c9*%
X167065000Y-129222500D03*
%TD*%
%TO.P,SW3,1,A*%
%TO.N,Net-(D3-Pad2)*%
X28515000Y-69532500D03*
%TO.P,SW3,2,B*%
%TO.N,c1*%
X14665000Y-72072500D03*
%TD*%
%TO.P,SW42,1,A*%
%TO.N,Net-(D42-Pad2)*%
X199965000Y-126682500D03*
%TO.P,SW42,2,B*%
%TO.N,c10*%
X186115000Y-129222500D03*
%TD*%
%TO.P,SW34,1,A*%
%TO.N,Net-(D34-Pad2)*%
X47565000Y-126682500D03*
%TO.P,SW34,2,B*%
%TO.N,c2*%
X33715000Y-129222500D03*
%TD*%
%TO.P,SW10,1,A*%
%TO.N,Net-(D10-Pad2)*%
X161865000Y-69532500D03*
%TO.P,SW10,2,B*%
%TO.N,c8*%
X148015000Y-72072500D03*
%TD*%
%TO.P,SW30,1,A*%
%TO.N,Net-(D30-Pad2)*%
X161865000Y-107632500D03*
%TO.P,SW30,2,B*%
%TO.N,c8*%
X148015000Y-110172500D03*
%TD*%
%TO.P,SW36,1,A*%
%TO.N,Net-(D36-Pad2)*%
X85665000Y-126682500D03*
%TO.P,SW36,2,B*%
%TO.N,c4*%
X71815000Y-129222500D03*
%TD*%
%TO.P,SW4,1,A*%
%TO.N,Net-(D4-Pad2)*%
X47565000Y-69532500D03*
%TO.P,SW4,2,B*%
%TO.N,c2*%
X33715000Y-72072500D03*
%TD*%
%TO.P,SW31,1,A*%
%TO.N,Net-(D31-Pad2)*%
X180915000Y-107632500D03*
%TO.P,SW31,2,B*%
%TO.N,c9*%
X167065000Y-110172500D03*
%TD*%
%TO.P,SW16,1,A*%
%TO.N,Net-(D16-Pad2)*%
X85665000Y-88582500D03*
%TO.P,SW16,2,B*%
%TO.N,c4*%
X71815000Y-91122500D03*
%TD*%
%TO.P,SW33,1,A*%
%TO.N,Net-(D33-Pad2)*%
X28515000Y-126682500D03*
%TO.P,SW33,2,B*%
%TO.N,c1*%
X14665000Y-129222500D03*
%TD*%
%TO.P,SW7,1,A*%
%TO.N,Net-(D7-Pad2)*%
X104715000Y-69532500D03*
%TO.P,SW7,2,B*%
%TO.N,c5*%
X90865000Y-72072500D03*
%TD*%
%TO.P,SW44,1,A*%
%TO.N,Net-(D37-Pad2)*%
X101660000Y-136842500D03*
%TO.P,SW44,2,B*%
%TO.N,c5*%
X115510000Y-134302500D03*
%TD*%
D15*
%TO.P,SW2,A,A*%
%TO.N,a2*%
X176900000Y-48300000D03*
D16*
%TO.P,SW2,B,B*%
%TO.N,b2*%
X176900000Y-53300000D03*
%TO.P,SW2,C,C*%
%TO.N,gnd*%
X176900000Y-50800000D03*
D17*
%TO.P,SW2,MP*%
%TO.N,N/C*%
X184400000Y-56400000D03*
X184400000Y-45200000D03*
D16*
%TO.P,SW2,S1,S1*%
%TO.N,c10*%
X191400000Y-53300000D03*
%TO.P,SW2,S2,S2*%
%TO.N,Net-(D2-Pad2)*%
X191400000Y-48300000D03*
%TD*%
D14*
%TO.P,SW37,1,A*%
%TO.N,Net-(D37-Pad2)*%
X104715000Y-126682500D03*
%TO.P,SW37,2,B*%
%TO.N,c5*%
X90865000Y-129222500D03*
%TD*%
%TO.P,SW27,1,A*%
%TO.N,Net-(D27-Pad2)*%
X104715000Y-107632500D03*
%TO.P,SW27,2,B*%
%TO.N,c5*%
X90865000Y-110172500D03*
%TD*%
%TO.P,SW11,1,A*%
%TO.N,Net-(D11-Pad2)*%
X180915000Y-69532500D03*
%TO.P,SW11,2,B*%
%TO.N,c9*%
X167065000Y-72072500D03*
%TD*%
%TO.P,SW20,1,A*%
%TO.N,Net-(D20-Pad2)*%
X161865000Y-88582500D03*
%TO.P,SW20,2,B*%
%TO.N,c8*%
X148015000Y-91122500D03*
%TD*%
%TO.P,SW15,1,A*%
%TO.N,Net-(D15-Pad2)*%
X66615000Y-88582500D03*
%TO.P,SW15,2,B*%
%TO.N,c3*%
X52765000Y-91122500D03*
%TD*%
%TO.P,SW38,1,A*%
%TO.N,Net-(D38-Pad2)*%
X123765000Y-126682500D03*
%TO.P,SW38,2,B*%
%TO.N,c6*%
X109915000Y-129222500D03*
%TD*%
%TO.P,SW39,1,A*%
%TO.N,Net-(D39-Pad2)*%
X142815000Y-126682500D03*
%TO.P,SW39,2,B*%
%TO.N,c7*%
X128965000Y-129222500D03*
%TD*%
%TO.P,SW19,1,A*%
%TO.N,Net-(D19-Pad2)*%
X142815000Y-88582500D03*
%TO.P,SW19,2,B*%
%TO.N,c7*%
X128965000Y-91122500D03*
%TD*%
%TO.P,SW6,1,A*%
%TO.N,Net-(D6-Pad2)*%
X85665000Y-69532500D03*
%TO.P,SW6,2,B*%
%TO.N,c4*%
X71815000Y-72072500D03*
%TD*%
%TO.P,SW13,1,A*%
%TO.N,Net-(D13-Pad2)*%
X28515000Y-88582500D03*
%TO.P,SW13,2,B*%
%TO.N,c1*%
X14665000Y-91122500D03*
%TD*%
%TO.P,SW28,1,A*%
%TO.N,Net-(D28-Pad2)*%
X123765000Y-107632500D03*
%TO.P,SW28,2,B*%
%TO.N,c6*%
X109915000Y-110172500D03*
%TD*%
%TO.P,SW25,1,A*%
%TO.N,Net-(D25-Pad2)*%
X66615000Y-107632500D03*
%TO.P,SW25,2,B*%
%TO.N,c3*%
X52765000Y-110172500D03*
%TD*%
%TO.P,SW40,1,A*%
%TO.N,Net-(D40-Pad2)*%
X161865000Y-126682500D03*
%TO.P,SW40,2,B*%
%TO.N,c8*%
X148015000Y-129222500D03*
%TD*%
%TO.P,SW17,1,A*%
%TO.N,Net-(D17-Pad2)*%
X104715000Y-88582500D03*
%TO.P,SW17,2,B*%
%TO.N,c5*%
X90865000Y-91122500D03*
%TD*%
%TO.P,SW23,1,A*%
%TO.N,Net-(D23-Pad2)*%
X28515000Y-107632500D03*
%TO.P,SW23,2,B*%
%TO.N,c1*%
X14665000Y-110172500D03*
%TD*%
%TO.P,SW14,1,A*%
%TO.N,Net-(D14-Pad2)*%
X47565000Y-88582500D03*
%TO.P,SW14,2,B*%
%TO.N,c2*%
X33715000Y-91122500D03*
%TD*%
%TO.P,SW12,1,A*%
%TO.N,Net-(D12-Pad2)*%
X199965000Y-69532500D03*
%TO.P,SW12,2,B*%
%TO.N,c10*%
X186115000Y-72072500D03*
%TD*%
D18*
%TO.P,U3,1,GPIO0*%
%TO.N,c1*%
X15557500Y-30003750D03*
D19*
X15557500Y-29103750D03*
%TO.P,U3,2,GPIO1*%
%TO.N,c2*%
X18097500Y-29103750D03*
D18*
X18097500Y-30003750D03*
D20*
%TO.P,U3,3,GND*%
%TO.N,unconnected-(U3-Pad3)*%
X20637500Y-30003750D03*
D19*
X20637500Y-29103750D03*
%TO.P,U3,4,GPIO2*%
%TO.N,c3*%
X23177500Y-29103750D03*
D18*
X23177500Y-30003750D03*
D19*
%TO.P,U3,5,GPIO3*%
%TO.N,c4*%
X25717500Y-29103750D03*
D18*
X25717500Y-30003750D03*
%TO.P,U3,6,GPIO4*%
%TO.N,c5*%
X28257500Y-30003750D03*
D19*
X28257500Y-29103750D03*
%TO.P,U3,7,GPIO5*%
%TO.N,c6*%
X30797500Y-29103750D03*
D18*
X30797500Y-30003750D03*
D19*
%TO.P,U3,8,GND*%
%TO.N,unconnected-(U3-Pad8)*%
X33337500Y-29103750D03*
D20*
X33337500Y-30003750D03*
D19*
%TO.P,U3,9,GPIO6*%
%TO.N,c7*%
X35877500Y-29103750D03*
D18*
X35877500Y-30003750D03*
%TO.P,U3,10,GPIO7*%
%TO.N,c8*%
X38417500Y-30003750D03*
D19*
X38417500Y-29103750D03*
D18*
%TO.P,U3,11,GPIO8*%
%TO.N,c9*%
X40957500Y-30003750D03*
D19*
X40957500Y-29103750D03*
D18*
%TO.P,U3,12,GPIO9*%
%TO.N,c10*%
X43497500Y-30003750D03*
D19*
X43497500Y-29103750D03*
%TO.P,U3,13,GND*%
%TO.N,unconnected-(U3-Pad13)*%
X46037500Y-29103750D03*
D20*
X46037500Y-30003750D03*
D19*
%TO.P,U3,14,GPIO10*%
%TO.N,a1*%
X48577500Y-29103750D03*
D18*
X48577500Y-30003750D03*
D19*
%TO.P,U3,15,GPIO11*%
%TO.N,b1*%
X51117500Y-29103750D03*
D18*
X51117500Y-30003750D03*
D19*
%TO.P,U3,16,GPIO12*%
%TO.N,a2*%
X53657500Y-29103750D03*
D18*
X53657500Y-30003750D03*
%TO.P,U3,17,GPIO13*%
%TO.N,b2*%
X56197500Y-30003750D03*
D19*
X56197500Y-29103750D03*
D20*
%TO.P,U3,18,GND*%
%TO.N,gnd*%
X58737500Y-30003750D03*
D19*
X58737500Y-29103750D03*
%TO.P,U3,19,GPIO14*%
%TO.N,cs2*%
X61277500Y-29103750D03*
D18*
X61277500Y-30003750D03*
D19*
%TO.P,U3,20,GPIO15*%
%TO.N,cs1*%
X63817500Y-29103750D03*
D18*
X63817500Y-30003750D03*
D19*
%TO.P,U3,21,GPIO16*%
%TO.N,res*%
X63817500Y-48683750D03*
D18*
X63817500Y-47783750D03*
%TO.P,U3,22,GPIO17*%
%TO.N,dc*%
X61277500Y-47783750D03*
D19*
X61277500Y-48683750D03*
%TO.P,U3,23,GND*%
%TO.N,gnd*%
X58737500Y-48683750D03*
D20*
X58737500Y-47783750D03*
D19*
%TO.P,U3,24,GPIO18*%
%TO.N,sclk*%
X56197500Y-48683750D03*
D18*
X56197500Y-47783750D03*
%TO.P,U3,25,GPIO19*%
%TO.N,sda*%
X53657500Y-47783750D03*
D19*
X53657500Y-48683750D03*
D18*
%TO.P,U3,26,GPIO20*%
%TO.N,unconnected-(U3-Pad26)*%
X51117500Y-47783750D03*
D19*
X51117500Y-48683750D03*
D18*
%TO.P,U3,27,GPIO21*%
%TO.N,r1*%
X48577500Y-47783750D03*
D19*
X48577500Y-48683750D03*
%TO.P,U3,28,GND*%
%TO.N,unconnected-(U3-Pad28)*%
X46037500Y-48683750D03*
D20*
X46037500Y-47783750D03*
D19*
%TO.P,U3,29,GPIO22*%
%TO.N,r2*%
X43497500Y-48683750D03*
D18*
X43497500Y-47783750D03*
D19*
%TO.P,U3,30,RUN*%
%TO.N,unconnected-(U3-Pad30)*%
X40957500Y-48683750D03*
D18*
X40957500Y-47783750D03*
D19*
%TO.P,U3,31,GPIO26_ADC0*%
%TO.N,r3*%
X38417500Y-48683750D03*
D18*
X38417500Y-47783750D03*
%TO.P,U3,32,GPIO27_ADC1*%
%TO.N,r4*%
X35877500Y-47783750D03*
D19*
X35877500Y-48683750D03*
D20*
%TO.P,U3,33,AGND*%
%TO.N,unconnected-(U3-Pad33)*%
X33337500Y-47783750D03*
D19*
X33337500Y-48683750D03*
D18*
%TO.P,U3,34,GPIO28_ADC2*%
%TO.N,r5*%
X30797500Y-47783750D03*
D19*
X30797500Y-48683750D03*
D18*
%TO.P,U3,35,ADC_VREF*%
%TO.N,unconnected-(U3-Pad35)*%
X28257500Y-47783750D03*
D19*
X28257500Y-48683750D03*
D18*
%TO.P,U3,36,3V3*%
%TO.N,3v3*%
X25717500Y-47783750D03*
D19*
X25717500Y-48683750D03*
D18*
%TO.P,U3,37,3V3_EN*%
%TO.N,unconnected-(U3-Pad37)*%
X23177500Y-47783750D03*
D19*
X23177500Y-48683750D03*
D20*
%TO.P,U3,38,GND*%
%TO.N,unconnected-(U3-Pad38)*%
X20637500Y-47783750D03*
D19*
X20637500Y-48683750D03*
%TO.P,U3,39,VSYS*%
%TO.N,unconnected-(U3-Pad39)*%
X18097500Y-48683750D03*
D18*
X18097500Y-47783750D03*
%TO.P,U3,40,VBUS*%
%TO.N,unconnected-(U3-Pad40)*%
X15557500Y-47783750D03*
D19*
X15557500Y-48683750D03*
D18*
%TO.P,U3,41,SWCLK*%
%TO.N,unconnected-(U3-Pad41)*%
X63587500Y-36353750D03*
D21*
X64487500Y-36353750D03*
D20*
%TO.P,U3,42,GND*%
%TO.N,unconnected-(U3-Pad42)*%
X63587500Y-38893750D03*
D21*
X64487500Y-38893750D03*
D18*
%TO.P,U3,43,SWDIO*%
%TO.N,unconnected-(U3-Pad43)*%
X63587500Y-41433750D03*
D21*
X64487500Y-41433750D03*
%TD*%
D22*
%TO.N,cs2*%
X161131250Y-45243750D03*
X161131250Y-28575000D03*
%TO.N,cs1*%
X88900000Y-44450000D03*
%TO.N,gnd*%
X173831250Y-28575000D03*
%TO.N,cs1*%
X88900000Y-30956250D03*
%TO.N,res*%
X85725000Y-39687500D03*
%TO.N,dc*%
X84931250Y-42068750D03*
%TO.N,sclk*%
X84137500Y-34925000D03*
%TO.N,3v3*%
X82550000Y-32543750D03*
%TO.N,gnd*%
X87312500Y-26987500D03*
%TO.N,r1*%
X194468750Y-50800000D03*
X192881250Y-54768750D03*
X49212500Y-54768750D03*
X194468750Y-32543750D03*
%TO.N,r2*%
X24606250Y-78581250D03*
X152400000Y-78581250D03*
X76200000Y-78581250D03*
X133350000Y-78581250D03*
X81756250Y-78581250D03*
X57150000Y-78581250D03*
X119856250Y-78581250D03*
X177006250Y-78581250D03*
X190500000Y-78581250D03*
X114300000Y-78581250D03*
X43656250Y-78581250D03*
X62706250Y-78581250D03*
X157956250Y-78581250D03*
X100806250Y-78581250D03*
X171450000Y-78581250D03*
X138906250Y-78581250D03*
X95250000Y-78581250D03*
X38100000Y-78581250D03*
%TO.N,r3*%
X157956250Y-97631250D03*
X95250000Y-97631250D03*
X152400000Y-97631250D03*
X138906250Y-97631250D03*
X57150000Y-97631250D03*
X76200000Y-97631250D03*
X133350000Y-97631250D03*
X119856250Y-97631250D03*
X114300000Y-97631250D03*
X190500000Y-97631250D03*
X177006250Y-97631250D03*
X81756250Y-97631250D03*
X171450000Y-97631250D03*
X100806250Y-97631250D03*
X43656250Y-97631250D03*
X24606250Y-97631250D03*
X62706250Y-97631250D03*
X38100000Y-97631250D03*
%TO.N,r4*%
X177006250Y-116681250D03*
X76200000Y-116681250D03*
X119856250Y-116681250D03*
X81756250Y-116681250D03*
X190500000Y-116681250D03*
X171450000Y-116681250D03*
X57150000Y-116681250D03*
X34925000Y-116681250D03*
X100806250Y-116681250D03*
X43656250Y-116681250D03*
X38100000Y-116681250D03*
X138906250Y-116681250D03*
X133350000Y-116681250D03*
X24606250Y-116681250D03*
X62706250Y-116681250D03*
X114300000Y-116681250D03*
X95250000Y-116681250D03*
X152400000Y-116681250D03*
X157956250Y-116681250D03*
%TO.N,r5*%
X89693750Y-135731250D03*
X152400000Y-135731250D03*
X76200000Y-135731250D03*
X62706250Y-135731250D03*
X30162500Y-135731250D03*
X57150000Y-135731250D03*
X171450000Y-135731250D03*
X157956250Y-135731250D03*
X81756250Y-135731250D03*
X122237500Y-135731250D03*
X116681250Y-136152002D03*
X43656250Y-135731250D03*
X190500000Y-135731250D03*
X38100000Y-135731250D03*
X24606250Y-135731250D03*
X138906250Y-135731250D03*
X95250000Y-135731250D03*
X133350000Y-135731250D03*
X177006250Y-135731250D03*
%TO.N,a1*%
X50006250Y-23812500D03*
%TO.N,b1*%
X171450000Y-29368750D03*
X51593750Y-24606250D03*
X171450000Y-24606250D03*
%TO.N,gnd*%
X173831250Y-50800000D03*
X173831250Y-26987500D03*
%TO.N,c9*%
X189706250Y-19843750D03*
X190500000Y-65881250D03*
X167481250Y-65881250D03*
X42068750Y-19843750D03*
%TO.N,a2*%
X170656250Y-25400000D03*
X170656250Y-48418750D03*
X53975000Y-25400000D03*
%TO.N,b2*%
X169068750Y-53181250D03*
X56356250Y-26193750D03*
X169862500Y-26193750D03*
%TO.N,c10*%
X191293750Y-66675000D03*
X172243750Y-51593750D03*
X45243750Y-51593750D03*
X188912500Y-46831250D03*
X186531250Y-66675000D03*
X188912500Y-53181250D03*
X172243750Y-46037500D03*
%TO.N,c2*%
X33337500Y-54768750D03*
X19843750Y-54768750D03*
%TO.N,c3*%
X52387500Y-60325000D03*
X24606250Y-60325000D03*
%TO.N,c4*%
X26987500Y-59531250D03*
X71437500Y-59560261D03*
%TO.N,c5*%
X30162500Y-58737500D03*
X96724215Y-128395596D03*
X90487500Y-58737500D03*
X115761456Y-128435499D03*
%TO.N,c6*%
X109537500Y-55349011D03*
X32543750Y-55562500D03*
%TO.N,c7*%
X128587500Y-53181250D03*
X37306250Y-53181250D03*
%TO.N,c8*%
X39687500Y-52387500D03*
X147637500Y-52387500D03*
%TO.N,3v3*%
X26193750Y-44450000D03*
X82550000Y-44435739D03*
%TO.N,sclk*%
X84137500Y-45884739D03*
%TO.N,sda*%
X83343750Y-37306250D03*
X83343750Y-45160239D03*
%TO.N,res*%
X85725000Y-47625000D03*
%TO.N,dc*%
X84931250Y-46831250D03*
%TD*%
D23*
%TO.N,cs2*%
X161131250Y-28575000D02*
X161131250Y-45243750D01*
%TO.N,cs1*%
X88900000Y-30956250D02*
X88900000Y-44450000D01*
%TO.N,gnd*%
X173831250Y-44450000D02*
X173831250Y-28575000D01*
X173831250Y-28575000D02*
X173831250Y-26987500D01*
%TO.N,res*%
X85725000Y-47625000D02*
X85725000Y-39687500D01*
%TO.N,dc*%
X84931250Y-46831250D02*
X84931250Y-42068750D01*
%TO.N,sclk*%
X84137500Y-45884739D02*
X84137500Y-34925000D01*
%TO.N,3v3*%
X82550000Y-44435739D02*
X82550000Y-32543750D01*
%TO.N,gnd*%
X87312500Y-26987500D02*
X87086250Y-27213750D01*
X87086250Y-27213750D02*
X87086250Y-29591250D01*
%TO.N,r1*%
X194468750Y-50800000D02*
X194468750Y-53550000D01*
X48577500Y-54133750D02*
X49212500Y-54768750D01*
X192881250Y-54768750D02*
X193250000Y-54768750D01*
X194468750Y-29737500D02*
X194468750Y-32543750D01*
X48577500Y-47783750D02*
X48577500Y-54133750D01*
X193250000Y-54768750D02*
X194468750Y-53550000D01*
%TO.N,Net-(D1-Pad2)*%
X194468750Y-24237500D02*
X191650000Y-24237500D01*
X191650000Y-24237500D02*
X191400000Y-24487500D01*
%TO.N,Net-(D2-Pad2)*%
X194468750Y-48050000D02*
X191650000Y-48050000D01*
X191650000Y-48050000D02*
X191400000Y-48300000D01*
%TO.N,r2*%
X98056250Y-78581250D02*
X95250000Y-78581250D01*
X157956250Y-78581250D02*
X155206250Y-78581250D01*
X45689521Y-73372979D02*
X43656250Y-75406250D01*
X43656250Y-75406250D02*
X43656250Y-78581250D01*
X136156250Y-78581250D02*
X133350000Y-78581250D01*
X62706250Y-78581250D02*
X59956250Y-78581250D01*
X81756250Y-78581250D02*
X79006250Y-78581250D01*
X117106250Y-78581250D02*
X114300000Y-78581250D01*
X43497500Y-66564026D02*
X45689521Y-68756047D01*
X193306250Y-78581250D02*
X190500000Y-78581250D01*
X43497500Y-47783750D02*
X43497500Y-66564026D01*
X45689521Y-68756047D02*
X45689521Y-73372979D01*
X59956250Y-78581250D02*
X57150000Y-78581250D01*
X174256250Y-78581250D02*
X171450000Y-78581250D01*
X79006250Y-78581250D02*
X76200000Y-78581250D01*
X100806250Y-78581250D02*
X98056250Y-78581250D01*
X138906250Y-78581250D02*
X136156250Y-78581250D01*
X40906250Y-78581250D02*
X38100000Y-78581250D01*
X24606250Y-78581250D02*
X21856250Y-78581250D01*
X177006250Y-78581250D02*
X174256250Y-78581250D01*
X43656250Y-78581250D02*
X40906250Y-78581250D01*
X119856250Y-78581250D02*
X117106250Y-78581250D01*
X155206250Y-78581250D02*
X152400000Y-78581250D01*
%TO.N,Net-(D3-Pad2)*%
X28530421Y-69547921D02*
X28530421Y-77407079D01*
X28530421Y-77407079D02*
X27356250Y-78581250D01*
X28515000Y-69532500D02*
X28530421Y-69547921D01*
%TO.N,Net-(D4-Pad2)*%
X47565000Y-69532500D02*
X47580421Y-69547921D01*
X47580421Y-69547921D02*
X47580421Y-77407079D01*
X47580421Y-77407079D02*
X46406250Y-78581250D01*
%TO.N,Net-(D5-Pad2)*%
X66630421Y-69547921D02*
X66630421Y-77407079D01*
X66630421Y-77407079D02*
X65456250Y-78581250D01*
X66615000Y-69532500D02*
X66630421Y-69547921D01*
%TO.N,Net-(D6-Pad2)*%
X85665000Y-69532500D02*
X85680421Y-69547921D01*
X85680421Y-77407079D02*
X84506250Y-78581250D01*
X85680421Y-69547921D02*
X85680421Y-77407079D01*
%TO.N,Net-(D7-Pad2)*%
X104715000Y-69532500D02*
X104730421Y-69547921D01*
X104730421Y-77407079D02*
X103556250Y-78581250D01*
X104730421Y-69547921D02*
X104730421Y-77407079D01*
%TO.N,Net-(D8-Pad2)*%
X123780421Y-69547921D02*
X123780421Y-77407079D01*
X123780421Y-77407079D02*
X122606250Y-78581250D01*
X123765000Y-69532500D02*
X123780421Y-69547921D01*
%TO.N,Net-(D9-Pad2)*%
X142830421Y-77407079D02*
X141656250Y-78581250D01*
X142815000Y-69532500D02*
X142830421Y-69547921D01*
X142830421Y-69547921D02*
X142830421Y-77407079D01*
%TO.N,Net-(D10-Pad2)*%
X161880421Y-77407079D02*
X160706250Y-78581250D01*
X161865000Y-69532500D02*
X161880421Y-69547921D01*
X161880421Y-69547921D02*
X161880421Y-77407079D01*
%TO.N,Net-(D11-Pad2)*%
X180930421Y-69547921D02*
X180930421Y-77407079D01*
X180915000Y-69532500D02*
X180930421Y-69547921D01*
X180930421Y-77407079D02*
X179756250Y-78581250D01*
%TO.N,Net-(D12-Pad2)*%
X199980421Y-77407079D02*
X198806250Y-78581250D01*
X199980421Y-69547921D02*
X199980421Y-77407079D01*
X199965000Y-69532500D02*
X199980421Y-69547921D01*
%TO.N,r3*%
X21856250Y-97631250D02*
X24606250Y-97631250D01*
X117106250Y-97631250D02*
X119856250Y-97631250D01*
X152400000Y-97631250D02*
X155206250Y-97631250D01*
X76200000Y-97631250D02*
X79006250Y-97631250D01*
X39600273Y-90606799D02*
X39600273Y-91987773D01*
X59956250Y-97631250D02*
X62706250Y-97631250D01*
X136156250Y-97631250D02*
X138906250Y-97631250D01*
X40906250Y-97631250D02*
X43656250Y-97631250D01*
X133350000Y-97631250D02*
X136156250Y-97631250D01*
X190500000Y-97631250D02*
X193306250Y-97631250D01*
X39339521Y-71296047D02*
X39339521Y-73198525D01*
X155206250Y-97631250D02*
X157956250Y-97631250D01*
X171450000Y-97631250D02*
X174256250Y-97631250D01*
X79006250Y-97631250D02*
X81756250Y-97631250D01*
X38417500Y-47783750D02*
X38417500Y-70374026D01*
X98056250Y-97631250D02*
X100806250Y-97631250D01*
X38100000Y-93488046D02*
X38100000Y-97631250D01*
X95250000Y-97631250D02*
X98056250Y-97631250D01*
X39339521Y-73198525D02*
X37306250Y-75231796D01*
X37306250Y-75231796D02*
X37306250Y-88312776D01*
X38417500Y-70374026D02*
X39339521Y-71296047D01*
X174256250Y-97631250D02*
X177006250Y-97631250D01*
X114300000Y-97631250D02*
X117106250Y-97631250D01*
X38100000Y-97631250D02*
X40906250Y-97631250D01*
X57150000Y-97631250D02*
X59956250Y-97631250D01*
X37306250Y-88312776D02*
X39600273Y-90606799D01*
X39600273Y-91987773D02*
X38100000Y-93488046D01*
%TO.N,Net-(D13-Pad2)*%
X28530421Y-88597921D02*
X28530421Y-96457079D01*
X28530421Y-96457079D02*
X27356250Y-97631250D01*
X28515000Y-88582500D02*
X28530421Y-88597921D01*
%TO.N,Net-(D14-Pad2)*%
X47580421Y-88597921D02*
X47580421Y-96457079D01*
X47565000Y-88582500D02*
X47580421Y-88597921D01*
X47580421Y-96457079D02*
X46406250Y-97631250D01*
%TO.N,Net-(D15-Pad2)*%
X66630421Y-96457079D02*
X65456250Y-97631250D01*
X66615000Y-88582500D02*
X66630421Y-88597921D01*
X66630421Y-88597921D02*
X66630421Y-96457079D01*
%TO.N,Net-(D16-Pad2)*%
X85665000Y-88582500D02*
X85680421Y-88597921D01*
X85680421Y-88597921D02*
X85680421Y-96457079D01*
X85680421Y-96457079D02*
X84506250Y-97631250D01*
%TO.N,Net-(D17-Pad2)*%
X104715000Y-88582500D02*
X104730421Y-88597921D01*
X104730421Y-96457079D02*
X103556250Y-97631250D01*
X104730421Y-88597921D02*
X104730421Y-96457079D01*
%TO.N,Net-(D18-Pad2)*%
X123765000Y-88582500D02*
X123780421Y-88597921D01*
X123780421Y-88597921D02*
X123780421Y-96457079D01*
X123780421Y-96457079D02*
X122606250Y-97631250D01*
%TO.N,Net-(D19-Pad2)*%
X142830421Y-88597921D02*
X142830421Y-96457079D01*
X142815000Y-88582500D02*
X142830421Y-88597921D01*
X142830421Y-96457079D02*
X141656250Y-97631250D01*
%TO.N,Net-(D20-Pad2)*%
X161865000Y-88582500D02*
X161880421Y-88597921D01*
X161880421Y-96457079D02*
X160706250Y-97631250D01*
X161880421Y-88597921D02*
X161880421Y-96457079D01*
%TO.N,Net-(D21-Pad2)*%
X180930421Y-88597921D02*
X180930421Y-96457079D01*
X180915000Y-88582500D02*
X180930421Y-88597921D01*
X180930421Y-96457079D02*
X179756250Y-97631250D01*
%TO.N,Net-(D22-Pad2)*%
X199965000Y-88582500D02*
X199980421Y-88597921D01*
X199980421Y-88597921D02*
X199980421Y-96457079D01*
X199980421Y-96457079D02*
X198806250Y-97631250D01*
%TO.N,r4*%
X133350000Y-116681250D02*
X136156250Y-116681250D01*
X35590479Y-111584013D02*
X34925000Y-112249492D01*
X59956250Y-116681250D02*
X62706250Y-116681250D01*
X117106250Y-116681250D02*
X119856250Y-116681250D01*
X34925000Y-108208478D02*
X35590479Y-108873957D01*
X190500000Y-116681250D02*
X193306250Y-116681250D01*
X171450000Y-116681250D02*
X174256250Y-116681250D01*
X174256250Y-116681250D02*
X177006250Y-116681250D01*
X34969579Y-75120087D02*
X35590479Y-75740987D01*
X79006250Y-116681250D02*
X81756250Y-116681250D01*
X35590479Y-92534013D02*
X34925000Y-93199492D01*
X98056250Y-116681250D02*
X100806250Y-116681250D01*
X40906250Y-116681250D02*
X43656250Y-116681250D01*
X95250000Y-116681250D02*
X98056250Y-116681250D01*
X34925000Y-93199492D02*
X34925000Y-108208478D01*
X57150000Y-116681250D02*
X59956250Y-116681250D01*
X35590479Y-108873957D02*
X35590479Y-111584013D01*
X76200000Y-116681250D02*
X79006250Y-116681250D01*
X35590479Y-75740987D02*
X35590479Y-92534013D01*
X114300000Y-116681250D02*
X117106250Y-116681250D01*
X35877500Y-47783750D02*
X35590479Y-48070771D01*
X21856250Y-116681250D02*
X24606250Y-116681250D01*
X34969579Y-74043895D02*
X34969579Y-75120087D01*
X35590479Y-73422995D02*
X34969579Y-74043895D01*
X38100000Y-116681250D02*
X40906250Y-116681250D01*
X152400000Y-116681250D02*
X155206250Y-116681250D01*
X136156250Y-116681250D02*
X138906250Y-116681250D01*
X34925000Y-112249492D02*
X34925000Y-116681250D01*
X155206250Y-116681250D02*
X157956250Y-116681250D01*
X35590479Y-48070771D02*
X35590479Y-73422995D01*
%TO.N,Net-(D23-Pad2)*%
X28515000Y-107632500D02*
X28530421Y-107647921D01*
X28530421Y-115507079D02*
X27356250Y-116681250D01*
X28530421Y-107647921D02*
X28530421Y-115507079D01*
%TO.N,Net-(D24-Pad2)*%
X47565000Y-107632500D02*
X47580421Y-107647921D01*
X47580421Y-107647921D02*
X47580421Y-115507079D01*
X47580421Y-115507079D02*
X46406250Y-116681250D01*
%TO.N,Net-(D25-Pad2)*%
X66615000Y-107632500D02*
X66630421Y-107647921D01*
X66630421Y-107647921D02*
X66630421Y-115507079D01*
X66630421Y-115507079D02*
X65456250Y-116681250D01*
%TO.N,Net-(D26-Pad2)*%
X85680421Y-107647921D02*
X85680421Y-115507079D01*
X85665000Y-107632500D02*
X85680421Y-107647921D01*
X85680421Y-115507079D02*
X84506250Y-116681250D01*
%TO.N,Net-(D27-Pad2)*%
X104730421Y-115507079D02*
X103556250Y-116681250D01*
X104730421Y-107647921D02*
X104730421Y-115507079D01*
X104715000Y-107632500D02*
X104730421Y-107647921D01*
%TO.N,Net-(D28-Pad2)*%
X123765000Y-107632500D02*
X123780421Y-107647921D01*
X123780421Y-107647921D02*
X123780421Y-115507079D01*
X123780421Y-115507079D02*
X122606250Y-116681250D01*
%TO.N,Net-(D29-Pad2)*%
X142815000Y-107632500D02*
X142830421Y-107647921D01*
X142830421Y-107647921D02*
X142830421Y-115507079D01*
X142830421Y-115507079D02*
X141656250Y-116681250D01*
%TO.N,Net-(D30-Pad2)*%
X161880421Y-107647921D02*
X161880421Y-115507079D01*
X161880421Y-115507079D02*
X160706250Y-116681250D01*
X161865000Y-107632500D02*
X161880421Y-107647921D01*
%TO.N,Net-(D31-Pad2)*%
X180915000Y-107632500D02*
X180930421Y-107647921D01*
X180930421Y-115507079D02*
X179756250Y-116681250D01*
X180930421Y-107647921D02*
X180930421Y-115507079D01*
%TO.N,Net-(D32-Pad2)*%
X199965000Y-107632500D02*
X199980421Y-107647921D01*
X199980421Y-107647921D02*
X199980421Y-115507079D01*
X199980421Y-115507079D02*
X198806250Y-116681250D01*
%TO.N,r5*%
X136156250Y-135731250D02*
X138906250Y-135731250D01*
X30162500Y-70643750D02*
X30162500Y-135731250D01*
X190500000Y-135731250D02*
X193306250Y-135731250D01*
X119487500Y-135731250D02*
X122237500Y-135731250D01*
X30887011Y-47873261D02*
X30887011Y-69919239D01*
X117102002Y-135731250D02*
X119487500Y-135731250D01*
X152400000Y-135731250D02*
X155206250Y-135731250D01*
X76200000Y-135731250D02*
X79006250Y-135731250D01*
X171450000Y-135731250D02*
X174256250Y-135731250D01*
X92500000Y-135731250D02*
X95250000Y-135731250D01*
X89693750Y-135731250D02*
X92500000Y-135731250D01*
X30887011Y-69919239D02*
X30162500Y-70643750D01*
X30797500Y-47783750D02*
X30887011Y-47873261D01*
X57150000Y-135731250D02*
X59956250Y-135731250D01*
X79006250Y-135731250D02*
X81756250Y-135731250D01*
X116681250Y-136152002D02*
X117102002Y-135731250D01*
X38100000Y-135731250D02*
X40906250Y-135731250D01*
X59956250Y-135731250D02*
X62706250Y-135731250D01*
X174256250Y-135731250D02*
X177006250Y-135731250D01*
X40906250Y-135731250D02*
X43656250Y-135731250D01*
X133350000Y-135731250D02*
X136156250Y-135731250D01*
X24606250Y-135731250D02*
X21856250Y-135731250D01*
X155206250Y-135731250D02*
X157956250Y-135731250D01*
%TO.N,Net-(D33-Pad2)*%
X28530421Y-126697921D02*
X28530421Y-134557079D01*
X28515000Y-126682500D02*
X28530421Y-126697921D01*
X28530421Y-134557079D02*
X27356250Y-135731250D01*
%TO.N,Net-(D34-Pad2)*%
X47580421Y-126697921D02*
X47580421Y-134557079D01*
X47580421Y-134557079D02*
X46406250Y-135731250D01*
X47565000Y-126682500D02*
X47580421Y-126697921D01*
%TO.N,Net-(D35-Pad2)*%
X66630421Y-134557079D02*
X65456250Y-135731250D01*
X66630421Y-126697921D02*
X66630421Y-134557079D01*
X66615000Y-126682500D02*
X66630421Y-126697921D01*
%TO.N,Net-(D36-Pad2)*%
X85680421Y-134557079D02*
X84506250Y-135731250D01*
X85665000Y-126682500D02*
X85680421Y-126697921D01*
X85680421Y-126697921D02*
X85680421Y-134557079D01*
%TO.N,Net-(D37-Pad2)*%
X99111250Y-136842500D02*
X98000000Y-135731250D01*
X104715000Y-126682500D02*
X104730421Y-126697921D01*
X104730421Y-133772079D02*
X101660000Y-136842500D01*
X104730421Y-126697921D02*
X104730421Y-133772079D01*
X101660000Y-136842500D02*
X99111250Y-136842500D01*
%TO.N,Net-(D38-Pad2)*%
X123765000Y-126682500D02*
X124987500Y-127905000D01*
X124987500Y-127905000D02*
X124987500Y-135731250D01*
%TO.N,Net-(D39-Pad2)*%
X142830421Y-126697921D02*
X142830421Y-134557079D01*
X142815000Y-126682500D02*
X142830421Y-126697921D01*
X142830421Y-134557079D02*
X141656250Y-135731250D01*
%TO.N,Net-(D40-Pad2)*%
X161880421Y-134557079D02*
X160706250Y-135731250D01*
X161865000Y-126682500D02*
X161880421Y-126697921D01*
X161880421Y-126697921D02*
X161880421Y-134557079D01*
%TO.N,Net-(D41-Pad2)*%
X180930421Y-134557079D02*
X179756250Y-135731250D01*
X180930421Y-126697921D02*
X180930421Y-134557079D01*
X180915000Y-126682500D02*
X180930421Y-126697921D01*
%TO.N,Net-(D42-Pad2)*%
X199980421Y-134557079D02*
X198806250Y-135731250D01*
X199965000Y-126682500D02*
X199980421Y-126697921D01*
X199980421Y-126697921D02*
X199980421Y-134557079D01*
%TO.N,a1*%
X48577500Y-30003750D02*
X48577500Y-25241250D01*
X48577500Y-25241250D02*
X50006250Y-23812500D01*
%TO.N,b1*%
X171450000Y-24606250D02*
X171450000Y-29368750D01*
X51117500Y-25082500D02*
X51593750Y-24606250D01*
X51117500Y-30003750D02*
X51117500Y-25082500D01*
%TO.N,gnd*%
X173831250Y-44450000D02*
X173831250Y-50800000D01*
X58737500Y-30003750D02*
X58737500Y-47783750D01*
%TO.N,c9*%
X190075489Y-30812011D02*
X191400000Y-29487500D01*
X189706250Y-27793750D02*
X191400000Y-29487500D01*
X190075489Y-65456739D02*
X190075489Y-30812011D01*
X167065000Y-72072500D02*
X167065000Y-129222500D01*
X190500000Y-65881250D02*
X190075489Y-65456739D01*
X167065000Y-72072500D02*
X167065000Y-66297500D01*
X40957500Y-30003750D02*
X42068750Y-28892500D01*
X167065000Y-66297500D02*
X167481250Y-65881250D01*
X189706250Y-19843750D02*
X189706250Y-27793750D01*
X42068750Y-28892500D02*
X42068750Y-19843750D01*
%TO.N,a2*%
X53657500Y-30003750D02*
X53657500Y-25717500D01*
X170656250Y-25400000D02*
X170656250Y-48418750D01*
X53657500Y-25717500D02*
X53975000Y-25400000D01*
%TO.N,b2*%
X169862500Y-26193750D02*
X168940479Y-27115771D01*
X168940479Y-27115771D02*
X168940479Y-53052979D01*
X56197500Y-26352500D02*
X56356250Y-26193750D01*
X168940479Y-53052979D02*
X169068750Y-53181250D01*
X56197500Y-30003750D02*
X56197500Y-26352500D01*
%TO.N,c10*%
X186115000Y-129222500D02*
X186115000Y-72072500D01*
X191293750Y-66675000D02*
X191400000Y-66568750D01*
X44862989Y-51212989D02*
X45243750Y-51593750D01*
X191400000Y-66568750D02*
X191400000Y-53300000D01*
X186115000Y-72072500D02*
X186115000Y-67091250D01*
X172243750Y-51593750D02*
X172243750Y-46037500D01*
X188912500Y-46831250D02*
X188912500Y-53181250D01*
X186115000Y-67091250D02*
X186531250Y-66675000D01*
X43497500Y-30003750D02*
X44862989Y-31369239D01*
X44862989Y-31369239D02*
X44862989Y-51212989D01*
%TO.N,c1*%
X14382989Y-71790489D02*
X14665000Y-72072500D01*
X15557500Y-30003750D02*
X14382989Y-31178261D01*
X14382989Y-31178261D02*
X14382989Y-71790489D01*
X14665000Y-91122500D02*
X14665000Y-129222500D01*
X14665000Y-72072500D02*
X14665000Y-91122500D01*
%TO.N,c2*%
X18097500Y-30003750D02*
X19843750Y-31750000D01*
X19843750Y-46228478D02*
X19462989Y-46609239D01*
X19843750Y-31750000D02*
X19843750Y-46228478D01*
X33337500Y-54768750D02*
X33715000Y-55146250D01*
X19462989Y-54387989D02*
X19843750Y-54768750D01*
X33715000Y-72072500D02*
X33715000Y-129222500D01*
X33715000Y-55146250D02*
X33715000Y-72072500D01*
X19462989Y-46609239D02*
X19462989Y-54387989D01*
%TO.N,c3*%
X24542989Y-31369239D02*
X24542989Y-60261739D01*
X52765000Y-60702500D02*
X52765000Y-72072500D01*
X23177500Y-30003750D02*
X24542989Y-31369239D01*
X52765000Y-72072500D02*
X52765000Y-129222500D01*
X24542989Y-60261739D02*
X24606250Y-60325000D01*
X52387500Y-60325000D02*
X52765000Y-60702500D01*
%TO.N,c4*%
X26987500Y-31273750D02*
X26987500Y-57150000D01*
X71437500Y-59560261D02*
X71815000Y-59937761D01*
X71815000Y-59937761D02*
X71815000Y-72072500D01*
X25717500Y-30003750D02*
X26987500Y-31273750D01*
X26987500Y-57150000D02*
X26987500Y-59531250D01*
X71815000Y-72072500D02*
X71815000Y-129222500D01*
%TO.N,c5*%
X115761456Y-128435499D02*
X115761456Y-130126590D01*
X90865000Y-59115000D02*
X90865000Y-72072500D01*
X90487500Y-58737500D02*
X90865000Y-59115000D01*
X28257500Y-30003750D02*
X29622989Y-31369239D01*
X29622989Y-56102011D02*
X29622989Y-58197989D01*
X115761456Y-130126590D02*
X115093750Y-130794296D01*
X29622989Y-31369239D02*
X29622989Y-56102011D01*
X29622989Y-58197989D02*
X30162500Y-58737500D01*
X90865000Y-129222500D02*
X92739521Y-127347979D01*
X90865000Y-72072500D02*
X90865000Y-129222500D01*
X95676598Y-127347979D02*
X96724215Y-128395596D01*
X115093750Y-133886250D02*
X115510000Y-134302500D01*
X115093750Y-130794296D02*
X115093750Y-133886250D01*
X92739521Y-127347979D02*
X95676598Y-127347979D01*
%TO.N,c6*%
X32162989Y-31369239D02*
X32162989Y-55181739D01*
X109537500Y-55349011D02*
X109915000Y-55726511D01*
X109915000Y-72072500D02*
X109915000Y-129222500D01*
X109915000Y-55726511D02*
X109915000Y-72072500D01*
X32162989Y-55181739D02*
X32543750Y-55562500D01*
X30797500Y-30003750D02*
X32162989Y-31369239D01*
%TO.N,c7*%
X37052011Y-52927011D02*
X37306250Y-53181250D01*
X128587500Y-53181250D02*
X128965000Y-53558750D01*
X128965000Y-72072500D02*
X128965000Y-129222500D01*
X35877500Y-30003750D02*
X37052011Y-31178261D01*
X128965000Y-53558750D02*
X128965000Y-72072500D01*
X37052011Y-31178261D02*
X37052011Y-52927011D01*
%TO.N,c8*%
X148015000Y-72072500D02*
X148015000Y-129222500D01*
X38417500Y-30003750D02*
X39687500Y-31273750D01*
X148015000Y-52765000D02*
X148015000Y-72072500D01*
X39687500Y-31273750D02*
X39687500Y-52387500D01*
X147637500Y-52387500D02*
X148015000Y-52765000D01*
%TO.N,3v3*%
X25717500Y-44926250D02*
X26193750Y-44450000D01*
X25717500Y-47783750D02*
X25717500Y-44926250D01*
%TO.N,sda*%
X83343750Y-45160239D02*
X83343750Y-37306250D01*
%TD*%
M02*
