%TF.GenerationSoftware,KiCad,Pcbnew,(6.0.4-0)*%
%TF.CreationDate,2022-09-25T09:44:29-05:00*%
%TF.ProjectId,mekko5X,6d656b6b-6f35-4582-9e6b-696361645f70,rev?*%
%TF.SameCoordinates,Original*%
%TF.FileFunction,Soldermask,Bot*%
%TF.FilePolarity,Negative*%
%FSLAX46Y46*%
G04 Gerber Fmt 4.6, Leading zero omitted, Abs format (unit mm)*
G04 Created by KiCad (PCBNEW (6.0.4-0)) date 2022-09-25 09:44:29*
%MOMM*%
%LPD*%
G01*
G04 APERTURE LIST*
%ADD10R,3.300000X1.700000*%
%ADD11R,1.700000X3.300000*%
%ADD12C,3.100000*%
%ADD13C,1.700000*%
%ADD14C,3.987800*%
%ADD15C,1.701800*%
%ADD16C,3.000000*%
%ADD17R,2.550000X2.500000*%
%ADD18R,2.000000X2.000000*%
%ADD19C,2.000000*%
%ADD20R,3.200000X2.000000*%
%ADD21C,3.048000*%
%ADD22O,1.800000X1.800000*%
%ADD23O,1.500000X1.500000*%
%ADD24O,1.700000X1.700000*%
%ADD25R,1.700000X3.500000*%
%ADD26R,1.700000X1.700000*%
%ADD27R,3.500000X1.700000*%
%ADD28C,2.200000*%
G04 APERTURE END LIST*
D10*
%TO.C,D42*%
X193306250Y-135731250D03*
X198806250Y-135731250D03*
%TD*%
%TO.C,D41*%
X174256250Y-135731250D03*
X179756250Y-135731250D03*
%TD*%
%TO.C,D40*%
X155206250Y-135731250D03*
X160706250Y-135731250D03*
%TD*%
%TO.C,D39*%
X136156250Y-135731250D03*
X141656250Y-135731250D03*
%TD*%
%TO.C,D38*%
X119487500Y-135731250D03*
X124987500Y-135731250D03*
%TD*%
%TO.C,D37*%
X92500000Y-135731250D03*
X98000000Y-135731250D03*
%TD*%
%TO.C,D36*%
X79006250Y-135731250D03*
X84506250Y-135731250D03*
%TD*%
%TO.C,D35*%
X59956250Y-135731250D03*
X65456250Y-135731250D03*
%TD*%
%TO.C,D34*%
X40906250Y-135731250D03*
X46406250Y-135731250D03*
%TD*%
%TO.C,D33*%
X21856250Y-135731250D03*
X27356250Y-135731250D03*
%TD*%
%TO.C,D32*%
X193306250Y-116681250D03*
X198806250Y-116681250D03*
%TD*%
%TO.C,D31*%
X174256250Y-116681250D03*
X179756250Y-116681250D03*
%TD*%
%TO.C,D30*%
X155206250Y-116681250D03*
X160706250Y-116681250D03*
%TD*%
%TO.C,D29*%
X136156250Y-116681250D03*
X141656250Y-116681250D03*
%TD*%
%TO.C,D28*%
X117106250Y-116681250D03*
X122606250Y-116681250D03*
%TD*%
%TO.C,D27*%
X98056250Y-116681250D03*
X103556250Y-116681250D03*
%TD*%
%TO.C,D26*%
X79006250Y-116681250D03*
X84506250Y-116681250D03*
%TD*%
%TO.C,D25*%
X59956250Y-116681250D03*
X65456250Y-116681250D03*
%TD*%
%TO.C,D24*%
X40906250Y-116681250D03*
X46406250Y-116681250D03*
%TD*%
%TO.C,D23*%
X21856250Y-116681250D03*
X27356250Y-116681250D03*
%TD*%
%TO.C,D22*%
X193306250Y-97631250D03*
X198806250Y-97631250D03*
%TD*%
%TO.C,D21*%
X174256250Y-97631250D03*
X179756250Y-97631250D03*
%TD*%
%TO.C,D20*%
X155206250Y-97631250D03*
X160706250Y-97631250D03*
%TD*%
%TO.C,D19*%
X136156250Y-97631250D03*
X141656250Y-97631250D03*
%TD*%
%TO.C,D18*%
X117106250Y-97631250D03*
X122606250Y-97631250D03*
%TD*%
%TO.C,D17*%
X98056250Y-97631250D03*
X103556250Y-97631250D03*
%TD*%
%TO.C,D16*%
X79006250Y-97631250D03*
X84506250Y-97631250D03*
%TD*%
%TO.C,D15*%
X59956250Y-97631250D03*
X65456250Y-97631250D03*
%TD*%
%TO.C,D14*%
X40906250Y-97631250D03*
X46406250Y-97631250D03*
%TD*%
%TO.C,D13*%
X21856250Y-97631250D03*
X27356250Y-97631250D03*
%TD*%
%TO.C,D12*%
X193306250Y-78581250D03*
X198806250Y-78581250D03*
%TD*%
%TO.C,D11*%
X174256250Y-78581250D03*
X179756250Y-78581250D03*
%TD*%
%TO.C,D10*%
X155206250Y-78581250D03*
X160706250Y-78581250D03*
%TD*%
%TO.C,D9*%
X136156250Y-78581250D03*
X141656250Y-78581250D03*
%TD*%
%TO.C,D8*%
X117106250Y-78581250D03*
X122606250Y-78581250D03*
%TD*%
%TO.C,D7*%
X98056250Y-78581250D03*
X103556250Y-78581250D03*
%TD*%
%TO.C,D6*%
X79006250Y-78581250D03*
X84506250Y-78581250D03*
%TD*%
%TO.C,D5*%
X59956250Y-78581250D03*
X65456250Y-78581250D03*
%TD*%
%TO.C,D4*%
X40906250Y-78581250D03*
X46406250Y-78581250D03*
%TD*%
%TO.C,D3*%
X21856250Y-78581250D03*
X27356250Y-78581250D03*
%TD*%
D11*
%TO.C,D2*%
X194468750Y-53550000D03*
X194468750Y-48050000D03*
%TD*%
%TO.C,D1*%
X194468750Y-29737500D03*
X194468750Y-24237500D03*
%TD*%
D12*
%TO.C,U2*%
X161992500Y-17461250D03*
X94992500Y-17461250D03*
X161992500Y-56961250D03*
X94992500Y-56961250D03*
D13*
X162492500Y-29591250D03*
X162492500Y-32131250D03*
X162492500Y-34671250D03*
X162492500Y-37211250D03*
X162492500Y-39751250D03*
X162492500Y-42291250D03*
X162492500Y-44831250D03*
%TD*%
D12*
%TO.C,U1*%
X86586250Y-17461250D03*
X19586250Y-17461250D03*
X86586250Y-56961250D03*
X19586250Y-56961250D03*
D13*
X87086250Y-29591250D03*
X87086250Y-32131250D03*
X87086250Y-34671250D03*
X87086250Y-37211250D03*
X87086250Y-39751250D03*
X87086250Y-42291250D03*
X87086250Y-44831250D03*
%TD*%
D14*
%TO.C,SW35*%
X60325000Y-131762500D03*
D15*
X55245000Y-131762500D03*
D16*
X62865000Y-126682500D03*
D15*
X65405000Y-131762500D03*
D16*
X56515000Y-129222500D03*
D17*
X66615000Y-126682500D03*
X52765000Y-129222500D03*
%TD*%
D15*
%TO.C,SW26*%
X84455000Y-112712500D03*
D16*
X75565000Y-110172500D03*
X81915000Y-107632500D03*
D14*
X79375000Y-112712500D03*
D15*
X74295000Y-112712500D03*
D17*
X85665000Y-107632500D03*
X71815000Y-110172500D03*
%TD*%
D16*
%TO.C,SW24*%
X43815000Y-107632500D03*
D14*
X41275000Y-112712500D03*
D15*
X46355000Y-112712500D03*
D16*
X37465000Y-110172500D03*
D15*
X36195000Y-112712500D03*
D17*
X47565000Y-107632500D03*
X33715000Y-110172500D03*
%TD*%
D14*
%TO.C,SW22*%
X193675000Y-93662500D03*
D16*
X189865000Y-91122500D03*
X196215000Y-88582500D03*
D15*
X188595000Y-93662500D03*
X198755000Y-93662500D03*
D17*
X199965000Y-88582500D03*
X186115000Y-91122500D03*
%TD*%
D14*
%TO.C,SW9*%
X136525000Y-74612500D03*
D15*
X131445000Y-74612500D03*
X141605000Y-74612500D03*
D16*
X139065000Y-69532500D03*
X132715000Y-72072500D03*
D17*
X142815000Y-69532500D03*
X128965000Y-72072500D03*
%TD*%
D15*
%TO.C,SW18*%
X122555000Y-93662500D03*
D16*
X113665000Y-91122500D03*
D15*
X112395000Y-93662500D03*
D16*
X120015000Y-88582500D03*
D14*
X117475000Y-93662500D03*
D17*
X123765000Y-88582500D03*
X109915000Y-91122500D03*
%TD*%
D14*
%TO.C,SW8*%
X117475000Y-74612500D03*
D16*
X120015000Y-69532500D03*
D15*
X122555000Y-74612500D03*
X112395000Y-74612500D03*
D16*
X113665000Y-72072500D03*
D17*
X123765000Y-69532500D03*
X109915000Y-72072500D03*
%TD*%
D16*
%TO.C,SW32*%
X196215000Y-107632500D03*
X189865000Y-110172500D03*
D14*
X193675000Y-112712500D03*
D15*
X188595000Y-112712500D03*
X198755000Y-112712500D03*
D17*
X199965000Y-107632500D03*
X186115000Y-110172500D03*
%TD*%
D18*
%TO.C,SW1*%
X176900000Y-24487500D03*
D19*
X176900000Y-29487500D03*
X176900000Y-26987500D03*
D20*
X184400000Y-32587500D03*
X184400000Y-21387500D03*
D19*
X191400000Y-29487500D03*
X191400000Y-24487500D03*
%TD*%
D15*
%TO.C,SW29*%
X131445000Y-112712500D03*
D14*
X136525000Y-112712500D03*
D16*
X132715000Y-110172500D03*
X139065000Y-107632500D03*
D15*
X141605000Y-112712500D03*
D17*
X142815000Y-107632500D03*
X128965000Y-110172500D03*
%TD*%
D15*
%TO.C,SW21*%
X179705000Y-93662500D03*
D14*
X174625000Y-93662500D03*
D15*
X169545000Y-93662500D03*
D16*
X170815000Y-91122500D03*
X177165000Y-88582500D03*
D17*
X180915000Y-88582500D03*
X167065000Y-91122500D03*
%TD*%
D15*
%TO.C,SW5*%
X65405000Y-74612500D03*
X55245000Y-74612500D03*
D16*
X56515000Y-72072500D03*
D14*
X60325000Y-74612500D03*
D16*
X62865000Y-69532500D03*
D17*
X66615000Y-69532500D03*
X52765000Y-72072500D03*
%TD*%
D14*
%TO.C,REF\u002A\u002A*%
X119850000Y-123507500D03*
D21*
X119850000Y-138747500D03*
X96050000Y-138747500D03*
D14*
X96050000Y-123507500D03*
%TD*%
%TO.C,SW41*%
X174625000Y-131762500D03*
D16*
X170815000Y-129222500D03*
X177165000Y-126682500D03*
D15*
X169545000Y-131762500D03*
X179705000Y-131762500D03*
D17*
X180915000Y-126682500D03*
X167065000Y-129222500D03*
%TD*%
D14*
%TO.C,SW3*%
X22225000Y-74612500D03*
D15*
X17145000Y-74612500D03*
D16*
X18415000Y-72072500D03*
D15*
X27305000Y-74612500D03*
D16*
X24765000Y-69532500D03*
D17*
X28515000Y-69532500D03*
X14665000Y-72072500D03*
%TD*%
D16*
%TO.C,SW42*%
X196215000Y-126682500D03*
D14*
X193675000Y-131762500D03*
D15*
X198755000Y-131762500D03*
X188595000Y-131762500D03*
D16*
X189865000Y-129222500D03*
D17*
X199965000Y-126682500D03*
X186115000Y-129222500D03*
%TD*%
D16*
%TO.C,SW34*%
X37465000Y-129222500D03*
D14*
X41275000Y-131762500D03*
D16*
X43815000Y-126682500D03*
D15*
X36195000Y-131762500D03*
X46355000Y-131762500D03*
D17*
X47565000Y-126682500D03*
X33715000Y-129222500D03*
%TD*%
D16*
%TO.C,SW10*%
X151765000Y-72072500D03*
D15*
X150495000Y-74612500D03*
D16*
X158115000Y-69532500D03*
D14*
X155575000Y-74612500D03*
D15*
X160655000Y-74612500D03*
D17*
X161865000Y-69532500D03*
X148015000Y-72072500D03*
%TD*%
D15*
%TO.C,SW30*%
X160655000Y-112712500D03*
D14*
X155575000Y-112712500D03*
D15*
X150495000Y-112712500D03*
D16*
X158115000Y-107632500D03*
X151765000Y-110172500D03*
D17*
X161865000Y-107632500D03*
X148015000Y-110172500D03*
%TD*%
D15*
%TO.C,SW36*%
X74295000Y-131762500D03*
D16*
X81915000Y-126682500D03*
D15*
X84455000Y-131762500D03*
D16*
X75565000Y-129222500D03*
D14*
X79375000Y-131762500D03*
D17*
X85665000Y-126682500D03*
X71815000Y-129222500D03*
%TD*%
D15*
%TO.C,SW4*%
X36195000Y-74612500D03*
D14*
X41275000Y-74612500D03*
D16*
X37465000Y-72072500D03*
X43815000Y-69532500D03*
D15*
X46355000Y-74612500D03*
D17*
X47565000Y-69532500D03*
X33715000Y-72072500D03*
%TD*%
D14*
%TO.C,SW31*%
X174625000Y-112712500D03*
D16*
X170815000Y-110172500D03*
D15*
X169545000Y-112712500D03*
D16*
X177165000Y-107632500D03*
D15*
X179705000Y-112712500D03*
D17*
X180915000Y-107632500D03*
X167065000Y-110172500D03*
%TD*%
D16*
%TO.C,SW16*%
X75565000Y-91122500D03*
D15*
X74295000Y-93662500D03*
X84455000Y-93662500D03*
D16*
X81915000Y-88582500D03*
D14*
X79375000Y-93662500D03*
D17*
X85665000Y-88582500D03*
X71815000Y-91122500D03*
%TD*%
D16*
%TO.C,SW33*%
X18415000Y-129222500D03*
X24765000Y-126682500D03*
D15*
X17145000Y-131762500D03*
D14*
X22225000Y-131762500D03*
D15*
X27305000Y-131762500D03*
D17*
X28515000Y-126682500D03*
X14665000Y-129222500D03*
%TD*%
D14*
%TO.C,SW7*%
X98425000Y-74612500D03*
D16*
X100965000Y-69532500D03*
D15*
X103505000Y-74612500D03*
X93345000Y-74612500D03*
D16*
X94615000Y-72072500D03*
D17*
X104715000Y-69532500D03*
X90865000Y-72072500D03*
%TD*%
D16*
%TO.C,SW44*%
X111760000Y-134302500D03*
X105410000Y-136842500D03*
D14*
X107950000Y-131762500D03*
D15*
X102870000Y-131762500D03*
X113030000Y-131762500D03*
D17*
X101660000Y-136842500D03*
X115510000Y-134302500D03*
%TD*%
D18*
%TO.C,SW2*%
X176900000Y-48300000D03*
D19*
X176900000Y-53300000D03*
X176900000Y-50800000D03*
D20*
X184400000Y-56400000D03*
X184400000Y-45200000D03*
D19*
X191400000Y-53300000D03*
X191400000Y-48300000D03*
%TD*%
D16*
%TO.C,SW37*%
X94615000Y-129222500D03*
X100965000Y-126682500D03*
D15*
X93345000Y-131762500D03*
X103505000Y-131762500D03*
D14*
X98425000Y-131762500D03*
D17*
X104715000Y-126682500D03*
X90865000Y-129222500D03*
%TD*%
D15*
%TO.C,SW27*%
X103505000Y-112712500D03*
D16*
X94615000Y-110172500D03*
X100965000Y-107632500D03*
D15*
X93345000Y-112712500D03*
D14*
X98425000Y-112712500D03*
D17*
X104715000Y-107632500D03*
X90865000Y-110172500D03*
%TD*%
D15*
%TO.C,SW11*%
X169545000Y-74612500D03*
D16*
X170815000Y-72072500D03*
D15*
X179705000Y-74612500D03*
D16*
X177165000Y-69532500D03*
D14*
X174625000Y-74612500D03*
D17*
X180915000Y-69532500D03*
X167065000Y-72072500D03*
%TD*%
D15*
%TO.C,SW20*%
X160655000Y-93662500D03*
D14*
X155575000Y-93662500D03*
D16*
X151765000Y-91122500D03*
X158115000Y-88582500D03*
D15*
X150495000Y-93662500D03*
D17*
X161865000Y-88582500D03*
X148015000Y-91122500D03*
%TD*%
D16*
%TO.C,SW15*%
X56515000Y-91122500D03*
D15*
X65405000Y-93662500D03*
D14*
X60325000Y-93662500D03*
D16*
X62865000Y-88582500D03*
D15*
X55245000Y-93662500D03*
D17*
X66615000Y-88582500D03*
X52765000Y-91122500D03*
%TD*%
D16*
%TO.C,SW38*%
X120015000Y-126682500D03*
D14*
X117475000Y-131762500D03*
D16*
X113665000Y-129222500D03*
D15*
X112395000Y-131762500D03*
X122555000Y-131762500D03*
D17*
X123765000Y-126682500D03*
X109915000Y-129222500D03*
%TD*%
D16*
%TO.C,SW39*%
X132715000Y-129222500D03*
X139065000Y-126682500D03*
D15*
X141605000Y-131762500D03*
D14*
X136525000Y-131762500D03*
D15*
X131445000Y-131762500D03*
D17*
X142815000Y-126682500D03*
X128965000Y-129222500D03*
%TD*%
D16*
%TO.C,SW19*%
X132715000Y-91122500D03*
D15*
X131445000Y-93662500D03*
X141605000Y-93662500D03*
D14*
X136525000Y-93662500D03*
D16*
X139065000Y-88582500D03*
D17*
X142815000Y-88582500D03*
X128965000Y-91122500D03*
%TD*%
D16*
%TO.C,SW6*%
X75565000Y-72072500D03*
D15*
X74295000Y-74612500D03*
D14*
X79375000Y-74612500D03*
D16*
X81915000Y-69532500D03*
D15*
X84455000Y-74612500D03*
D17*
X85665000Y-69532500D03*
X71815000Y-72072500D03*
%TD*%
D16*
%TO.C,SW13*%
X24765000Y-88582500D03*
D14*
X22225000Y-93662500D03*
D15*
X27305000Y-93662500D03*
X17145000Y-93662500D03*
D16*
X18415000Y-91122500D03*
D17*
X28515000Y-88582500D03*
X14665000Y-91122500D03*
%TD*%
D16*
%TO.C,SW28*%
X113665000Y-110172500D03*
D14*
X117475000Y-112712500D03*
D16*
X120015000Y-107632500D03*
D15*
X112395000Y-112712500D03*
X122555000Y-112712500D03*
D17*
X123765000Y-107632500D03*
X109915000Y-110172500D03*
%TD*%
D16*
%TO.C,SW25*%
X56515000Y-110172500D03*
D15*
X65405000Y-112712500D03*
D16*
X62865000Y-107632500D03*
D15*
X55245000Y-112712500D03*
D14*
X60325000Y-112712500D03*
D17*
X66615000Y-107632500D03*
X52765000Y-110172500D03*
%TD*%
D16*
%TO.C,SW40*%
X151765000Y-129222500D03*
D14*
X155575000Y-131762500D03*
D15*
X160655000Y-131762500D03*
X150495000Y-131762500D03*
D16*
X158115000Y-126682500D03*
D17*
X161865000Y-126682500D03*
X148015000Y-129222500D03*
%TD*%
D15*
%TO.C,SW17*%
X93345000Y-93662500D03*
D16*
X94615000Y-91122500D03*
D15*
X103505000Y-93662500D03*
D16*
X100965000Y-88582500D03*
D14*
X98425000Y-93662500D03*
D17*
X104715000Y-88582500D03*
X90865000Y-91122500D03*
%TD*%
D15*
%TO.C,SW23*%
X27305000Y-112712500D03*
X17145000Y-112712500D03*
D16*
X18415000Y-110172500D03*
D14*
X22225000Y-112712500D03*
D16*
X24765000Y-107632500D03*
D17*
X28515000Y-107632500D03*
X14665000Y-110172500D03*
%TD*%
D14*
%TO.C,SW14*%
X41275000Y-93662500D03*
D15*
X36195000Y-93662500D03*
D16*
X43815000Y-88582500D03*
D15*
X46355000Y-93662500D03*
D16*
X37465000Y-91122500D03*
D17*
X47565000Y-88582500D03*
X33715000Y-91122500D03*
%TD*%
D15*
%TO.C,SW12*%
X198755000Y-74612500D03*
D16*
X189865000Y-72072500D03*
D15*
X188595000Y-74612500D03*
D14*
X193675000Y-74612500D03*
D16*
X196215000Y-69532500D03*
D17*
X199965000Y-69532500D03*
X186115000Y-72072500D03*
%TD*%
D22*
%TO.C,U3*%
X15687500Y-36168750D03*
D23*
X18717500Y-41318750D03*
X18717500Y-36468750D03*
D22*
X15687500Y-41618750D03*
D24*
X15557500Y-30003750D03*
D25*
X15557500Y-29103750D03*
X18097500Y-29103750D03*
D24*
X18097500Y-30003750D03*
D26*
X20637500Y-30003750D03*
D25*
X20637500Y-29103750D03*
X23177500Y-29103750D03*
D24*
X23177500Y-30003750D03*
D25*
X25717500Y-29103750D03*
D24*
X25717500Y-30003750D03*
X28257500Y-30003750D03*
D25*
X28257500Y-29103750D03*
X30797500Y-29103750D03*
D24*
X30797500Y-30003750D03*
D25*
X33337500Y-29103750D03*
D26*
X33337500Y-30003750D03*
D25*
X35877500Y-29103750D03*
D24*
X35877500Y-30003750D03*
X38417500Y-30003750D03*
D25*
X38417500Y-29103750D03*
D24*
X40957500Y-30003750D03*
D25*
X40957500Y-29103750D03*
D24*
X43497500Y-30003750D03*
D25*
X43497500Y-29103750D03*
X46037500Y-29103750D03*
D26*
X46037500Y-30003750D03*
D25*
X48577500Y-29103750D03*
D24*
X48577500Y-30003750D03*
D25*
X51117500Y-29103750D03*
D24*
X51117500Y-30003750D03*
D25*
X53657500Y-29103750D03*
D24*
X53657500Y-30003750D03*
X56197500Y-30003750D03*
D25*
X56197500Y-29103750D03*
D26*
X58737500Y-30003750D03*
D25*
X58737500Y-29103750D03*
X61277500Y-29103750D03*
D24*
X61277500Y-30003750D03*
D25*
X63817500Y-29103750D03*
D24*
X63817500Y-30003750D03*
D25*
X63817500Y-48683750D03*
D24*
X63817500Y-47783750D03*
X61277500Y-47783750D03*
D25*
X61277500Y-48683750D03*
X58737500Y-48683750D03*
D26*
X58737500Y-47783750D03*
D25*
X56197500Y-48683750D03*
D24*
X56197500Y-47783750D03*
X53657500Y-47783750D03*
D25*
X53657500Y-48683750D03*
D24*
X51117500Y-47783750D03*
D25*
X51117500Y-48683750D03*
D24*
X48577500Y-47783750D03*
D25*
X48577500Y-48683750D03*
X46037500Y-48683750D03*
D26*
X46037500Y-47783750D03*
D25*
X43497500Y-48683750D03*
D24*
X43497500Y-47783750D03*
D25*
X40957500Y-48683750D03*
D24*
X40957500Y-47783750D03*
D25*
X38417500Y-48683750D03*
D24*
X38417500Y-47783750D03*
X35877500Y-47783750D03*
D25*
X35877500Y-48683750D03*
D26*
X33337500Y-47783750D03*
D25*
X33337500Y-48683750D03*
D24*
X30797500Y-47783750D03*
D25*
X30797500Y-48683750D03*
D24*
X28257500Y-47783750D03*
D25*
X28257500Y-48683750D03*
D24*
X25717500Y-47783750D03*
D25*
X25717500Y-48683750D03*
D24*
X23177500Y-47783750D03*
D25*
X23177500Y-48683750D03*
D26*
X20637500Y-47783750D03*
D25*
X20637500Y-48683750D03*
X18097500Y-48683750D03*
D24*
X18097500Y-47783750D03*
X15557500Y-47783750D03*
D25*
X15557500Y-48683750D03*
D24*
X63587500Y-36353750D03*
D27*
X64487500Y-36353750D03*
D26*
X63587500Y-38893750D03*
D27*
X64487500Y-38893750D03*
D24*
X63587500Y-41433750D03*
D27*
X64487500Y-41433750D03*
%TD*%
D28*
%TO.C,H1*%
X199231250Y-13493750D03*
%TD*%
%TO.C,H2*%
X16668750Y-13493750D03*
%TD*%
%TO.C,H3*%
X199231250Y-61912500D03*
%TD*%
%TO.C,H9*%
X31750000Y-122237500D03*
%TD*%
%TO.C,H4*%
X16668750Y-61912500D03*
%TD*%
%TO.C,H8*%
X184150000Y-122237500D03*
%TD*%
%TO.C,H5*%
X107950000Y-103187500D03*
%TD*%
%TO.C,H7*%
X31750000Y-84137500D03*
%TD*%
%TO.C,H6*%
X184150000Y-84137500D03*
%TD*%
M02*
