M48
METRIC,TZ
T1C0.400
T2C1.000
T3C1.020
T4C1.500
T5C2.900
%
G90
G05
T1
X19844Y-54769
X24606Y-60325
X24606Y-78581
X24606Y-97631
X24606Y-116681
X24606Y-135731
X26194Y-44450
X26988Y-59531
X30163Y-58738
X30163Y-135731
X32544Y-55563
X33338Y-54769
X34925Y-116681
X37306Y-53181
X38100Y-78581
X38100Y-97631
X38100Y-116681
X38100Y-135731
X39688Y-52388
X42069Y-19844
X43656Y-78581
X43656Y-97631
X43656Y-116681
X43656Y-135731
X45244Y-51594
X49213Y-54769
X50006Y-23813
X51594Y-24606
X52388Y-60325
X53975Y-25400
X56356Y-26194
X57150Y-78581
X57150Y-97631
X57150Y-116681
X57150Y-135731
X62706Y-78581
X62706Y-97631
X62706Y-116681
X62706Y-135731
X71438Y-59560
X76200Y-78581
X76200Y-97631
X76200Y-116681
X76200Y-135731
X81756Y-78581
X81756Y-97631
X81756Y-116681
X81756Y-135731
X82550Y-32544
X82550Y-44436
X83344Y-37306
X83344Y-45160
X84138Y-34925
X84138Y-45885
X84931Y-42069
X84931Y-46831
X85725Y-39688
X85725Y-47625
X87313Y-26988
X88900Y-30956
X88900Y-44450
X89694Y-135731
X90488Y-58738
X95250Y-78581
X95250Y-97631
X95250Y-116681
X95250Y-135731
X96724Y-128396
X100806Y-78581
X100806Y-97631
X100806Y-116681
X109538Y-55349
X114300Y-78581
X114300Y-97631
X114300Y-116681
X115761Y-128435
X116681Y-136152
X119856Y-78581
X119856Y-97631
X119856Y-116681
X122238Y-135731
X128588Y-53181
X133350Y-78581
X133350Y-97631
X133350Y-116681
X133350Y-135731
X138906Y-78581
X138906Y-97631
X138906Y-116681
X138906Y-135731
X147638Y-52388
X152400Y-78581
X152400Y-97631
X152400Y-116681
X152400Y-135731
X157956Y-78581
X157956Y-97631
X157956Y-116681
X157956Y-135731
X161131Y-28575
X161131Y-45244
X167481Y-65881
X169069Y-53181
X169862Y-26194
X170656Y-25400
X170656Y-48419
X171450Y-24606
X171450Y-29369
X171450Y-78581
X171450Y-97631
X171450Y-116681
X171450Y-135731
X172244Y-46038
X172244Y-51594
X173831Y-26988
X173831Y-28575
X173831Y-50800
X177006Y-78581
X177006Y-97631
X177006Y-116681
X177006Y-135731
X186531Y-66675
X188913Y-46831
X188913Y-53181
X189706Y-19844
X190500Y-65881
X190500Y-78581
X190500Y-97631
X190500Y-116681
X190500Y-135731
X191294Y-66675
X192881Y-54769
X194469Y-32544
X194469Y-50800
T2
X87086Y-29591
X87086Y-32131
X87086Y-34671
X87086Y-37211
X87086Y-39751
X87086Y-42291
X87086Y-44831
X162493Y-29591
X162493Y-32131
X162493Y-34671
X162493Y-37211
X162493Y-39751
X162493Y-42291
X162493Y-44831
X176900Y-24487
X176900Y-26988
X176900Y-29488
X176900Y-48300
X176900Y-50800
X176900Y-53300
X191400Y-24487
X191400Y-29488
X191400Y-48300
X191400Y-53300
T3
X15558Y-30004
X15558Y-47784
X18098Y-30004
X18098Y-47784
X20638Y-30004
X20638Y-47784
X23178Y-30004
X23178Y-47784
X25717Y-30004
X25717Y-47784
X28258Y-30004
X28258Y-47784
X30798Y-30004
X30798Y-47784
X33338Y-30004
X33338Y-47784
X35878Y-30004
X35878Y-47784
X38417Y-30004
X38417Y-47784
X40957Y-30004
X40957Y-47784
X43498Y-30004
X43498Y-47784
X46038Y-30004
X46038Y-47784
X48578Y-30004
X48578Y-47784
X51118Y-30004
X51118Y-47784
X53658Y-30004
X53658Y-47784
X56198Y-30004
X56198Y-47784
X58738Y-30004
X58738Y-47784
X61278Y-30004
X61278Y-47784
X63588Y-36354
X63588Y-38894
X63588Y-41434
X63818Y-30004
X63818Y-47784
T5
X19586Y-17461
X19586Y-56961
X86586Y-17461
X86586Y-56961
X94993Y-17461
X94993Y-56961
X161993Y-17461
X161993Y-56961
T4
X183750Y-21388G85X185050Y-21388
G05
X183750Y-32588G85X185050Y-32588
G05
X183750Y-45200G85X185050Y-45200
G05
X183750Y-56400G85X185050Y-56400
G05
T0
M30
