M48
METRIC,TZ
T1C1.500
T2C1.702
T3C1.800
T4C2.200
T5C3.000
T6C3.048
T7C3.988
%
G90
G05
T1
X18717Y-36469
X18717Y-41319
T2
X17145Y-74613
X17145Y-93663
X17145Y-112713
X17145Y-131763
X27305Y-74613
X27305Y-93663
X27305Y-112713
X27305Y-131763
X36195Y-74613
X36195Y-93663
X36195Y-112713
X36195Y-131763
X46355Y-74613
X46355Y-93663
X46355Y-112713
X46355Y-131763
X55245Y-74613
X55245Y-93663
X55245Y-112713
X55245Y-131763
X65405Y-74613
X65405Y-93663
X65405Y-112713
X65405Y-131763
X74295Y-74613
X74295Y-93663
X74295Y-112713
X74295Y-131763
X84455Y-74613
X84455Y-93663
X84455Y-112713
X84455Y-131763
X93345Y-74613
X93345Y-93663
X93345Y-112713
X93345Y-131763
X102870Y-131763
X103505Y-74613
X103505Y-93663
X103505Y-112713
X103505Y-131763
X112395Y-74613
X112395Y-93663
X112395Y-112713
X112395Y-131763
X113030Y-131763
X122555Y-74613
X122555Y-93663
X122555Y-112713
X122555Y-131763
X131445Y-74613
X131445Y-93663
X131445Y-112713
X131445Y-131763
X141605Y-74613
X141605Y-93663
X141605Y-112713
X141605Y-131763
X150495Y-74613
X150495Y-93663
X150495Y-112713
X150495Y-131763
X160655Y-74613
X160655Y-93663
X160655Y-112713
X160655Y-131763
X169545Y-74613
X169545Y-93663
X169545Y-112713
X169545Y-131763
X179705Y-74613
X179705Y-93663
X179705Y-112713
X179705Y-131763
X188595Y-74613
X188595Y-93663
X188595Y-112713
X188595Y-131763
X198755Y-74613
X198755Y-93663
X198755Y-112713
X198755Y-131763
T3
X15688Y-36169
X15688Y-41619
T4
X16669Y-13494
X16669Y-61913
X31750Y-84138
X31750Y-122238
X107950Y-103188
X184150Y-84138
X184150Y-122238
X199231Y-13494
X199231Y-61913
T5
X18415Y-72072
X18415Y-91123
X18415Y-110173
X18415Y-129223
X24765Y-69533
X24765Y-88583
X24765Y-107632
X24765Y-126682
X37465Y-72072
X37465Y-91123
X37465Y-110173
X37465Y-129223
X43815Y-69533
X43815Y-88583
X43815Y-107632
X43815Y-126682
X56515Y-72072
X56515Y-91123
X56515Y-110173
X56515Y-129223
X62865Y-69533
X62865Y-88583
X62865Y-107632
X62865Y-126682
X75565Y-72072
X75565Y-91123
X75565Y-110173
X75565Y-129223
X81915Y-69533
X81915Y-88583
X81915Y-107632
X81915Y-126682
X94615Y-72072
X94615Y-91123
X94615Y-110173
X94615Y-129223
X100965Y-69533
X100965Y-88583
X100965Y-107632
X100965Y-126682
X105410Y-136843
X111760Y-134302
X113665Y-72072
X113665Y-91123
X113665Y-110173
X113665Y-129223
X120015Y-69533
X120015Y-88583
X120015Y-107632
X120015Y-126682
X132715Y-72072
X132715Y-91123
X132715Y-110173
X132715Y-129223
X139065Y-69533
X139065Y-88583
X139065Y-107632
X139065Y-126682
X151765Y-72072
X151765Y-91123
X151765Y-110173
X151765Y-129223
X158115Y-69533
X158115Y-88583
X158115Y-107632
X158115Y-126682
X170815Y-72072
X170815Y-91123
X170815Y-110173
X170815Y-129223
X177165Y-69533
X177165Y-88583
X177165Y-107632
X177165Y-126682
X189865Y-72072
X189865Y-91123
X189865Y-110173
X189865Y-129223
X196215Y-69533
X196215Y-88583
X196215Y-107632
X196215Y-126682
T6
X96050Y-138748
X119850Y-138748
T7
X22225Y-74613
X22225Y-93663
X22225Y-112713
X22225Y-131763
X41275Y-74613
X41275Y-93663
X41275Y-112713
X41275Y-131763
X60325Y-74613
X60325Y-93663
X60325Y-112713
X60325Y-131763
X79375Y-74613
X79375Y-93663
X79375Y-112713
X79375Y-131763
X96050Y-123507
X98425Y-74613
X98425Y-93663
X98425Y-112713
X98425Y-131763
X107950Y-131763
X117475Y-74613
X117475Y-93663
X117475Y-112713
X117475Y-131763
X119850Y-123507
X136525Y-74613
X136525Y-93663
X136525Y-112713
X136525Y-131763
X155575Y-74613
X155575Y-93663
X155575Y-112713
X155575Y-131763
X174625Y-74613
X174625Y-93663
X174625Y-112713
X174625Y-131763
X193675Y-74613
X193675Y-93663
X193675Y-112713
X193675Y-131763
T0
M30
