%TF.GenerationSoftware,KiCad,Pcbnew,(6.0.4-0)*%
%TF.CreationDate,2022-09-25T09:44:29-05:00*%
%TF.ProjectId,mekko5X,6d656b6b-6f35-4582-9e6b-696361645f70,rev?*%
%TF.SameCoordinates,Original*%
%TF.FileFunction,Legend,Top*%
%TF.FilePolarity,Positive*%
%FSLAX46Y46*%
G04 Gerber Fmt 4.6, Leading zero omitted, Abs format (unit mm)*
G04 Created by KiCad (PCBNEW (6.0.4-0)) date 2022-09-25 09:44:29*
%MOMM*%
%LPD*%
G01*
G04 APERTURE LIST*
%ADD10C,0.150000*%
%ADD11C,0.120000*%
G04 APERTURE END LIST*
D10*
%TO.C,SW1*%
X178366666Y-20192261D02*
X178509523Y-20239880D01*
X178747619Y-20239880D01*
X178842857Y-20192261D01*
X178890476Y-20144642D01*
X178938095Y-20049404D01*
X178938095Y-19954166D01*
X178890476Y-19858928D01*
X178842857Y-19811309D01*
X178747619Y-19763690D01*
X178557142Y-19716071D01*
X178461904Y-19668452D01*
X178414285Y-19620833D01*
X178366666Y-19525595D01*
X178366666Y-19430357D01*
X178414285Y-19335119D01*
X178461904Y-19287500D01*
X178557142Y-19239880D01*
X178795238Y-19239880D01*
X178938095Y-19287500D01*
X179271428Y-19239880D02*
X179509523Y-20239880D01*
X179700000Y-19525595D01*
X179890476Y-20239880D01*
X180128571Y-19239880D01*
X181033333Y-20239880D02*
X180461904Y-20239880D01*
X180747619Y-20239880D02*
X180747619Y-19239880D01*
X180652380Y-19382738D01*
X180557142Y-19477976D01*
X180461904Y-19525595D01*
%TO.C,SW2*%
X178366666Y-44004761D02*
X178509523Y-44052380D01*
X178747619Y-44052380D01*
X178842857Y-44004761D01*
X178890476Y-43957142D01*
X178938095Y-43861904D01*
X178938095Y-43766666D01*
X178890476Y-43671428D01*
X178842857Y-43623809D01*
X178747619Y-43576190D01*
X178557142Y-43528571D01*
X178461904Y-43480952D01*
X178414285Y-43433333D01*
X178366666Y-43338095D01*
X178366666Y-43242857D01*
X178414285Y-43147619D01*
X178461904Y-43100000D01*
X178557142Y-43052380D01*
X178795238Y-43052380D01*
X178938095Y-43100000D01*
X179271428Y-43052380D02*
X179509523Y-44052380D01*
X179700000Y-43338095D01*
X179890476Y-44052380D01*
X180128571Y-43052380D01*
X180461904Y-43147619D02*
X180509523Y-43100000D01*
X180604761Y-43052380D01*
X180842857Y-43052380D01*
X180938095Y-43100000D01*
X180985714Y-43147619D01*
X181033333Y-43242857D01*
X181033333Y-43338095D01*
X180985714Y-43480952D01*
X180414285Y-44052380D01*
X181033333Y-44052380D01*
%TO.C,SW35*%
X67325000Y-124762500D02*
X67325000Y-125762500D01*
X54325000Y-124762500D02*
X53325000Y-124762500D01*
X67325000Y-137762500D02*
X67325000Y-138762500D01*
X53325000Y-125762500D02*
X53325000Y-124762500D01*
X67325000Y-124762500D02*
X66325000Y-124762500D01*
X53325000Y-138762500D02*
X53325000Y-137762500D01*
X53325000Y-138762500D02*
X54325000Y-138762500D01*
X66325000Y-138762500D02*
X67325000Y-138762500D01*
%TO.C,SW26*%
X72375000Y-119712500D02*
X73375000Y-119712500D01*
X86375000Y-105712500D02*
X86375000Y-106712500D01*
X72375000Y-119712500D02*
X72375000Y-118712500D01*
X86375000Y-118712500D02*
X86375000Y-119712500D01*
X73375000Y-105712500D02*
X72375000Y-105712500D01*
X72375000Y-106712500D02*
X72375000Y-105712500D01*
X86375000Y-105712500D02*
X85375000Y-105712500D01*
X85375000Y-119712500D02*
X86375000Y-119712500D01*
%TO.C,SW24*%
X48275000Y-118712500D02*
X48275000Y-119712500D01*
X34275000Y-106712500D02*
X34275000Y-105712500D01*
X34275000Y-119712500D02*
X35275000Y-119712500D01*
X48275000Y-105712500D02*
X47275000Y-105712500D01*
X35275000Y-105712500D02*
X34275000Y-105712500D01*
X34275000Y-119712500D02*
X34275000Y-118712500D01*
X48275000Y-105712500D02*
X48275000Y-106712500D01*
X47275000Y-119712500D02*
X48275000Y-119712500D01*
%TO.C,SW22*%
X200675000Y-99662500D02*
X200675000Y-100662500D01*
X186675000Y-87662500D02*
X186675000Y-86662500D01*
X200675000Y-86662500D02*
X200675000Y-87662500D01*
X186675000Y-100662500D02*
X186675000Y-99662500D01*
X187675000Y-86662500D02*
X186675000Y-86662500D01*
X199675000Y-100662500D02*
X200675000Y-100662500D01*
X186675000Y-100662500D02*
X187675000Y-100662500D01*
X200675000Y-86662500D02*
X199675000Y-86662500D01*
%TO.C,SW9*%
X129525000Y-81612500D02*
X130525000Y-81612500D01*
X129525000Y-68612500D02*
X129525000Y-67612500D01*
X129525000Y-81612500D02*
X129525000Y-80612500D01*
X143525000Y-67612500D02*
X142525000Y-67612500D01*
X142525000Y-81612500D02*
X143525000Y-81612500D01*
X143525000Y-80612500D02*
X143525000Y-81612500D01*
X143525000Y-67612500D02*
X143525000Y-68612500D01*
X130525000Y-67612500D02*
X129525000Y-67612500D01*
%TO.C,SW18*%
X124475000Y-86662500D02*
X123475000Y-86662500D01*
X123475000Y-100662500D02*
X124475000Y-100662500D01*
X110475000Y-87662500D02*
X110475000Y-86662500D01*
X110475000Y-100662500D02*
X111475000Y-100662500D01*
X124475000Y-86662500D02*
X124475000Y-87662500D01*
X111475000Y-86662500D02*
X110475000Y-86662500D01*
X110475000Y-100662500D02*
X110475000Y-99662500D01*
X124475000Y-99662500D02*
X124475000Y-100662500D01*
%TO.C,SW8*%
X123475000Y-81612500D02*
X124475000Y-81612500D01*
X110475000Y-68612500D02*
X110475000Y-67612500D01*
X124475000Y-67612500D02*
X124475000Y-68612500D01*
X110475000Y-81612500D02*
X111475000Y-81612500D01*
X111475000Y-67612500D02*
X110475000Y-67612500D01*
X124475000Y-80612500D02*
X124475000Y-81612500D01*
X110475000Y-81612500D02*
X110475000Y-80612500D01*
X124475000Y-67612500D02*
X123475000Y-67612500D01*
%TO.C,SW32*%
X186675000Y-119712500D02*
X187675000Y-119712500D01*
X200675000Y-105712500D02*
X200675000Y-106712500D01*
X199675000Y-119712500D02*
X200675000Y-119712500D01*
X200675000Y-105712500D02*
X199675000Y-105712500D01*
X200675000Y-118712500D02*
X200675000Y-119712500D01*
X186675000Y-106712500D02*
X186675000Y-105712500D01*
X187675000Y-105712500D02*
X186675000Y-105712500D01*
X186675000Y-119712500D02*
X186675000Y-118712500D01*
D11*
%TO.C,SW1*%
X190500000Y-25687500D02*
X190500000Y-28287500D01*
X186400000Y-21087500D02*
X190500000Y-21087500D01*
X176900000Y-23187500D02*
X176600000Y-22887500D01*
X190500000Y-30487500D02*
X190500000Y-32887500D01*
X176600000Y-22887500D02*
X177200000Y-22887500D01*
X177200000Y-22887500D02*
X176900000Y-23187500D01*
X182400000Y-32887500D02*
X178300000Y-32887500D01*
X190500000Y-32887500D02*
X186400000Y-32887500D01*
X184400000Y-26487500D02*
X184400000Y-27487500D01*
X190500000Y-21087500D02*
X190500000Y-23487500D01*
X182400000Y-21087500D02*
X178300000Y-21087500D01*
X178300000Y-21087500D02*
X178300000Y-32887500D01*
X183900000Y-26987500D02*
X184900000Y-26987500D01*
X187400000Y-26987500D02*
G75*
G03*
X187400000Y-26987500I-3000000J0D01*
G01*
D10*
%TO.C,SW29*%
X129525000Y-106712500D02*
X129525000Y-105712500D01*
X129525000Y-119712500D02*
X129525000Y-118712500D01*
X143525000Y-105712500D02*
X142525000Y-105712500D01*
X142525000Y-119712500D02*
X143525000Y-119712500D01*
X129525000Y-119712500D02*
X130525000Y-119712500D01*
X130525000Y-105712500D02*
X129525000Y-105712500D01*
X143525000Y-118712500D02*
X143525000Y-119712500D01*
X143525000Y-105712500D02*
X143525000Y-106712500D01*
%TO.C,SW21*%
X167625000Y-100662500D02*
X168625000Y-100662500D01*
X180625000Y-100662500D02*
X181625000Y-100662500D01*
X167625000Y-100662500D02*
X167625000Y-99662500D01*
X181625000Y-99662500D02*
X181625000Y-100662500D01*
X181625000Y-86662500D02*
X181625000Y-87662500D01*
X167625000Y-87662500D02*
X167625000Y-86662500D01*
X168625000Y-86662500D02*
X167625000Y-86662500D01*
X181625000Y-86662500D02*
X180625000Y-86662500D01*
%TO.C,SW5*%
X66325000Y-81612500D02*
X67325000Y-81612500D01*
X67325000Y-67612500D02*
X66325000Y-67612500D01*
X53325000Y-81612500D02*
X54325000Y-81612500D01*
X54325000Y-67612500D02*
X53325000Y-67612500D01*
X53325000Y-68612500D02*
X53325000Y-67612500D01*
X67325000Y-67612500D02*
X67325000Y-68612500D01*
X53325000Y-81612500D02*
X53325000Y-80612500D01*
X67325000Y-80612500D02*
X67325000Y-81612500D01*
%TO.C,SW41*%
X181625000Y-124762500D02*
X180625000Y-124762500D01*
X180625000Y-138762500D02*
X181625000Y-138762500D01*
X167625000Y-138762500D02*
X168625000Y-138762500D01*
X181625000Y-137762500D02*
X181625000Y-138762500D01*
X167625000Y-125762500D02*
X167625000Y-124762500D01*
X181625000Y-124762500D02*
X181625000Y-125762500D01*
X168625000Y-124762500D02*
X167625000Y-124762500D01*
X167625000Y-138762500D02*
X167625000Y-137762500D01*
%TO.C,SW3*%
X15225000Y-68612500D02*
X15225000Y-67612500D01*
X16225000Y-67612500D02*
X15225000Y-67612500D01*
X29225000Y-80612500D02*
X29225000Y-81612500D01*
X15225000Y-81612500D02*
X16225000Y-81612500D01*
X28225000Y-81612500D02*
X29225000Y-81612500D01*
X29225000Y-67612500D02*
X28225000Y-67612500D01*
X15225000Y-81612500D02*
X15225000Y-80612500D01*
X29225000Y-67612500D02*
X29225000Y-68612500D01*
%TO.C,SW42*%
X200675000Y-124762500D02*
X200675000Y-125762500D01*
X199675000Y-138762500D02*
X200675000Y-138762500D01*
X187675000Y-124762500D02*
X186675000Y-124762500D01*
X186675000Y-138762500D02*
X187675000Y-138762500D01*
X186675000Y-138762500D02*
X186675000Y-137762500D01*
X186675000Y-125762500D02*
X186675000Y-124762500D01*
X200675000Y-137762500D02*
X200675000Y-138762500D01*
X200675000Y-124762500D02*
X199675000Y-124762500D01*
%TO.C,SW34*%
X35275000Y-124762500D02*
X34275000Y-124762500D01*
X34275000Y-138762500D02*
X34275000Y-137762500D01*
X48275000Y-137762500D02*
X48275000Y-138762500D01*
X34275000Y-138762500D02*
X35275000Y-138762500D01*
X34275000Y-125762500D02*
X34275000Y-124762500D01*
X48275000Y-124762500D02*
X47275000Y-124762500D01*
X48275000Y-124762500D02*
X48275000Y-125762500D01*
X47275000Y-138762500D02*
X48275000Y-138762500D01*
%TO.C,SW10*%
X161575000Y-81612500D02*
X162575000Y-81612500D01*
X148575000Y-81612500D02*
X148575000Y-80612500D01*
X162575000Y-67612500D02*
X162575000Y-68612500D01*
X149575000Y-67612500D02*
X148575000Y-67612500D01*
X148575000Y-81612500D02*
X149575000Y-81612500D01*
X162575000Y-80612500D02*
X162575000Y-81612500D01*
X148575000Y-68612500D02*
X148575000Y-67612500D01*
X162575000Y-67612500D02*
X161575000Y-67612500D01*
%TO.C,SW30*%
X148575000Y-119712500D02*
X148575000Y-118712500D01*
X161575000Y-119712500D02*
X162575000Y-119712500D01*
X162575000Y-105712500D02*
X162575000Y-106712500D01*
X148575000Y-119712500D02*
X149575000Y-119712500D01*
X162575000Y-118712500D02*
X162575000Y-119712500D01*
X162575000Y-105712500D02*
X161575000Y-105712500D01*
X148575000Y-106712500D02*
X148575000Y-105712500D01*
X149575000Y-105712500D02*
X148575000Y-105712500D01*
%TO.C,SW36*%
X72375000Y-125762500D02*
X72375000Y-124762500D01*
X86375000Y-124762500D02*
X86375000Y-125762500D01*
X72375000Y-138762500D02*
X72375000Y-137762500D01*
X86375000Y-137762500D02*
X86375000Y-138762500D01*
X73375000Y-124762500D02*
X72375000Y-124762500D01*
X72375000Y-138762500D02*
X73375000Y-138762500D01*
X85375000Y-138762500D02*
X86375000Y-138762500D01*
X86375000Y-124762500D02*
X85375000Y-124762500D01*
%TO.C,SW4*%
X48275000Y-67612500D02*
X47275000Y-67612500D01*
X34275000Y-68612500D02*
X34275000Y-67612500D01*
X35275000Y-67612500D02*
X34275000Y-67612500D01*
X34275000Y-81612500D02*
X34275000Y-80612500D01*
X48275000Y-80612500D02*
X48275000Y-81612500D01*
X47275000Y-81612500D02*
X48275000Y-81612500D01*
X48275000Y-67612500D02*
X48275000Y-68612500D01*
X34275000Y-81612500D02*
X35275000Y-81612500D01*
%TO.C,SW31*%
X181625000Y-118712500D02*
X181625000Y-119712500D01*
X180625000Y-119712500D02*
X181625000Y-119712500D01*
X167625000Y-119712500D02*
X167625000Y-118712500D01*
X181625000Y-105712500D02*
X181625000Y-106712500D01*
X181625000Y-105712500D02*
X180625000Y-105712500D01*
X167625000Y-119712500D02*
X168625000Y-119712500D01*
X167625000Y-106712500D02*
X167625000Y-105712500D01*
X168625000Y-105712500D02*
X167625000Y-105712500D01*
%TO.C,SW16*%
X73375000Y-86662500D02*
X72375000Y-86662500D01*
X72375000Y-100662500D02*
X73375000Y-100662500D01*
X86375000Y-86662500D02*
X85375000Y-86662500D01*
X72375000Y-87662500D02*
X72375000Y-86662500D01*
X72375000Y-100662500D02*
X72375000Y-99662500D01*
X86375000Y-86662500D02*
X86375000Y-87662500D01*
X86375000Y-99662500D02*
X86375000Y-100662500D01*
X85375000Y-100662500D02*
X86375000Y-100662500D01*
%TO.C,SW33*%
X29225000Y-137762500D02*
X29225000Y-138762500D01*
X28225000Y-138762500D02*
X29225000Y-138762500D01*
X15225000Y-138762500D02*
X16225000Y-138762500D01*
X16225000Y-124762500D02*
X15225000Y-124762500D01*
X29225000Y-124762500D02*
X29225000Y-125762500D01*
X29225000Y-124762500D02*
X28225000Y-124762500D01*
X15225000Y-125762500D02*
X15225000Y-124762500D01*
X15225000Y-138762500D02*
X15225000Y-137762500D01*
%TO.C,SW7*%
X105425000Y-80612500D02*
X105425000Y-81612500D01*
X105425000Y-67612500D02*
X104425000Y-67612500D01*
X92425000Y-67612500D02*
X91425000Y-67612500D01*
X104425000Y-81612500D02*
X105425000Y-81612500D01*
X91425000Y-81612500D02*
X92425000Y-81612500D01*
X91425000Y-68612500D02*
X91425000Y-67612500D01*
X91425000Y-81612500D02*
X91425000Y-80612500D01*
X105425000Y-67612500D02*
X105425000Y-68612500D01*
%TO.C,SW44*%
X113950000Y-138762500D02*
X114950000Y-138762500D01*
X114950000Y-137762500D02*
X114950000Y-138762500D01*
X100950000Y-138762500D02*
X100950000Y-137762500D01*
X114950000Y-124762500D02*
X114950000Y-125762500D01*
X100950000Y-125762500D02*
X100950000Y-124762500D01*
X100950000Y-138762500D02*
X101950000Y-138762500D01*
X101950000Y-124762500D02*
X100950000Y-124762500D01*
X114950000Y-124762500D02*
X113950000Y-124762500D01*
D11*
%TO.C,SW2*%
X177200000Y-46700000D02*
X176900000Y-47000000D01*
X176900000Y-47000000D02*
X176600000Y-46700000D01*
X190500000Y-56700000D02*
X186400000Y-56700000D01*
X182400000Y-56700000D02*
X178300000Y-56700000D01*
X184400000Y-50300000D02*
X184400000Y-51300000D01*
X182400000Y-44900000D02*
X178300000Y-44900000D01*
X176600000Y-46700000D02*
X177200000Y-46700000D01*
X190500000Y-54300000D02*
X190500000Y-56700000D01*
X190500000Y-49500000D02*
X190500000Y-52100000D01*
X178300000Y-44900000D02*
X178300000Y-56700000D01*
X186400000Y-44900000D02*
X190500000Y-44900000D01*
X190500000Y-44900000D02*
X190500000Y-47300000D01*
X183900000Y-50800000D02*
X184900000Y-50800000D01*
X187400000Y-50800000D02*
G75*
G03*
X187400000Y-50800000I-3000000J0D01*
G01*
D10*
%TO.C,SW37*%
X92425000Y-124762500D02*
X91425000Y-124762500D01*
X105425000Y-124762500D02*
X105425000Y-125762500D01*
X105425000Y-137762500D02*
X105425000Y-138762500D01*
X91425000Y-125762500D02*
X91425000Y-124762500D01*
X91425000Y-138762500D02*
X92425000Y-138762500D01*
X104425000Y-138762500D02*
X105425000Y-138762500D01*
X105425000Y-124762500D02*
X104425000Y-124762500D01*
X91425000Y-138762500D02*
X91425000Y-137762500D01*
%TO.C,SW27*%
X104425000Y-119712500D02*
X105425000Y-119712500D01*
X105425000Y-105712500D02*
X105425000Y-106712500D01*
X105425000Y-105712500D02*
X104425000Y-105712500D01*
X91425000Y-119712500D02*
X91425000Y-118712500D01*
X105425000Y-118712500D02*
X105425000Y-119712500D01*
X91425000Y-106712500D02*
X91425000Y-105712500D01*
X91425000Y-119712500D02*
X92425000Y-119712500D01*
X92425000Y-105712500D02*
X91425000Y-105712500D01*
%TO.C,SW11*%
X167625000Y-81612500D02*
X167625000Y-80612500D01*
X168625000Y-67612500D02*
X167625000Y-67612500D01*
X180625000Y-81612500D02*
X181625000Y-81612500D01*
X167625000Y-68612500D02*
X167625000Y-67612500D01*
X167625000Y-81612500D02*
X168625000Y-81612500D01*
X181625000Y-80612500D02*
X181625000Y-81612500D01*
X181625000Y-67612500D02*
X181625000Y-68612500D01*
X181625000Y-67612500D02*
X180625000Y-67612500D01*
%TO.C,SW20*%
X148575000Y-100662500D02*
X149575000Y-100662500D01*
X162575000Y-99662500D02*
X162575000Y-100662500D01*
X148575000Y-87662500D02*
X148575000Y-86662500D01*
X162575000Y-86662500D02*
X161575000Y-86662500D01*
X149575000Y-86662500D02*
X148575000Y-86662500D01*
X162575000Y-86662500D02*
X162575000Y-87662500D01*
X148575000Y-100662500D02*
X148575000Y-99662500D01*
X161575000Y-100662500D02*
X162575000Y-100662500D01*
%TO.C,SW15*%
X53325000Y-100662500D02*
X53325000Y-99662500D01*
X67325000Y-99662500D02*
X67325000Y-100662500D01*
X66325000Y-100662500D02*
X67325000Y-100662500D01*
X53325000Y-100662500D02*
X54325000Y-100662500D01*
X67325000Y-86662500D02*
X67325000Y-87662500D01*
X53325000Y-87662500D02*
X53325000Y-86662500D01*
X54325000Y-86662500D02*
X53325000Y-86662500D01*
X67325000Y-86662500D02*
X66325000Y-86662500D01*
%TO.C,SW38*%
X124475000Y-137762500D02*
X124475000Y-138762500D01*
X110475000Y-125762500D02*
X110475000Y-124762500D01*
X124475000Y-124762500D02*
X124475000Y-125762500D01*
X124475000Y-124762500D02*
X123475000Y-124762500D01*
X111475000Y-124762500D02*
X110475000Y-124762500D01*
X110475000Y-138762500D02*
X111475000Y-138762500D01*
X110475000Y-138762500D02*
X110475000Y-137762500D01*
X123475000Y-138762500D02*
X124475000Y-138762500D01*
%TO.C,SW39*%
X142525000Y-138762500D02*
X143525000Y-138762500D01*
X143525000Y-124762500D02*
X143525000Y-125762500D01*
X130525000Y-124762500D02*
X129525000Y-124762500D01*
X143525000Y-137762500D02*
X143525000Y-138762500D01*
X143525000Y-124762500D02*
X142525000Y-124762500D01*
X129525000Y-125762500D02*
X129525000Y-124762500D01*
X129525000Y-138762500D02*
X130525000Y-138762500D01*
X129525000Y-138762500D02*
X129525000Y-137762500D01*
%TO.C,SW19*%
X129525000Y-100662500D02*
X129525000Y-99662500D01*
X130525000Y-86662500D02*
X129525000Y-86662500D01*
X143525000Y-86662500D02*
X143525000Y-87662500D01*
X129525000Y-87662500D02*
X129525000Y-86662500D01*
X143525000Y-99662500D02*
X143525000Y-100662500D01*
X129525000Y-100662500D02*
X130525000Y-100662500D01*
X143525000Y-86662500D02*
X142525000Y-86662500D01*
X142525000Y-100662500D02*
X143525000Y-100662500D01*
%TO.C,SW6*%
X72375000Y-81612500D02*
X72375000Y-80612500D01*
X72375000Y-68612500D02*
X72375000Y-67612500D01*
X73375000Y-67612500D02*
X72375000Y-67612500D01*
X72375000Y-81612500D02*
X73375000Y-81612500D01*
X85375000Y-81612500D02*
X86375000Y-81612500D01*
X86375000Y-80612500D02*
X86375000Y-81612500D01*
X86375000Y-67612500D02*
X86375000Y-68612500D01*
X86375000Y-67612500D02*
X85375000Y-67612500D01*
%TO.C,SW13*%
X16225000Y-86662500D02*
X15225000Y-86662500D01*
X29225000Y-99662500D02*
X29225000Y-100662500D01*
X15225000Y-87662500D02*
X15225000Y-86662500D01*
X28225000Y-100662500D02*
X29225000Y-100662500D01*
X15225000Y-100662500D02*
X16225000Y-100662500D01*
X15225000Y-100662500D02*
X15225000Y-99662500D01*
X29225000Y-86662500D02*
X28225000Y-86662500D01*
X29225000Y-86662500D02*
X29225000Y-87662500D01*
%TO.C,SW28*%
X110475000Y-119712500D02*
X111475000Y-119712500D01*
X124475000Y-105712500D02*
X123475000Y-105712500D01*
X110475000Y-119712500D02*
X110475000Y-118712500D01*
X110475000Y-106712500D02*
X110475000Y-105712500D01*
X111475000Y-105712500D02*
X110475000Y-105712500D01*
X124475000Y-105712500D02*
X124475000Y-106712500D01*
X124475000Y-118712500D02*
X124475000Y-119712500D01*
X123475000Y-119712500D02*
X124475000Y-119712500D01*
%TO.C,SW25*%
X53325000Y-119712500D02*
X54325000Y-119712500D01*
X67325000Y-105712500D02*
X66325000Y-105712500D01*
X53325000Y-106712500D02*
X53325000Y-105712500D01*
X53325000Y-119712500D02*
X53325000Y-118712500D01*
X67325000Y-118712500D02*
X67325000Y-119712500D01*
X54325000Y-105712500D02*
X53325000Y-105712500D01*
X67325000Y-105712500D02*
X67325000Y-106712500D01*
X66325000Y-119712500D02*
X67325000Y-119712500D01*
%TO.C,SW40*%
X162575000Y-137762500D02*
X162575000Y-138762500D01*
X148575000Y-125762500D02*
X148575000Y-124762500D01*
X162575000Y-124762500D02*
X161575000Y-124762500D01*
X161575000Y-138762500D02*
X162575000Y-138762500D01*
X148575000Y-138762500D02*
X149575000Y-138762500D01*
X162575000Y-124762500D02*
X162575000Y-125762500D01*
X149575000Y-124762500D02*
X148575000Y-124762500D01*
X148575000Y-138762500D02*
X148575000Y-137762500D01*
%TO.C,SW17*%
X105425000Y-86662500D02*
X104425000Y-86662500D01*
X91425000Y-100662500D02*
X91425000Y-99662500D01*
X105425000Y-86662500D02*
X105425000Y-87662500D01*
X104425000Y-100662500D02*
X105425000Y-100662500D01*
X91425000Y-87662500D02*
X91425000Y-86662500D01*
X91425000Y-100662500D02*
X92425000Y-100662500D01*
X92425000Y-86662500D02*
X91425000Y-86662500D01*
X105425000Y-99662500D02*
X105425000Y-100662500D01*
%TO.C,SW23*%
X16225000Y-105712500D02*
X15225000Y-105712500D01*
X15225000Y-106712500D02*
X15225000Y-105712500D01*
X29225000Y-105712500D02*
X28225000Y-105712500D01*
X15225000Y-119712500D02*
X16225000Y-119712500D01*
X15225000Y-119712500D02*
X15225000Y-118712500D01*
X28225000Y-119712500D02*
X29225000Y-119712500D01*
X29225000Y-105712500D02*
X29225000Y-106712500D01*
X29225000Y-118712500D02*
X29225000Y-119712500D01*
%TO.C,SW14*%
X48275000Y-86662500D02*
X48275000Y-87662500D01*
X48275000Y-99662500D02*
X48275000Y-100662500D01*
X48275000Y-86662500D02*
X47275000Y-86662500D01*
X35275000Y-86662500D02*
X34275000Y-86662500D01*
X34275000Y-87662500D02*
X34275000Y-86662500D01*
X34275000Y-100662500D02*
X35275000Y-100662500D01*
X47275000Y-100662500D02*
X48275000Y-100662500D01*
X34275000Y-100662500D02*
X34275000Y-99662500D01*
%TO.C,SW12*%
X186675000Y-81612500D02*
X186675000Y-80612500D01*
X200675000Y-80612500D02*
X200675000Y-81612500D01*
X199675000Y-81612500D02*
X200675000Y-81612500D01*
X200675000Y-67612500D02*
X199675000Y-67612500D01*
X187675000Y-67612500D02*
X186675000Y-67612500D01*
X200675000Y-67612500D02*
X200675000Y-68612500D01*
X186675000Y-81612500D02*
X187675000Y-81612500D01*
X186675000Y-68612500D02*
X186675000Y-67612500D01*
%TD*%
M02*
